G75*
G70*
%OFA0B0*%
%FSLAX24Y24*%
%IPPOS*%
%LPD*%
%AMOC8*
5,1,8,0,0,1.08239X$1,22.5*
%
%ADD10OC8,0.0710*%
%ADD11C,0.0520*%
%ADD12OC8,0.0600*%
%ADD13OC8,0.0680*%
%ADD14C,0.0680*%
%ADD15R,0.0476X0.0476*%
D10*
X008600Y001600D03*
X008600Y003600D03*
X012600Y003600D03*
X012600Y001600D03*
X008100Y015100D03*
X008100Y016600D03*
X008100Y018100D03*
X008100Y019600D03*
X006100Y019600D03*
X006100Y018100D03*
X006100Y016600D03*
X006100Y015100D03*
D11*
X010100Y006320D02*
X010100Y005880D01*
X012100Y005880D02*
X012100Y006320D01*
D12*
X010600Y004100D03*
X010600Y001100D03*
X014100Y001600D03*
X017100Y001600D03*
X007600Y010100D03*
X006600Y010100D03*
X006600Y008100D03*
X006600Y005100D03*
X006600Y013100D03*
X007600Y013100D03*
D13*
X003600Y014600D03*
X003600Y015600D03*
X002600Y015600D03*
X002600Y014600D03*
X002600Y016600D03*
X003600Y016600D03*
X010600Y020100D03*
X010600Y021100D03*
X011600Y021100D03*
X011600Y020100D03*
X012600Y020100D03*
X012600Y021100D03*
X013600Y021100D03*
X013600Y020100D03*
X014600Y020100D03*
X014600Y021100D03*
X015600Y021100D03*
X015600Y020100D03*
X016600Y020100D03*
X016600Y021100D03*
X017600Y021100D03*
X017600Y020100D03*
X017100Y004600D03*
X016100Y004600D03*
X016100Y003600D03*
X017100Y003600D03*
X018100Y003600D03*
X019100Y003600D03*
X019100Y004600D03*
X018100Y004600D03*
X015100Y004600D03*
X015100Y003600D03*
D14*
X002100Y002900D02*
X002100Y002300D01*
X003100Y002300D02*
X003100Y002900D01*
X005600Y002900D02*
X005600Y002300D01*
X006600Y002300D02*
X006600Y002900D01*
X003900Y006100D02*
X003300Y006100D01*
X003300Y007100D02*
X003900Y007100D01*
X003900Y008100D02*
X003300Y008100D01*
X003300Y009100D02*
X003900Y009100D01*
X003900Y010100D02*
X003300Y010100D01*
X003300Y011100D02*
X003900Y011100D01*
X003900Y012100D02*
X003300Y012100D01*
X003300Y013100D02*
X003900Y013100D01*
X003900Y019100D02*
X003300Y019100D01*
X003300Y020100D02*
X003900Y020100D01*
X003900Y021100D02*
X003300Y021100D01*
X020300Y021100D02*
X020900Y021100D01*
X020900Y020100D02*
X020300Y020100D01*
X020300Y019100D02*
X020900Y019100D01*
X020900Y018100D02*
X020300Y018100D01*
X020300Y017100D02*
X020900Y017100D01*
X020900Y016100D02*
X020300Y016100D01*
X020300Y015100D02*
X020900Y015100D01*
X020900Y014100D02*
X020300Y014100D01*
X020300Y012600D02*
X020900Y012600D01*
X020900Y011600D02*
X020300Y011600D01*
X020300Y010600D02*
X020900Y010600D01*
X020900Y009600D02*
X020300Y009600D01*
X020300Y008600D02*
X020900Y008600D01*
X020900Y007600D02*
X020300Y007600D01*
X020300Y006600D02*
X020900Y006600D01*
X020900Y005600D02*
X020300Y005600D01*
D15*
X016600Y007600D03*
X012100Y005100D03*
X008100Y007600D03*
X005600Y010100D03*
X004850Y010350D03*
X008600Y013600D03*
X009600Y016100D03*
X007100Y017100D03*
X014600Y013600D03*
X016600Y013100D03*
X017600Y012600D03*
X003100Y005100D03*
M02*
