G75*
G70*
%OFA0B0*%
%FSLAX24Y24*%
%IPPOS*%
%LPD*%
%AMOC8*
5,1,8,0,0,1.08239X$1,22.5*
%
%ADD10C,0.0060*%
%ADD11C,0.0100*%
%ADD12C,0.0120*%
%ADD13C,0.0020*%
%ADD14C,0.0050*%
%ADD15C,0.0040*%
D10*
X001100Y001100D02*
X001600Y001100D01*
X001600Y001300D01*
X003600Y001300D01*
X003600Y001100D01*
X004100Y001100D01*
X004100Y003600D01*
X003600Y004100D01*
X001100Y004100D01*
X001100Y001100D01*
X001343Y001387D02*
X001343Y001614D01*
X001230Y001500D02*
X001457Y001500D01*
X001600Y002600D02*
X001602Y002663D01*
X001608Y002725D01*
X001618Y002787D01*
X001631Y002849D01*
X001649Y002909D01*
X001670Y002968D01*
X001695Y003026D01*
X001724Y003082D01*
X001756Y003136D01*
X001791Y003188D01*
X001829Y003237D01*
X001871Y003285D01*
X001915Y003329D01*
X001963Y003371D01*
X002012Y003409D01*
X002064Y003444D01*
X002118Y003476D01*
X002174Y003505D01*
X002232Y003530D01*
X002291Y003551D01*
X002351Y003569D01*
X002413Y003582D01*
X002475Y003592D01*
X002537Y003598D01*
X002600Y003600D01*
X002663Y003598D01*
X002725Y003592D01*
X002787Y003582D01*
X002849Y003569D01*
X002909Y003551D01*
X002968Y003530D01*
X003026Y003505D01*
X003082Y003476D01*
X003136Y003444D01*
X003188Y003409D01*
X003237Y003371D01*
X003285Y003329D01*
X003329Y003285D01*
X003371Y003237D01*
X003409Y003188D01*
X003444Y003136D01*
X003476Y003082D01*
X003505Y003026D01*
X003530Y002968D01*
X003551Y002909D01*
X003569Y002849D01*
X003582Y002787D01*
X003592Y002725D01*
X003598Y002663D01*
X003600Y002600D01*
X003598Y002537D01*
X003592Y002475D01*
X003582Y002413D01*
X003569Y002351D01*
X003551Y002291D01*
X003530Y002232D01*
X003505Y002174D01*
X003476Y002118D01*
X003444Y002064D01*
X003409Y002012D01*
X003371Y001963D01*
X003329Y001915D01*
X003285Y001871D01*
X003237Y001829D01*
X003188Y001791D01*
X003136Y001756D01*
X003082Y001724D01*
X003026Y001695D01*
X002968Y001670D01*
X002909Y001649D01*
X002849Y001631D01*
X002787Y001618D01*
X002725Y001608D01*
X002663Y001602D01*
X002600Y001600D01*
X002537Y001602D01*
X002475Y001608D01*
X002413Y001618D01*
X002351Y001631D01*
X002291Y001649D01*
X002232Y001670D01*
X002174Y001695D01*
X002118Y001724D01*
X002064Y001756D01*
X002012Y001791D01*
X001963Y001829D01*
X001915Y001871D01*
X001871Y001915D01*
X001829Y001963D01*
X001791Y002012D01*
X001756Y002064D01*
X001724Y002118D01*
X001695Y002174D01*
X001670Y002232D01*
X001649Y002291D01*
X001631Y002351D01*
X001618Y002413D01*
X001608Y002475D01*
X001602Y002537D01*
X001600Y002600D01*
X003600Y001850D02*
X003600Y003350D01*
X004600Y004100D02*
X004600Y001100D01*
X005100Y001100D01*
X005100Y001300D01*
X007100Y001300D01*
X007100Y001100D01*
X007600Y001100D01*
X007600Y003600D01*
X007100Y004100D01*
X004600Y004100D01*
X003850Y005600D02*
X003350Y005600D01*
X003100Y005850D01*
X003100Y006350D01*
X003350Y006600D01*
X003100Y006850D01*
X003100Y007350D01*
X003350Y007600D01*
X003850Y007600D01*
X004100Y007350D01*
X004100Y006850D01*
X003850Y006600D01*
X004100Y006350D01*
X004100Y005850D01*
X003850Y005600D01*
X003850Y006600D02*
X003350Y006600D01*
X003350Y007600D02*
X003100Y007850D01*
X003100Y008350D01*
X003350Y008600D01*
X003100Y008850D01*
X003100Y009350D01*
X003350Y009600D01*
X003100Y009850D01*
X003100Y010350D01*
X003350Y010600D01*
X003850Y010600D01*
X004100Y010350D01*
X004100Y009850D01*
X003850Y009600D01*
X004100Y009350D01*
X004100Y008850D01*
X003850Y008600D01*
X004100Y008350D01*
X004100Y007850D01*
X003850Y007600D01*
X003850Y008600D02*
X003350Y008600D01*
X003350Y009600D02*
X003850Y009600D01*
X003850Y010600D02*
X004100Y010850D01*
X004100Y011350D01*
X003850Y011600D01*
X004100Y011850D01*
X004100Y012350D01*
X003850Y012600D01*
X004100Y012850D01*
X004100Y013350D01*
X003850Y013600D01*
X003350Y013600D01*
X003100Y013350D01*
X003100Y012850D01*
X003350Y012600D01*
X003850Y012600D01*
X003350Y012600D02*
X003100Y012350D01*
X003100Y011850D01*
X003350Y011600D01*
X003850Y011600D01*
X003350Y011600D02*
X003100Y011350D01*
X003100Y010850D01*
X003350Y010600D01*
X006150Y010600D02*
X006200Y010650D01*
X006200Y012550D01*
X006150Y012600D01*
X006150Y012750D01*
X006152Y012767D01*
X006156Y012784D01*
X006163Y012800D01*
X006173Y012814D01*
X006186Y012827D01*
X006200Y012837D01*
X006216Y012844D01*
X006233Y012848D01*
X006250Y012850D01*
X006950Y012850D02*
X006967Y012848D01*
X006984Y012844D01*
X007000Y012837D01*
X007014Y012827D01*
X007027Y012814D01*
X007037Y012800D01*
X007044Y012784D01*
X007048Y012767D01*
X007050Y012750D01*
X007050Y012600D01*
X007000Y012550D01*
X007000Y010650D01*
X007050Y010600D01*
X007050Y010450D01*
X007150Y010450D02*
X007150Y010600D01*
X007200Y010650D01*
X007200Y012550D01*
X007150Y012600D01*
X007150Y012750D01*
X007152Y012767D01*
X007156Y012784D01*
X007163Y012800D01*
X007173Y012814D01*
X007186Y012827D01*
X007200Y012837D01*
X007216Y012844D01*
X007233Y012848D01*
X007250Y012850D01*
X007950Y012850D02*
X007967Y012848D01*
X007984Y012844D01*
X008000Y012837D01*
X008014Y012827D01*
X008027Y012814D01*
X008037Y012800D01*
X008044Y012784D01*
X008048Y012767D01*
X008050Y012750D01*
X008050Y012600D01*
X008000Y012550D01*
X008000Y010650D01*
X008050Y010600D01*
X008050Y010450D01*
X008048Y010433D01*
X008044Y010416D01*
X008037Y010400D01*
X008027Y010386D01*
X008014Y010373D01*
X008000Y010363D01*
X007984Y010356D01*
X007967Y010352D01*
X007950Y010350D01*
X007250Y010350D02*
X007233Y010352D01*
X007216Y010356D01*
X007200Y010363D01*
X007186Y010373D01*
X007173Y010386D01*
X007163Y010400D01*
X007156Y010416D01*
X007152Y010433D01*
X007150Y010450D01*
X007050Y010450D02*
X007048Y010433D01*
X007044Y010416D01*
X007037Y010400D01*
X007027Y010386D01*
X007014Y010373D01*
X007000Y010363D01*
X006984Y010356D01*
X006967Y010352D01*
X006950Y010350D01*
X006250Y010350D02*
X006233Y010352D01*
X006216Y010356D01*
X006200Y010363D01*
X006186Y010373D01*
X006173Y010386D01*
X006163Y010400D01*
X006156Y010416D01*
X006152Y010433D01*
X006150Y010450D01*
X006150Y010600D01*
X006150Y007750D02*
X006150Y007600D01*
X006200Y007550D01*
X006200Y005650D01*
X006150Y005600D01*
X006150Y005450D01*
X006152Y005433D01*
X006156Y005416D01*
X006163Y005400D01*
X006173Y005386D01*
X006186Y005373D01*
X006200Y005363D01*
X006216Y005356D01*
X006233Y005352D01*
X006250Y005350D01*
X006950Y005350D02*
X006967Y005352D01*
X006984Y005356D01*
X007000Y005363D01*
X007014Y005373D01*
X007027Y005386D01*
X007037Y005400D01*
X007044Y005416D01*
X007048Y005433D01*
X007050Y005450D01*
X007050Y005600D01*
X007000Y005650D01*
X007000Y007550D01*
X007050Y007600D01*
X007050Y007750D01*
X007048Y007767D01*
X007044Y007784D01*
X007037Y007800D01*
X007027Y007814D01*
X007014Y007827D01*
X007000Y007837D01*
X006984Y007844D01*
X006967Y007848D01*
X006950Y007850D01*
X006250Y007850D02*
X006233Y007848D01*
X006216Y007844D01*
X006200Y007837D01*
X006186Y007827D01*
X006173Y007814D01*
X006163Y007800D01*
X006156Y007784D01*
X006152Y007767D01*
X006150Y007750D01*
X009750Y007000D02*
X012450Y007000D01*
X012509Y006998D01*
X012567Y006992D01*
X012626Y006983D01*
X012683Y006969D01*
X012739Y006952D01*
X012794Y006931D01*
X012848Y006907D01*
X012900Y006879D01*
X012950Y006848D01*
X012998Y006814D01*
X013043Y006777D01*
X013086Y006736D01*
X013127Y006693D01*
X013164Y006648D01*
X013198Y006600D01*
X013229Y006550D01*
X013257Y006498D01*
X013281Y006444D01*
X013302Y006389D01*
X013319Y006333D01*
X013333Y006276D01*
X013342Y006217D01*
X013348Y006159D01*
X013350Y006100D01*
X013348Y006041D01*
X013342Y005983D01*
X013333Y005924D01*
X013319Y005867D01*
X013302Y005811D01*
X013281Y005756D01*
X013257Y005702D01*
X013229Y005650D01*
X013198Y005600D01*
X013164Y005552D01*
X013127Y005507D01*
X013086Y005464D01*
X013043Y005423D01*
X012998Y005386D01*
X012950Y005352D01*
X012900Y005321D01*
X012848Y005293D01*
X012794Y005269D01*
X012739Y005248D01*
X012683Y005231D01*
X012626Y005217D01*
X012567Y005208D01*
X012509Y005202D01*
X012450Y005200D01*
X009750Y005200D01*
X009691Y005202D01*
X009633Y005208D01*
X009574Y005217D01*
X009517Y005231D01*
X009461Y005248D01*
X009406Y005269D01*
X009352Y005293D01*
X009300Y005321D01*
X009250Y005352D01*
X009202Y005386D01*
X009157Y005423D01*
X009114Y005464D01*
X009073Y005507D01*
X009036Y005552D01*
X009002Y005600D01*
X008971Y005650D01*
X008943Y005702D01*
X008919Y005756D01*
X008898Y005811D01*
X008881Y005867D01*
X008867Y005924D01*
X008858Y005983D01*
X008852Y006041D01*
X008850Y006100D01*
X008852Y006159D01*
X008858Y006217D01*
X008867Y006276D01*
X008881Y006333D01*
X008898Y006389D01*
X008919Y006444D01*
X008943Y006498D01*
X008971Y006550D01*
X009002Y006600D01*
X009036Y006648D01*
X009073Y006693D01*
X009114Y006736D01*
X009157Y006777D01*
X009202Y006814D01*
X009250Y006848D01*
X009300Y006879D01*
X009352Y006907D01*
X009406Y006931D01*
X009461Y006952D01*
X009517Y006969D01*
X009574Y006983D01*
X009633Y006992D01*
X009691Y006998D01*
X009750Y007000D01*
X009200Y004050D02*
X008000Y004050D01*
X007983Y004048D01*
X007966Y004044D01*
X007950Y004037D01*
X007936Y004027D01*
X007923Y004014D01*
X007913Y004000D01*
X007906Y003984D01*
X007902Y003967D01*
X007900Y003950D01*
X007900Y001250D01*
X007902Y001233D01*
X007906Y001216D01*
X007913Y001200D01*
X007923Y001186D01*
X007936Y001173D01*
X007950Y001163D01*
X007966Y001156D01*
X007983Y001152D01*
X008000Y001150D01*
X009200Y001150D01*
X009217Y001152D01*
X009234Y001156D01*
X009250Y001163D01*
X009264Y001173D01*
X009277Y001186D01*
X009287Y001200D01*
X009294Y001216D01*
X009298Y001233D01*
X009300Y001250D01*
X009300Y003950D01*
X009298Y003967D01*
X009294Y003984D01*
X009287Y004000D01*
X009277Y004014D01*
X009264Y004027D01*
X009250Y004037D01*
X009234Y004044D01*
X009217Y004048D01*
X009200Y004050D01*
X008600Y003200D02*
X008600Y002730D01*
X008600Y002480D02*
X008600Y002000D01*
X007457Y001500D02*
X007230Y001500D01*
X007100Y001850D02*
X007100Y003350D01*
X005100Y002600D02*
X005102Y002663D01*
X005108Y002725D01*
X005118Y002787D01*
X005131Y002849D01*
X005149Y002909D01*
X005170Y002968D01*
X005195Y003026D01*
X005224Y003082D01*
X005256Y003136D01*
X005291Y003188D01*
X005329Y003237D01*
X005371Y003285D01*
X005415Y003329D01*
X005463Y003371D01*
X005512Y003409D01*
X005564Y003444D01*
X005618Y003476D01*
X005674Y003505D01*
X005732Y003530D01*
X005791Y003551D01*
X005851Y003569D01*
X005913Y003582D01*
X005975Y003592D01*
X006037Y003598D01*
X006100Y003600D01*
X006163Y003598D01*
X006225Y003592D01*
X006287Y003582D01*
X006349Y003569D01*
X006409Y003551D01*
X006468Y003530D01*
X006526Y003505D01*
X006582Y003476D01*
X006636Y003444D01*
X006688Y003409D01*
X006737Y003371D01*
X006785Y003329D01*
X006829Y003285D01*
X006871Y003237D01*
X006909Y003188D01*
X006944Y003136D01*
X006976Y003082D01*
X007005Y003026D01*
X007030Y002968D01*
X007051Y002909D01*
X007069Y002849D01*
X007082Y002787D01*
X007092Y002725D01*
X007098Y002663D01*
X007100Y002600D01*
X007098Y002537D01*
X007092Y002475D01*
X007082Y002413D01*
X007069Y002351D01*
X007051Y002291D01*
X007030Y002232D01*
X007005Y002174D01*
X006976Y002118D01*
X006944Y002064D01*
X006909Y002012D01*
X006871Y001963D01*
X006829Y001915D01*
X006785Y001871D01*
X006737Y001829D01*
X006688Y001791D01*
X006636Y001756D01*
X006582Y001724D01*
X006526Y001695D01*
X006468Y001670D01*
X006409Y001649D01*
X006349Y001631D01*
X006287Y001618D01*
X006225Y001608D01*
X006163Y001602D01*
X006100Y001600D01*
X006037Y001602D01*
X005975Y001608D01*
X005913Y001618D01*
X005851Y001631D01*
X005791Y001649D01*
X005732Y001670D01*
X005674Y001695D01*
X005618Y001724D01*
X005564Y001756D01*
X005512Y001791D01*
X005463Y001829D01*
X005415Y001871D01*
X005371Y001915D01*
X005329Y001963D01*
X005291Y002012D01*
X005256Y002064D01*
X005224Y002118D01*
X005195Y002174D01*
X005170Y002232D01*
X005149Y002291D01*
X005131Y002351D01*
X005118Y002413D01*
X005108Y002475D01*
X005102Y002537D01*
X005100Y002600D01*
X004843Y001614D02*
X004843Y001387D01*
X004730Y001500D02*
X004957Y001500D01*
X003957Y001500D02*
X003730Y001500D01*
X010150Y001450D02*
X010150Y001600D01*
X010200Y001650D01*
X010200Y003550D01*
X010150Y003600D01*
X010150Y003750D01*
X010152Y003767D01*
X010156Y003784D01*
X010163Y003800D01*
X010173Y003814D01*
X010186Y003827D01*
X010200Y003837D01*
X010216Y003844D01*
X010233Y003848D01*
X010250Y003850D01*
X010950Y003850D02*
X010967Y003848D01*
X010984Y003844D01*
X011000Y003837D01*
X011014Y003827D01*
X011027Y003814D01*
X011037Y003800D01*
X011044Y003784D01*
X011048Y003767D01*
X011050Y003750D01*
X011050Y003600D01*
X011000Y003550D01*
X011000Y001650D01*
X011050Y001600D01*
X011050Y001450D01*
X011048Y001433D01*
X011044Y001416D01*
X011037Y001400D01*
X011027Y001386D01*
X011014Y001373D01*
X011000Y001363D01*
X010984Y001356D01*
X010967Y001352D01*
X010950Y001350D01*
X010250Y001350D02*
X010233Y001352D01*
X010216Y001356D01*
X010200Y001363D01*
X010186Y001373D01*
X010173Y001386D01*
X010163Y001400D01*
X010156Y001416D01*
X010152Y001433D01*
X010150Y001450D01*
X011900Y001250D02*
X011900Y003950D01*
X011902Y003967D01*
X011906Y003984D01*
X011913Y004000D01*
X011923Y004014D01*
X011936Y004027D01*
X011950Y004037D01*
X011966Y004044D01*
X011983Y004048D01*
X012000Y004050D01*
X013200Y004050D01*
X013217Y004048D01*
X013234Y004044D01*
X013250Y004037D01*
X013264Y004027D01*
X013277Y004014D01*
X013287Y004000D01*
X013294Y003984D01*
X013298Y003967D01*
X013300Y003950D01*
X013300Y001250D01*
X013298Y001233D01*
X013294Y001216D01*
X013287Y001200D01*
X013277Y001186D01*
X013264Y001173D01*
X013250Y001163D01*
X013234Y001156D01*
X013217Y001152D01*
X013200Y001150D01*
X012000Y001150D01*
X011983Y001152D01*
X011966Y001156D01*
X011950Y001163D01*
X011936Y001173D01*
X011923Y001186D01*
X011913Y001200D01*
X011906Y001216D01*
X011902Y001233D01*
X011900Y001250D01*
X012600Y002000D02*
X012600Y002470D01*
X012600Y002720D02*
X012600Y003200D01*
X014600Y003350D02*
X014600Y004850D01*
X014850Y005100D01*
X015350Y005100D01*
X015600Y004850D01*
X015600Y003350D01*
X015850Y003100D01*
X016350Y003100D01*
X016600Y003350D01*
X016600Y004850D01*
X016850Y005100D01*
X017350Y005100D01*
X017600Y004850D01*
X017600Y003350D01*
X017850Y003100D01*
X018350Y003100D01*
X018600Y003350D01*
X018850Y003100D01*
X019350Y003100D01*
X019600Y003350D01*
X019600Y004850D01*
X019350Y005100D01*
X018850Y005100D01*
X018600Y004850D01*
X018600Y003350D01*
X017600Y003350D02*
X017350Y003100D01*
X016850Y003100D01*
X016600Y003350D01*
X015600Y003350D02*
X015350Y003100D01*
X014850Y003100D01*
X014600Y003350D01*
X014600Y002050D02*
X014450Y002050D01*
X014433Y002048D01*
X014416Y002044D01*
X014400Y002037D01*
X014386Y002027D01*
X014373Y002014D01*
X014363Y002000D01*
X014356Y001984D01*
X014352Y001967D01*
X014350Y001950D01*
X014600Y002050D02*
X014650Y002000D01*
X016550Y002000D01*
X016600Y002050D01*
X016750Y002050D01*
X016767Y002048D01*
X016784Y002044D01*
X016800Y002037D01*
X016814Y002027D01*
X016827Y002014D01*
X016837Y002000D01*
X016844Y001984D01*
X016848Y001967D01*
X016850Y001950D01*
X016850Y001250D02*
X016848Y001233D01*
X016844Y001216D01*
X016837Y001200D01*
X016827Y001186D01*
X016814Y001173D01*
X016800Y001163D01*
X016784Y001156D01*
X016767Y001152D01*
X016750Y001150D01*
X016600Y001150D01*
X016550Y001200D01*
X014650Y001200D01*
X014600Y001150D01*
X014450Y001150D01*
X014433Y001152D01*
X014416Y001156D01*
X014400Y001163D01*
X014386Y001173D01*
X014373Y001186D01*
X014363Y001200D01*
X014356Y001216D01*
X014352Y001233D01*
X014350Y001250D01*
X015600Y004850D02*
X015850Y005100D01*
X016350Y005100D01*
X016600Y004850D01*
X017600Y004850D02*
X017850Y005100D01*
X018350Y005100D01*
X018600Y004850D01*
X020100Y005350D02*
X020100Y005850D01*
X020350Y006100D01*
X020100Y006350D01*
X020100Y006850D01*
X020350Y007100D01*
X020100Y007350D01*
X020100Y007850D01*
X020350Y008100D01*
X020100Y008350D01*
X020100Y008850D01*
X020350Y009100D01*
X020100Y009350D01*
X020100Y009850D01*
X020350Y010100D01*
X020100Y010350D01*
X020100Y010850D01*
X020350Y011100D01*
X020100Y011350D01*
X020100Y011850D01*
X020350Y012100D01*
X020100Y012350D01*
X020100Y012850D01*
X020350Y013100D01*
X020850Y013100D01*
X021100Y012850D01*
X021100Y012350D01*
X020850Y012100D01*
X021100Y011850D01*
X021100Y011350D01*
X020850Y011100D01*
X020350Y011100D01*
X020850Y011100D02*
X021100Y010850D01*
X021100Y010350D01*
X020850Y010100D01*
X021100Y009850D01*
X021100Y009350D01*
X020850Y009100D01*
X021100Y008850D01*
X021100Y008350D01*
X020850Y008100D01*
X020350Y008100D01*
X020850Y008100D02*
X021100Y007850D01*
X021100Y007350D01*
X020850Y007100D01*
X021100Y006850D01*
X021100Y006350D01*
X020850Y006100D01*
X021100Y005850D01*
X021100Y005350D01*
X020850Y005100D01*
X020350Y005100D01*
X020100Y005350D01*
X020350Y006100D02*
X020850Y006100D01*
X020850Y007100D02*
X020350Y007100D01*
X020350Y009100D02*
X020850Y009100D01*
X020850Y010100D02*
X020350Y010100D01*
X020350Y012100D02*
X020850Y012100D01*
X020850Y013600D02*
X020350Y013600D01*
X020100Y013850D01*
X020100Y014350D01*
X020350Y014600D01*
X020100Y014850D01*
X020100Y015350D01*
X020350Y015600D01*
X020850Y015600D01*
X021100Y015350D01*
X021100Y014850D01*
X020850Y014600D01*
X021100Y014350D01*
X021100Y013850D01*
X020850Y013600D01*
X020850Y014600D02*
X020350Y014600D01*
X020350Y015600D02*
X020100Y015850D01*
X020100Y016350D01*
X020350Y016600D01*
X020100Y016850D01*
X020100Y017350D01*
X020350Y017600D01*
X020100Y017850D01*
X020100Y018350D01*
X020350Y018600D01*
X020850Y018600D01*
X021100Y018350D01*
X021100Y017850D01*
X020850Y017600D01*
X021100Y017350D01*
X021100Y016850D01*
X020850Y016600D01*
X021100Y016350D01*
X021100Y015850D01*
X020850Y015600D01*
X020850Y016600D02*
X020350Y016600D01*
X020350Y017600D02*
X020850Y017600D01*
X020850Y018600D02*
X021100Y018850D01*
X021100Y019350D01*
X020850Y019600D01*
X021100Y019850D01*
X021100Y020350D01*
X020850Y020600D01*
X021100Y020850D01*
X021100Y021350D01*
X020850Y021600D01*
X020350Y021600D01*
X020100Y021350D01*
X020100Y020850D01*
X020350Y020600D01*
X020850Y020600D01*
X020350Y020600D02*
X020100Y020350D01*
X020100Y019850D01*
X020350Y019600D01*
X020850Y019600D01*
X020350Y019600D02*
X020100Y019350D01*
X020100Y018850D01*
X020350Y018600D01*
X018100Y019850D02*
X018100Y021350D01*
X017850Y021600D01*
X017350Y021600D01*
X017100Y021350D01*
X017100Y019850D01*
X017350Y019600D01*
X017850Y019600D01*
X018100Y019850D01*
X017100Y019850D02*
X016850Y019600D01*
X016350Y019600D01*
X016100Y019850D01*
X016100Y021350D01*
X016350Y021600D01*
X016850Y021600D01*
X017100Y021350D01*
X016100Y021350D02*
X015850Y021600D01*
X015350Y021600D01*
X015100Y021350D01*
X015100Y019850D01*
X015350Y019600D01*
X015850Y019600D01*
X016100Y019850D01*
X015100Y019850D02*
X014850Y019600D01*
X014350Y019600D01*
X014100Y019850D01*
X014100Y021350D01*
X014350Y021600D01*
X014850Y021600D01*
X015100Y021350D01*
X014100Y021350D02*
X013850Y021600D01*
X013350Y021600D01*
X013100Y021350D01*
X013100Y019850D01*
X013350Y019600D01*
X013850Y019600D01*
X014100Y019850D01*
X013100Y019850D02*
X012850Y019600D01*
X012350Y019600D01*
X012100Y019850D01*
X012100Y021350D01*
X012350Y021600D01*
X012850Y021600D01*
X013100Y021350D01*
X012100Y021350D02*
X011850Y021600D01*
X011350Y021600D01*
X011100Y021350D01*
X011100Y019850D01*
X011350Y019600D01*
X011850Y019600D01*
X012100Y019850D01*
X011100Y019850D02*
X010850Y019600D01*
X010350Y019600D01*
X010100Y019850D01*
X010100Y021350D01*
X010350Y021600D01*
X010850Y021600D01*
X011100Y021350D01*
X008550Y020200D02*
X008550Y019000D01*
X008548Y018983D01*
X008544Y018966D01*
X008537Y018950D01*
X008527Y018936D01*
X008514Y018923D01*
X008500Y018913D01*
X008484Y018906D01*
X008467Y018902D01*
X008450Y018900D01*
X005750Y018900D01*
X005733Y018902D01*
X005716Y018906D01*
X005700Y018913D01*
X005686Y018923D01*
X005673Y018936D01*
X005663Y018950D01*
X005656Y018966D01*
X005652Y018983D01*
X005650Y019000D01*
X005650Y020200D01*
X005652Y020217D01*
X005656Y020234D01*
X005663Y020250D01*
X005673Y020264D01*
X005686Y020277D01*
X005700Y020287D01*
X005716Y020294D01*
X005733Y020298D01*
X005750Y020300D01*
X008450Y020300D01*
X008467Y020298D01*
X008484Y020294D01*
X008500Y020287D01*
X008514Y020277D01*
X008527Y020264D01*
X008537Y020250D01*
X008544Y020234D01*
X008548Y020217D01*
X008550Y020200D01*
X007700Y019600D02*
X007230Y019600D01*
X006980Y019600D02*
X006500Y019600D01*
X005750Y018800D02*
X008450Y018800D01*
X008467Y018798D01*
X008484Y018794D01*
X008500Y018787D01*
X008514Y018777D01*
X008527Y018764D01*
X008537Y018750D01*
X008544Y018734D01*
X008548Y018717D01*
X008550Y018700D01*
X008550Y017500D01*
X008548Y017483D01*
X008544Y017466D01*
X008537Y017450D01*
X008527Y017436D01*
X008514Y017423D01*
X008500Y017413D01*
X008484Y017406D01*
X008467Y017402D01*
X008450Y017400D01*
X005750Y017400D01*
X005750Y017300D02*
X008450Y017300D01*
X008467Y017298D01*
X008484Y017294D01*
X008500Y017287D01*
X008514Y017277D01*
X008527Y017264D01*
X008537Y017250D01*
X008544Y017234D01*
X008548Y017217D01*
X008550Y017200D01*
X008550Y016000D01*
X008548Y015983D01*
X008544Y015966D01*
X008537Y015950D01*
X008527Y015936D01*
X008514Y015923D01*
X008500Y015913D01*
X008484Y015906D01*
X008467Y015902D01*
X008450Y015900D01*
X005750Y015900D01*
X005733Y015902D01*
X005716Y015906D01*
X005700Y015913D01*
X005686Y015923D01*
X005673Y015936D01*
X005663Y015950D01*
X005656Y015966D01*
X005652Y015983D01*
X005650Y016000D01*
X005650Y017200D01*
X005652Y017217D01*
X005656Y017234D01*
X005663Y017250D01*
X005673Y017264D01*
X005686Y017277D01*
X005700Y017287D01*
X005716Y017294D01*
X005733Y017298D01*
X005750Y017300D01*
X005750Y017400D02*
X005733Y017402D01*
X005716Y017406D01*
X005700Y017413D01*
X005686Y017423D01*
X005673Y017436D01*
X005663Y017450D01*
X005656Y017466D01*
X005652Y017483D01*
X005650Y017500D01*
X005650Y018700D01*
X005652Y018717D01*
X005656Y018734D01*
X005663Y018750D01*
X005673Y018764D01*
X005686Y018777D01*
X005700Y018787D01*
X005716Y018794D01*
X005733Y018798D01*
X005750Y018800D01*
X006500Y018100D02*
X006980Y018100D01*
X007230Y018100D02*
X007700Y018100D01*
X007700Y016600D02*
X007230Y016600D01*
X006980Y016600D02*
X006500Y016600D01*
X005750Y015800D02*
X008450Y015800D01*
X008467Y015798D01*
X008484Y015794D01*
X008500Y015787D01*
X008514Y015777D01*
X008527Y015764D01*
X008537Y015750D01*
X008544Y015734D01*
X008548Y015717D01*
X008550Y015700D01*
X008550Y014500D01*
X008548Y014483D01*
X008544Y014466D01*
X008537Y014450D01*
X008527Y014436D01*
X008514Y014423D01*
X008500Y014413D01*
X008484Y014406D01*
X008467Y014402D01*
X008450Y014400D01*
X005750Y014400D01*
X005733Y014402D01*
X005716Y014406D01*
X005700Y014413D01*
X005686Y014423D01*
X005673Y014436D01*
X005663Y014450D01*
X005656Y014466D01*
X005652Y014483D01*
X005650Y014500D01*
X005650Y015700D01*
X005652Y015717D01*
X005656Y015734D01*
X005663Y015750D01*
X005673Y015764D01*
X005686Y015777D01*
X005700Y015787D01*
X005716Y015794D01*
X005733Y015798D01*
X005750Y015800D01*
X006500Y015100D02*
X006980Y015100D01*
X007230Y015100D02*
X007700Y015100D01*
X004100Y014850D02*
X004100Y014350D01*
X003850Y014100D01*
X002350Y014100D01*
X002100Y014350D01*
X002100Y014850D01*
X002350Y015100D01*
X003850Y015100D01*
X004100Y015350D01*
X004100Y015850D01*
X003850Y016100D01*
X004100Y016350D01*
X004100Y016850D01*
X003850Y017100D01*
X002350Y017100D01*
X002100Y016850D01*
X002100Y016350D01*
X002350Y016100D01*
X003850Y016100D01*
X003850Y015100D02*
X004100Y014850D01*
X002350Y015100D02*
X002100Y015350D01*
X002100Y015850D01*
X002350Y016100D01*
X003350Y018600D02*
X003100Y018850D01*
X003100Y019350D01*
X003350Y019600D01*
X003100Y019850D01*
X003100Y020350D01*
X003350Y020600D01*
X003100Y020850D01*
X003100Y021350D01*
X003350Y021600D01*
X003850Y021600D01*
X004100Y021350D01*
X004100Y020850D01*
X003850Y020600D01*
X004100Y020350D01*
X004100Y019850D01*
X003850Y019600D01*
X004100Y019350D01*
X004100Y018850D01*
X003850Y018600D01*
X003350Y018600D01*
X003350Y019600D02*
X003850Y019600D01*
X003850Y020600D02*
X003350Y020600D01*
X018630Y001771D02*
X018950Y001771D01*
X019057Y001664D01*
X019057Y001450D01*
X018950Y001344D01*
X018630Y001344D01*
X018844Y001344D02*
X019057Y001130D01*
X019275Y001237D02*
X019275Y001450D01*
X019381Y001557D01*
X019595Y001557D01*
X019702Y001450D01*
X019702Y001344D01*
X019275Y001344D01*
X019275Y001237D02*
X019381Y001130D01*
X019595Y001130D01*
X019919Y001557D02*
X020133Y001130D01*
X020346Y001557D01*
X020564Y001237D02*
X020670Y001237D01*
X020670Y001130D01*
X020564Y001130D01*
X020564Y001237D01*
X021530Y001130D02*
X021744Y001130D01*
X021637Y001130D02*
X021637Y001771D01*
X021530Y001771D02*
X021744Y001771D01*
X021960Y001771D02*
X022174Y001771D01*
X022067Y001771D02*
X022067Y001130D01*
X021960Y001130D02*
X022174Y001130D01*
X018630Y001130D02*
X018630Y001771D01*
D11*
X014600Y003600D02*
X014602Y003644D01*
X014608Y003688D01*
X014618Y003731D01*
X014631Y003773D01*
X014648Y003814D01*
X014669Y003853D01*
X014693Y003890D01*
X014720Y003925D01*
X014750Y003957D01*
X014783Y003987D01*
X014819Y004013D01*
X014856Y004037D01*
X014896Y004056D01*
X014937Y004073D01*
X014980Y004085D01*
X015023Y004094D01*
X015067Y004099D01*
X015111Y004100D01*
X015155Y004097D01*
X015199Y004090D01*
X015242Y004079D01*
X015284Y004065D01*
X015324Y004047D01*
X015363Y004025D01*
X015399Y004001D01*
X015433Y003973D01*
X015465Y003942D01*
X015494Y003908D01*
X015520Y003872D01*
X015542Y003834D01*
X015561Y003794D01*
X015576Y003752D01*
X015588Y003710D01*
X015596Y003666D01*
X015600Y003622D01*
X015600Y003578D01*
X015596Y003534D01*
X015588Y003490D01*
X015576Y003448D01*
X015561Y003406D01*
X015542Y003366D01*
X015520Y003328D01*
X015494Y003292D01*
X015465Y003258D01*
X015433Y003227D01*
X015399Y003199D01*
X015363Y003175D01*
X015324Y003153D01*
X015284Y003135D01*
X015242Y003121D01*
X015199Y003110D01*
X015155Y003103D01*
X015111Y003100D01*
X015067Y003101D01*
X015023Y003106D01*
X014980Y003115D01*
X014937Y003127D01*
X014896Y003144D01*
X014856Y003163D01*
X014819Y003187D01*
X014783Y003213D01*
X014750Y003243D01*
X014720Y003275D01*
X014693Y003310D01*
X014669Y003347D01*
X014648Y003386D01*
X014631Y003427D01*
X014618Y003469D01*
X014608Y003512D01*
X014602Y003556D01*
X014600Y003600D01*
X015257Y009344D02*
X009943Y009344D01*
X009844Y009443D01*
X009844Y014561D01*
X010139Y014856D01*
X015257Y014856D01*
X015356Y014757D01*
X015356Y009443D01*
X015257Y009344D01*
X010140Y014462D02*
X010142Y014481D01*
X010147Y014500D01*
X010157Y014516D01*
X010169Y014531D01*
X010184Y014543D01*
X010200Y014553D01*
X010219Y014558D01*
X010238Y014560D01*
X010257Y014558D01*
X010276Y014553D01*
X010292Y014543D01*
X010307Y014531D01*
X010319Y014516D01*
X010329Y014500D01*
X010334Y014481D01*
X010336Y014462D01*
X010334Y014443D01*
X010329Y014424D01*
X010319Y014408D01*
X010307Y014393D01*
X010292Y014381D01*
X010276Y014371D01*
X010257Y014366D01*
X010238Y014364D01*
X010219Y014366D01*
X010200Y014371D01*
X010184Y014381D01*
X010169Y014393D01*
X010157Y014408D01*
X010147Y014424D01*
X010142Y014443D01*
X010140Y014462D01*
X010100Y020100D02*
X010102Y020144D01*
X010108Y020188D01*
X010118Y020231D01*
X010131Y020273D01*
X010148Y020314D01*
X010169Y020353D01*
X010193Y020390D01*
X010220Y020425D01*
X010250Y020457D01*
X010283Y020487D01*
X010319Y020513D01*
X010356Y020537D01*
X010396Y020556D01*
X010437Y020573D01*
X010480Y020585D01*
X010523Y020594D01*
X010567Y020599D01*
X010611Y020600D01*
X010655Y020597D01*
X010699Y020590D01*
X010742Y020579D01*
X010784Y020565D01*
X010824Y020547D01*
X010863Y020525D01*
X010899Y020501D01*
X010933Y020473D01*
X010965Y020442D01*
X010994Y020408D01*
X011020Y020372D01*
X011042Y020334D01*
X011061Y020294D01*
X011076Y020252D01*
X011088Y020210D01*
X011096Y020166D01*
X011100Y020122D01*
X011100Y020078D01*
X011096Y020034D01*
X011088Y019990D01*
X011076Y019948D01*
X011061Y019906D01*
X011042Y019866D01*
X011020Y019828D01*
X010994Y019792D01*
X010965Y019758D01*
X010933Y019727D01*
X010899Y019699D01*
X010863Y019675D01*
X010824Y019653D01*
X010784Y019635D01*
X010742Y019621D01*
X010699Y019610D01*
X010655Y019603D01*
X010611Y019600D01*
X010567Y019601D01*
X010523Y019606D01*
X010480Y019615D01*
X010437Y019627D01*
X010396Y019644D01*
X010356Y019663D01*
X010319Y019687D01*
X010283Y019713D01*
X010250Y019743D01*
X010220Y019775D01*
X010193Y019810D01*
X010169Y019847D01*
X010148Y019886D01*
X010131Y019927D01*
X010118Y019969D01*
X010108Y020012D01*
X010102Y020056D01*
X010100Y020100D01*
X003100Y019100D02*
X003102Y019144D01*
X003108Y019188D01*
X003118Y019231D01*
X003131Y019273D01*
X003148Y019314D01*
X003169Y019353D01*
X003193Y019390D01*
X003220Y019425D01*
X003250Y019457D01*
X003283Y019487D01*
X003319Y019513D01*
X003356Y019537D01*
X003396Y019556D01*
X003437Y019573D01*
X003480Y019585D01*
X003523Y019594D01*
X003567Y019599D01*
X003611Y019600D01*
X003655Y019597D01*
X003699Y019590D01*
X003742Y019579D01*
X003784Y019565D01*
X003824Y019547D01*
X003863Y019525D01*
X003899Y019501D01*
X003933Y019473D01*
X003965Y019442D01*
X003994Y019408D01*
X004020Y019372D01*
X004042Y019334D01*
X004061Y019294D01*
X004076Y019252D01*
X004088Y019210D01*
X004096Y019166D01*
X004100Y019122D01*
X004100Y019078D01*
X004096Y019034D01*
X004088Y018990D01*
X004076Y018948D01*
X004061Y018906D01*
X004042Y018866D01*
X004020Y018828D01*
X003994Y018792D01*
X003965Y018758D01*
X003933Y018727D01*
X003899Y018699D01*
X003863Y018675D01*
X003824Y018653D01*
X003784Y018635D01*
X003742Y018621D01*
X003699Y018610D01*
X003655Y018603D01*
X003611Y018600D01*
X003567Y018601D01*
X003523Y018606D01*
X003480Y018615D01*
X003437Y018627D01*
X003396Y018644D01*
X003356Y018663D01*
X003319Y018687D01*
X003283Y018713D01*
X003250Y018743D01*
X003220Y018775D01*
X003193Y018810D01*
X003169Y018847D01*
X003148Y018886D01*
X003131Y018927D01*
X003118Y018969D01*
X003108Y019012D01*
X003102Y019056D01*
X003100Y019100D01*
X003100Y014600D02*
X003102Y014644D01*
X003108Y014688D01*
X003118Y014731D01*
X003131Y014773D01*
X003148Y014814D01*
X003169Y014853D01*
X003193Y014890D01*
X003220Y014925D01*
X003250Y014957D01*
X003283Y014987D01*
X003319Y015013D01*
X003356Y015037D01*
X003396Y015056D01*
X003437Y015073D01*
X003480Y015085D01*
X003523Y015094D01*
X003567Y015099D01*
X003611Y015100D01*
X003655Y015097D01*
X003699Y015090D01*
X003742Y015079D01*
X003784Y015065D01*
X003824Y015047D01*
X003863Y015025D01*
X003899Y015001D01*
X003933Y014973D01*
X003965Y014942D01*
X003994Y014908D01*
X004020Y014872D01*
X004042Y014834D01*
X004061Y014794D01*
X004076Y014752D01*
X004088Y014710D01*
X004096Y014666D01*
X004100Y014622D01*
X004100Y014578D01*
X004096Y014534D01*
X004088Y014490D01*
X004076Y014448D01*
X004061Y014406D01*
X004042Y014366D01*
X004020Y014328D01*
X003994Y014292D01*
X003965Y014258D01*
X003933Y014227D01*
X003899Y014199D01*
X003863Y014175D01*
X003824Y014153D01*
X003784Y014135D01*
X003742Y014121D01*
X003699Y014110D01*
X003655Y014103D01*
X003611Y014100D01*
X003567Y014101D01*
X003523Y014106D01*
X003480Y014115D01*
X003437Y014127D01*
X003396Y014144D01*
X003356Y014163D01*
X003319Y014187D01*
X003283Y014213D01*
X003250Y014243D01*
X003220Y014275D01*
X003193Y014310D01*
X003169Y014347D01*
X003148Y014386D01*
X003131Y014427D01*
X003118Y014469D01*
X003108Y014512D01*
X003102Y014556D01*
X003100Y014600D01*
X003100Y013100D02*
X003102Y013144D01*
X003108Y013188D01*
X003118Y013231D01*
X003131Y013273D01*
X003148Y013314D01*
X003169Y013353D01*
X003193Y013390D01*
X003220Y013425D01*
X003250Y013457D01*
X003283Y013487D01*
X003319Y013513D01*
X003356Y013537D01*
X003396Y013556D01*
X003437Y013573D01*
X003480Y013585D01*
X003523Y013594D01*
X003567Y013599D01*
X003611Y013600D01*
X003655Y013597D01*
X003699Y013590D01*
X003742Y013579D01*
X003784Y013565D01*
X003824Y013547D01*
X003863Y013525D01*
X003899Y013501D01*
X003933Y013473D01*
X003965Y013442D01*
X003994Y013408D01*
X004020Y013372D01*
X004042Y013334D01*
X004061Y013294D01*
X004076Y013252D01*
X004088Y013210D01*
X004096Y013166D01*
X004100Y013122D01*
X004100Y013078D01*
X004096Y013034D01*
X004088Y012990D01*
X004076Y012948D01*
X004061Y012906D01*
X004042Y012866D01*
X004020Y012828D01*
X003994Y012792D01*
X003965Y012758D01*
X003933Y012727D01*
X003899Y012699D01*
X003863Y012675D01*
X003824Y012653D01*
X003784Y012635D01*
X003742Y012621D01*
X003699Y012610D01*
X003655Y012603D01*
X003611Y012600D01*
X003567Y012601D01*
X003523Y012606D01*
X003480Y012615D01*
X003437Y012627D01*
X003396Y012644D01*
X003356Y012663D01*
X003319Y012687D01*
X003283Y012713D01*
X003250Y012743D01*
X003220Y012775D01*
X003193Y012810D01*
X003169Y012847D01*
X003148Y012886D01*
X003131Y012927D01*
X003118Y012969D01*
X003108Y013012D01*
X003102Y013056D01*
X003100Y013100D01*
X001350Y002600D02*
X001352Y002670D01*
X001358Y002740D01*
X001368Y002809D01*
X001381Y002878D01*
X001399Y002946D01*
X001420Y003013D01*
X001445Y003078D01*
X001474Y003142D01*
X001506Y003205D01*
X001542Y003265D01*
X001581Y003323D01*
X001623Y003379D01*
X001668Y003433D01*
X001716Y003484D01*
X001767Y003532D01*
X001821Y003577D01*
X001877Y003619D01*
X001935Y003658D01*
X001995Y003694D01*
X002058Y003726D01*
X002122Y003755D01*
X002187Y003780D01*
X002254Y003801D01*
X002322Y003819D01*
X002391Y003832D01*
X002460Y003842D01*
X002530Y003848D01*
X002600Y003850D01*
X002670Y003848D01*
X002740Y003842D01*
X002809Y003832D01*
X002878Y003819D01*
X002946Y003801D01*
X003013Y003780D01*
X003078Y003755D01*
X003142Y003726D01*
X003205Y003694D01*
X003265Y003658D01*
X003323Y003619D01*
X003379Y003577D01*
X003433Y003532D01*
X003484Y003484D01*
X003532Y003433D01*
X003577Y003379D01*
X003619Y003323D01*
X003658Y003265D01*
X003694Y003205D01*
X003726Y003142D01*
X003755Y003078D01*
X003780Y003013D01*
X003801Y002946D01*
X003819Y002878D01*
X003832Y002809D01*
X003842Y002740D01*
X003848Y002670D01*
X003850Y002600D01*
X003848Y002530D01*
X003842Y002460D01*
X003832Y002391D01*
X003819Y002322D01*
X003801Y002254D01*
X003780Y002187D01*
X003755Y002122D01*
X003726Y002058D01*
X003694Y001995D01*
X003658Y001935D01*
X003619Y001877D01*
X003577Y001821D01*
X003532Y001767D01*
X003484Y001716D01*
X003433Y001668D01*
X003379Y001623D01*
X003323Y001581D01*
X003265Y001542D01*
X003205Y001506D01*
X003142Y001474D01*
X003078Y001445D01*
X003013Y001420D01*
X002946Y001399D01*
X002878Y001381D01*
X002809Y001368D01*
X002740Y001358D01*
X002670Y001352D01*
X002600Y001350D01*
X002530Y001352D01*
X002460Y001358D01*
X002391Y001368D01*
X002322Y001381D01*
X002254Y001399D01*
X002187Y001420D01*
X002122Y001445D01*
X002058Y001474D01*
X001995Y001506D01*
X001935Y001542D01*
X001877Y001581D01*
X001821Y001623D01*
X001767Y001668D01*
X001716Y001716D01*
X001668Y001767D01*
X001623Y001821D01*
X001581Y001877D01*
X001542Y001935D01*
X001506Y001995D01*
X001474Y002058D01*
X001445Y002122D01*
X001420Y002187D01*
X001399Y002254D01*
X001381Y002322D01*
X001368Y002391D01*
X001358Y002460D01*
X001352Y002530D01*
X001350Y002600D01*
X001600Y002600D02*
X001602Y002644D01*
X001608Y002688D01*
X001618Y002731D01*
X001631Y002773D01*
X001648Y002814D01*
X001669Y002853D01*
X001693Y002890D01*
X001720Y002925D01*
X001750Y002957D01*
X001783Y002987D01*
X001819Y003013D01*
X001856Y003037D01*
X001896Y003056D01*
X001937Y003073D01*
X001980Y003085D01*
X002023Y003094D01*
X002067Y003099D01*
X002111Y003100D01*
X002155Y003097D01*
X002199Y003090D01*
X002242Y003079D01*
X002284Y003065D01*
X002324Y003047D01*
X002363Y003025D01*
X002399Y003001D01*
X002433Y002973D01*
X002465Y002942D01*
X002494Y002908D01*
X002520Y002872D01*
X002542Y002834D01*
X002561Y002794D01*
X002576Y002752D01*
X002588Y002710D01*
X002596Y002666D01*
X002600Y002622D01*
X002600Y002578D01*
X002596Y002534D01*
X002588Y002490D01*
X002576Y002448D01*
X002561Y002406D01*
X002542Y002366D01*
X002520Y002328D01*
X002494Y002292D01*
X002465Y002258D01*
X002433Y002227D01*
X002399Y002199D01*
X002363Y002175D01*
X002324Y002153D01*
X002284Y002135D01*
X002242Y002121D01*
X002199Y002110D01*
X002155Y002103D01*
X002111Y002100D01*
X002067Y002101D01*
X002023Y002106D01*
X001980Y002115D01*
X001937Y002127D01*
X001896Y002144D01*
X001856Y002163D01*
X001819Y002187D01*
X001783Y002213D01*
X001750Y002243D01*
X001720Y002275D01*
X001693Y002310D01*
X001669Y002347D01*
X001648Y002386D01*
X001631Y002427D01*
X001618Y002469D01*
X001608Y002512D01*
X001602Y002556D01*
X001600Y002600D01*
X005100Y002600D02*
X005102Y002644D01*
X005108Y002688D01*
X005118Y002731D01*
X005131Y002773D01*
X005148Y002814D01*
X005169Y002853D01*
X005193Y002890D01*
X005220Y002925D01*
X005250Y002957D01*
X005283Y002987D01*
X005319Y003013D01*
X005356Y003037D01*
X005396Y003056D01*
X005437Y003073D01*
X005480Y003085D01*
X005523Y003094D01*
X005567Y003099D01*
X005611Y003100D01*
X005655Y003097D01*
X005699Y003090D01*
X005742Y003079D01*
X005784Y003065D01*
X005824Y003047D01*
X005863Y003025D01*
X005899Y003001D01*
X005933Y002973D01*
X005965Y002942D01*
X005994Y002908D01*
X006020Y002872D01*
X006042Y002834D01*
X006061Y002794D01*
X006076Y002752D01*
X006088Y002710D01*
X006096Y002666D01*
X006100Y002622D01*
X006100Y002578D01*
X006096Y002534D01*
X006088Y002490D01*
X006076Y002448D01*
X006061Y002406D01*
X006042Y002366D01*
X006020Y002328D01*
X005994Y002292D01*
X005965Y002258D01*
X005933Y002227D01*
X005899Y002199D01*
X005863Y002175D01*
X005824Y002153D01*
X005784Y002135D01*
X005742Y002121D01*
X005699Y002110D01*
X005655Y002103D01*
X005611Y002100D01*
X005567Y002101D01*
X005523Y002106D01*
X005480Y002115D01*
X005437Y002127D01*
X005396Y002144D01*
X005356Y002163D01*
X005319Y002187D01*
X005283Y002213D01*
X005250Y002243D01*
X005220Y002275D01*
X005193Y002310D01*
X005169Y002347D01*
X005148Y002386D01*
X005131Y002427D01*
X005118Y002469D01*
X005108Y002512D01*
X005102Y002556D01*
X005100Y002600D01*
X004850Y002600D02*
X004852Y002670D01*
X004858Y002740D01*
X004868Y002809D01*
X004881Y002878D01*
X004899Y002946D01*
X004920Y003013D01*
X004945Y003078D01*
X004974Y003142D01*
X005006Y003205D01*
X005042Y003265D01*
X005081Y003323D01*
X005123Y003379D01*
X005168Y003433D01*
X005216Y003484D01*
X005267Y003532D01*
X005321Y003577D01*
X005377Y003619D01*
X005435Y003658D01*
X005495Y003694D01*
X005558Y003726D01*
X005622Y003755D01*
X005687Y003780D01*
X005754Y003801D01*
X005822Y003819D01*
X005891Y003832D01*
X005960Y003842D01*
X006030Y003848D01*
X006100Y003850D01*
X006170Y003848D01*
X006240Y003842D01*
X006309Y003832D01*
X006378Y003819D01*
X006446Y003801D01*
X006513Y003780D01*
X006578Y003755D01*
X006642Y003726D01*
X006705Y003694D01*
X006765Y003658D01*
X006823Y003619D01*
X006879Y003577D01*
X006933Y003532D01*
X006984Y003484D01*
X007032Y003433D01*
X007077Y003379D01*
X007119Y003323D01*
X007158Y003265D01*
X007194Y003205D01*
X007226Y003142D01*
X007255Y003078D01*
X007280Y003013D01*
X007301Y002946D01*
X007319Y002878D01*
X007332Y002809D01*
X007342Y002740D01*
X007348Y002670D01*
X007350Y002600D01*
X007348Y002530D01*
X007342Y002460D01*
X007332Y002391D01*
X007319Y002322D01*
X007301Y002254D01*
X007280Y002187D01*
X007255Y002122D01*
X007226Y002058D01*
X007194Y001995D01*
X007158Y001935D01*
X007119Y001877D01*
X007077Y001821D01*
X007032Y001767D01*
X006984Y001716D01*
X006933Y001668D01*
X006879Y001623D01*
X006823Y001581D01*
X006765Y001542D01*
X006705Y001506D01*
X006642Y001474D01*
X006578Y001445D01*
X006513Y001420D01*
X006446Y001399D01*
X006378Y001381D01*
X006309Y001368D01*
X006240Y001358D01*
X006170Y001352D01*
X006100Y001350D01*
X006030Y001352D01*
X005960Y001358D01*
X005891Y001368D01*
X005822Y001381D01*
X005754Y001399D01*
X005687Y001420D01*
X005622Y001445D01*
X005558Y001474D01*
X005495Y001506D01*
X005435Y001542D01*
X005377Y001581D01*
X005321Y001623D01*
X005267Y001668D01*
X005216Y001716D01*
X005168Y001767D01*
X005123Y001821D01*
X005081Y001877D01*
X005042Y001935D01*
X005006Y001995D01*
X004974Y002058D01*
X004945Y002122D01*
X004920Y002187D01*
X004899Y002254D01*
X004881Y002322D01*
X004868Y002391D01*
X004858Y002460D01*
X004852Y002530D01*
X004850Y002600D01*
X020100Y012600D02*
X020102Y012644D01*
X020108Y012688D01*
X020118Y012731D01*
X020131Y012773D01*
X020148Y012814D01*
X020169Y012853D01*
X020193Y012890D01*
X020220Y012925D01*
X020250Y012957D01*
X020283Y012987D01*
X020319Y013013D01*
X020356Y013037D01*
X020396Y013056D01*
X020437Y013073D01*
X020480Y013085D01*
X020523Y013094D01*
X020567Y013099D01*
X020611Y013100D01*
X020655Y013097D01*
X020699Y013090D01*
X020742Y013079D01*
X020784Y013065D01*
X020824Y013047D01*
X020863Y013025D01*
X020899Y013001D01*
X020933Y012973D01*
X020965Y012942D01*
X020994Y012908D01*
X021020Y012872D01*
X021042Y012834D01*
X021061Y012794D01*
X021076Y012752D01*
X021088Y012710D01*
X021096Y012666D01*
X021100Y012622D01*
X021100Y012578D01*
X021096Y012534D01*
X021088Y012490D01*
X021076Y012448D01*
X021061Y012406D01*
X021042Y012366D01*
X021020Y012328D01*
X020994Y012292D01*
X020965Y012258D01*
X020933Y012227D01*
X020899Y012199D01*
X020863Y012175D01*
X020824Y012153D01*
X020784Y012135D01*
X020742Y012121D01*
X020699Y012110D01*
X020655Y012103D01*
X020611Y012100D01*
X020567Y012101D01*
X020523Y012106D01*
X020480Y012115D01*
X020437Y012127D01*
X020396Y012144D01*
X020356Y012163D01*
X020319Y012187D01*
X020283Y012213D01*
X020250Y012243D01*
X020220Y012275D01*
X020193Y012310D01*
X020169Y012347D01*
X020148Y012386D01*
X020131Y012427D01*
X020118Y012469D01*
X020108Y012512D01*
X020102Y012556D01*
X020100Y012600D01*
X020100Y021100D02*
X020102Y021144D01*
X020108Y021188D01*
X020118Y021231D01*
X020131Y021273D01*
X020148Y021314D01*
X020169Y021353D01*
X020193Y021390D01*
X020220Y021425D01*
X020250Y021457D01*
X020283Y021487D01*
X020319Y021513D01*
X020356Y021537D01*
X020396Y021556D01*
X020437Y021573D01*
X020480Y021585D01*
X020523Y021594D01*
X020567Y021599D01*
X020611Y021600D01*
X020655Y021597D01*
X020699Y021590D01*
X020742Y021579D01*
X020784Y021565D01*
X020824Y021547D01*
X020863Y021525D01*
X020899Y021501D01*
X020933Y021473D01*
X020965Y021442D01*
X020994Y021408D01*
X021020Y021372D01*
X021042Y021334D01*
X021061Y021294D01*
X021076Y021252D01*
X021088Y021210D01*
X021096Y021166D01*
X021100Y021122D01*
X021100Y021078D01*
X021096Y021034D01*
X021088Y020990D01*
X021076Y020948D01*
X021061Y020906D01*
X021042Y020866D01*
X021020Y020828D01*
X020994Y020792D01*
X020965Y020758D01*
X020933Y020727D01*
X020899Y020699D01*
X020863Y020675D01*
X020824Y020653D01*
X020784Y020635D01*
X020742Y020621D01*
X020699Y020610D01*
X020655Y020603D01*
X020611Y020600D01*
X020567Y020601D01*
X020523Y020606D01*
X020480Y020615D01*
X020437Y020627D01*
X020396Y020644D01*
X020356Y020663D01*
X020319Y020687D01*
X020283Y020713D01*
X020250Y020743D01*
X020220Y020775D01*
X020193Y020810D01*
X020169Y020847D01*
X020148Y020886D01*
X020131Y020927D01*
X020118Y020969D01*
X020108Y021012D01*
X020102Y021056D01*
X020100Y021100D01*
D12*
X007230Y019850D02*
X007230Y019600D01*
X007230Y019350D01*
X006980Y019350D02*
X006980Y019600D01*
X006980Y019850D01*
X006980Y018350D02*
X006980Y018100D01*
X006980Y017850D01*
X007230Y017850D02*
X007230Y018100D01*
X007230Y018350D01*
X007230Y016850D02*
X007230Y016600D01*
X007230Y016350D01*
X006980Y016350D02*
X006980Y016600D01*
X006980Y016850D01*
X006980Y015350D02*
X006980Y015100D01*
X006980Y014850D01*
X007230Y014850D02*
X007230Y015100D01*
X007230Y015350D01*
X008350Y002730D02*
X008600Y002730D01*
X008850Y002730D01*
X008850Y002480D02*
X008600Y002480D01*
X008350Y002480D01*
X012350Y002470D02*
X012600Y002470D01*
X012850Y002470D01*
X012850Y002720D02*
X012600Y002720D01*
X012350Y002720D01*
D13*
X012450Y005400D02*
X009750Y005400D01*
X009699Y005402D01*
X009648Y005407D01*
X009598Y005417D01*
X009548Y005430D01*
X009500Y005446D01*
X009453Y005466D01*
X009407Y005490D01*
X009364Y005516D01*
X009322Y005546D01*
X009283Y005579D01*
X009246Y005614D01*
X009212Y005652D01*
X009181Y005693D01*
X009152Y005735D01*
X009127Y005780D01*
X009106Y005826D01*
X009087Y005874D01*
X009073Y005923D01*
X009062Y005973D01*
X009054Y006023D01*
X009050Y006074D01*
X009050Y006126D01*
X009054Y006177D01*
X009062Y006227D01*
X009073Y006277D01*
X009087Y006326D01*
X009106Y006374D01*
X009127Y006420D01*
X009152Y006465D01*
X009181Y006507D01*
X009212Y006548D01*
X009246Y006586D01*
X009283Y006621D01*
X009322Y006654D01*
X009364Y006684D01*
X009407Y006710D01*
X009453Y006734D01*
X009500Y006754D01*
X009548Y006770D01*
X009598Y006783D01*
X009648Y006793D01*
X009699Y006798D01*
X009750Y006800D01*
X012450Y006800D01*
X012501Y006798D01*
X012552Y006793D01*
X012602Y006783D01*
X012652Y006770D01*
X012700Y006754D01*
X012747Y006734D01*
X012793Y006710D01*
X012836Y006684D01*
X012878Y006654D01*
X012917Y006621D01*
X012954Y006586D01*
X012988Y006548D01*
X013019Y006507D01*
X013048Y006465D01*
X013073Y006420D01*
X013094Y006374D01*
X013113Y006326D01*
X013127Y006277D01*
X013138Y006227D01*
X013146Y006177D01*
X013150Y006126D01*
X013150Y006074D01*
X013146Y006023D01*
X013138Y005973D01*
X013127Y005923D01*
X013113Y005874D01*
X013094Y005826D01*
X013073Y005780D01*
X013048Y005735D01*
X013019Y005693D01*
X012988Y005652D01*
X012954Y005614D01*
X012917Y005579D01*
X012878Y005546D01*
X012836Y005516D01*
X012793Y005490D01*
X012747Y005466D01*
X012700Y005446D01*
X012652Y005430D01*
X012602Y005417D01*
X012552Y005407D01*
X012501Y005402D01*
X012450Y005400D01*
D14*
X012504Y007175D02*
X012504Y007625D01*
X012665Y007475D02*
X012965Y007475D01*
X012665Y007175D01*
X012965Y007175D01*
X012504Y007400D02*
X012204Y007400D01*
X012044Y007400D02*
X012044Y007175D01*
X011894Y007175D02*
X011894Y007400D01*
X011969Y007475D01*
X012044Y007400D01*
X011894Y007400D02*
X011819Y007475D01*
X011744Y007475D01*
X011744Y007175D01*
X011584Y007250D02*
X011584Y007325D01*
X011509Y007400D01*
X011283Y007400D01*
X011283Y007250D01*
X011358Y007175D01*
X011509Y007175D01*
X011584Y007250D01*
X011434Y007550D02*
X011283Y007400D01*
X011434Y007550D02*
X011584Y007625D01*
X011123Y007175D02*
X010823Y007175D01*
X010973Y007175D02*
X010973Y007625D01*
X010823Y007475D01*
X012204Y007625D02*
X012204Y007175D01*
X021345Y011927D02*
X021345Y012152D01*
X021420Y012228D01*
X021720Y012228D01*
X021795Y012152D01*
X021795Y011927D01*
X021345Y011927D01*
X021345Y012388D02*
X021345Y012538D01*
X021345Y012463D02*
X021795Y012463D01*
X021795Y012388D02*
X021795Y012538D01*
X021795Y012695D02*
X021345Y012695D01*
X021345Y012920D01*
X021420Y012995D01*
X021570Y012995D01*
X021645Y012920D01*
X021645Y012695D01*
X021645Y012845D02*
X021795Y012995D01*
D15*
X021830Y020120D02*
X021370Y020120D01*
X021370Y020350D01*
X021446Y020427D01*
X021753Y020427D01*
X021830Y020350D01*
X021830Y020120D01*
X021830Y020580D02*
X021830Y020734D01*
X021830Y020657D02*
X021370Y020657D01*
X021370Y020580D02*
X021370Y020734D01*
X021446Y020887D02*
X021370Y020964D01*
X021370Y021118D01*
X021446Y021194D01*
X021753Y021194D01*
X021830Y021118D01*
X021830Y020964D01*
X021753Y020887D01*
X021446Y020887D01*
X011194Y019254D02*
X011194Y018947D01*
X011118Y018870D01*
X010964Y018870D01*
X010887Y018947D01*
X010887Y019254D01*
X010964Y019330D01*
X011118Y019330D01*
X011194Y019254D01*
X010734Y019330D02*
X010580Y019330D01*
X010657Y019330D02*
X010657Y018870D01*
X010580Y018870D02*
X010734Y018870D01*
X010427Y018870D02*
X010427Y019177D01*
X010273Y019330D01*
X010120Y019177D01*
X010120Y018870D01*
X010120Y019100D02*
X010427Y019100D01*
X004830Y015348D02*
X004370Y015348D01*
X004370Y015578D01*
X004446Y015655D01*
X004600Y015655D01*
X004677Y015578D01*
X004677Y015348D01*
X004677Y015194D02*
X004753Y015194D01*
X004830Y015118D01*
X004830Y014964D01*
X004753Y014887D01*
X004753Y014734D02*
X004830Y014657D01*
X004830Y014504D01*
X004753Y014427D01*
X004446Y014427D01*
X004370Y014504D01*
X004370Y014657D01*
X004446Y014734D01*
X004446Y014887D02*
X004523Y014887D01*
X004600Y014964D01*
X004600Y015118D01*
X004677Y015194D01*
X004446Y015194D02*
X004370Y015118D01*
X004370Y014964D01*
X004446Y014887D01*
X004370Y014273D02*
X004370Y014120D01*
X004370Y014197D02*
X004830Y014197D01*
X004830Y014273D02*
X004830Y014120D01*
X004830Y006848D02*
X004370Y006848D01*
X004523Y006694D01*
X004370Y006541D01*
X004830Y006541D01*
X004830Y006387D02*
X004370Y006387D01*
X004677Y006234D02*
X004830Y006387D01*
X004677Y006234D02*
X004830Y006080D01*
X004370Y006080D01*
X004446Y005927D02*
X004600Y005927D01*
X004677Y005850D01*
X004677Y005620D01*
X004830Y005620D02*
X004370Y005620D01*
X004370Y005850D01*
X004446Y005927D01*
X017620Y002754D02*
X017620Y002447D01*
X017697Y002370D01*
X017850Y002370D01*
X017927Y002447D01*
X018080Y002447D02*
X018157Y002370D01*
X018311Y002370D01*
X018387Y002447D01*
X018387Y002754D01*
X018311Y002830D01*
X018157Y002830D01*
X018080Y002754D01*
X018080Y002447D01*
X017927Y002754D02*
X017850Y002830D01*
X017697Y002830D01*
X017620Y002754D01*
X018541Y002830D02*
X018541Y002370D01*
X018848Y002370D02*
X018848Y002830D01*
X018694Y002677D01*
X018541Y002830D01*
X019001Y002754D02*
X019001Y002677D01*
X019078Y002600D01*
X019231Y002600D01*
X019308Y002523D01*
X019308Y002447D01*
X019231Y002370D01*
X019078Y002370D01*
X019001Y002447D01*
X019001Y002754D02*
X019078Y002830D01*
X019231Y002830D01*
X019308Y002754D01*
M02*
