G75*
G70*
%OFA0B0*%
%FSLAX24Y24*%
%IPPOS*%
%LPD*%
%AMOC8*
5,1,8,0,0,1.08239X$1,22.5*
%
%ADD10R,0.0671X0.0218*%
%ADD11R,0.0218X0.0671*%
%ADD12OC8,0.0710*%
%ADD13C,0.0560*%
%ADD14OC8,0.0640*%
%ADD15OC8,0.0720*%
%ADD16C,0.0720*%
D10*
X009450Y009738D03*
X009450Y009935D03*
X009450Y010131D03*
X009450Y010328D03*
X009450Y010525D03*
X009450Y010722D03*
X009450Y010919D03*
X009450Y011116D03*
X009450Y011313D03*
X009450Y011509D03*
X009450Y011706D03*
X009450Y011903D03*
X009450Y012100D03*
X009450Y012297D03*
X009450Y012494D03*
X009450Y012691D03*
X009450Y012887D03*
X009450Y013084D03*
X009450Y013281D03*
X009450Y013478D03*
X009450Y013675D03*
X009450Y013872D03*
X009450Y014069D03*
X009450Y014265D03*
X009450Y014462D03*
X015750Y014462D03*
X015750Y014265D03*
X015750Y014069D03*
X015750Y013872D03*
X015750Y013675D03*
X015750Y013478D03*
X015750Y013281D03*
X015750Y013084D03*
X015750Y012887D03*
X015750Y012691D03*
X015750Y012494D03*
X015750Y012297D03*
X015750Y012100D03*
X015750Y011903D03*
X015750Y011706D03*
X015750Y011509D03*
X015750Y011313D03*
X015750Y011116D03*
X015750Y010919D03*
X015750Y010722D03*
X015750Y010525D03*
X015750Y010328D03*
X015750Y010131D03*
X015750Y009935D03*
X015750Y009738D03*
D11*
X014962Y008950D03*
X014765Y008950D03*
X014569Y008950D03*
X014372Y008950D03*
X014175Y008950D03*
X013978Y008950D03*
X013781Y008950D03*
X013584Y008950D03*
X013387Y008950D03*
X013191Y008950D03*
X012994Y008950D03*
X012797Y008950D03*
X012600Y008950D03*
X012403Y008950D03*
X012206Y008950D03*
X012009Y008950D03*
X011813Y008950D03*
X011616Y008950D03*
X011419Y008950D03*
X011222Y008950D03*
X011025Y008950D03*
X010828Y008950D03*
X010631Y008950D03*
X010435Y008950D03*
X010238Y008950D03*
X010238Y015250D03*
X010435Y015250D03*
X010631Y015250D03*
X010828Y015250D03*
X011025Y015250D03*
X011222Y015250D03*
X011419Y015250D03*
X011616Y015250D03*
X011813Y015250D03*
X012009Y015250D03*
X012206Y015250D03*
X012403Y015250D03*
X012600Y015250D03*
X012797Y015250D03*
X012994Y015250D03*
X013191Y015250D03*
X013387Y015250D03*
X013584Y015250D03*
X013781Y015250D03*
X013978Y015250D03*
X014175Y015250D03*
X014372Y015250D03*
X014569Y015250D03*
X014765Y015250D03*
X014962Y015250D03*
D12*
X008100Y015100D03*
X008100Y016600D03*
X008100Y018100D03*
X008100Y019600D03*
X006100Y019600D03*
X006100Y018100D03*
X006100Y016600D03*
X006100Y015100D03*
X008600Y003600D03*
X008600Y001600D03*
X012600Y001600D03*
X012600Y003600D03*
D13*
X012100Y005860D02*
X012100Y006340D01*
X010100Y006340D02*
X010100Y005860D01*
D14*
X010600Y004100D03*
X010600Y001100D03*
X014100Y001600D03*
X017100Y001600D03*
X007600Y010100D03*
X006600Y010100D03*
X006600Y008100D03*
X006600Y005100D03*
X006600Y013100D03*
X007600Y013100D03*
D15*
X003600Y014600D03*
X003600Y015600D03*
X002600Y015600D03*
X002600Y014600D03*
X002600Y016600D03*
X003600Y016600D03*
X010600Y020100D03*
X010600Y021100D03*
X011600Y021100D03*
X011600Y020100D03*
X012600Y020100D03*
X012600Y021100D03*
X013600Y021100D03*
X013600Y020100D03*
X014600Y020100D03*
X014600Y021100D03*
X015600Y021100D03*
X015600Y020100D03*
X016600Y020100D03*
X016600Y021100D03*
X017600Y021100D03*
X017600Y020100D03*
X017100Y004600D03*
X016100Y004600D03*
X016100Y003600D03*
X017100Y003600D03*
X018100Y003600D03*
X019100Y003600D03*
X019100Y004600D03*
X018100Y004600D03*
X015100Y004600D03*
X015100Y003600D03*
D16*
X002100Y002920D02*
X002100Y002280D01*
X003100Y002280D02*
X003100Y002920D01*
X005600Y002920D02*
X005600Y002280D01*
X006600Y002280D02*
X006600Y002920D01*
X003920Y006100D02*
X003280Y006100D01*
X003280Y007100D02*
X003920Y007100D01*
X003920Y008100D02*
X003280Y008100D01*
X003280Y009100D02*
X003920Y009100D01*
X003920Y010100D02*
X003280Y010100D01*
X003280Y011100D02*
X003920Y011100D01*
X003920Y012100D02*
X003280Y012100D01*
X003280Y013100D02*
X003920Y013100D01*
X003920Y019100D02*
X003280Y019100D01*
X003280Y020100D02*
X003920Y020100D01*
X003920Y021100D02*
X003280Y021100D01*
X020280Y021100D02*
X020920Y021100D01*
X020920Y020100D02*
X020280Y020100D01*
X020280Y019100D02*
X020920Y019100D01*
X020920Y018100D02*
X020280Y018100D01*
X020280Y017100D02*
X020920Y017100D01*
X020920Y016100D02*
X020280Y016100D01*
X020280Y015100D02*
X020920Y015100D01*
X020920Y014100D02*
X020280Y014100D01*
X020280Y012600D02*
X020920Y012600D01*
X020920Y011600D02*
X020280Y011600D01*
X020280Y010600D02*
X020920Y010600D01*
X020920Y009600D02*
X020280Y009600D01*
X020280Y008600D02*
X020920Y008600D01*
X020920Y007600D02*
X020280Y007600D01*
X020280Y006600D02*
X020920Y006600D01*
X020920Y005600D02*
X020280Y005600D01*
M02*
