G75*
G70*
%OFA0B0*%
%FSLAX24Y24*%
%IPPOS*%
%LPD*%
%AMOC8*
5,1,8,0,0,1.08239X$1,22.5*
%
%ADD10C,0.0000*%
%ADD11R,0.0591X0.0138*%
%ADD12R,0.0138X0.0591*%
%ADD13OC8,0.0630*%
%ADD14C,0.0480*%
%ADD15OC8,0.0560*%
%ADD16OC8,0.0640*%
%ADD17C,0.0640*%
%ADD18C,0.0100*%
%ADD19R,0.0436X0.0436*%
D10*
X000100Y000100D02*
X000100Y022596D01*
X022470Y022596D01*
X022470Y000100D01*
X000100Y000100D01*
D11*
X009450Y009738D03*
X009450Y009935D03*
X009450Y010131D03*
X009450Y010328D03*
X009450Y010525D03*
X009450Y010722D03*
X009450Y010919D03*
X009450Y011116D03*
X009450Y011313D03*
X009450Y011509D03*
X009450Y011706D03*
X009450Y011903D03*
X009450Y012100D03*
X009450Y012297D03*
X009450Y012494D03*
X009450Y012691D03*
X009450Y012887D03*
X009450Y013084D03*
X009450Y013281D03*
X009450Y013478D03*
X009450Y013675D03*
X009450Y013872D03*
X009450Y014069D03*
X009450Y014265D03*
X009450Y014462D03*
X015750Y014462D03*
X015750Y014265D03*
X015750Y014069D03*
X015750Y013872D03*
X015750Y013675D03*
X015750Y013478D03*
X015750Y013281D03*
X015750Y013084D03*
X015750Y012887D03*
X015750Y012691D03*
X015750Y012494D03*
X015750Y012297D03*
X015750Y012100D03*
X015750Y011903D03*
X015750Y011706D03*
X015750Y011509D03*
X015750Y011313D03*
X015750Y011116D03*
X015750Y010919D03*
X015750Y010722D03*
X015750Y010525D03*
X015750Y010328D03*
X015750Y010131D03*
X015750Y009935D03*
X015750Y009738D03*
D12*
X014962Y008950D03*
X014765Y008950D03*
X014569Y008950D03*
X014372Y008950D03*
X014175Y008950D03*
X013978Y008950D03*
X013781Y008950D03*
X013584Y008950D03*
X013387Y008950D03*
X013191Y008950D03*
X012994Y008950D03*
X012797Y008950D03*
X012600Y008950D03*
X012403Y008950D03*
X012206Y008950D03*
X012009Y008950D03*
X011813Y008950D03*
X011616Y008950D03*
X011419Y008950D03*
X011222Y008950D03*
X011025Y008950D03*
X010828Y008950D03*
X010631Y008950D03*
X010435Y008950D03*
X010238Y008950D03*
X010238Y015250D03*
X010435Y015250D03*
X010631Y015250D03*
X010828Y015250D03*
X011025Y015250D03*
X011222Y015250D03*
X011419Y015250D03*
X011616Y015250D03*
X011813Y015250D03*
X012009Y015250D03*
X012206Y015250D03*
X012403Y015250D03*
X012600Y015250D03*
X012797Y015250D03*
X012994Y015250D03*
X013191Y015250D03*
X013387Y015250D03*
X013584Y015250D03*
X013781Y015250D03*
X013978Y015250D03*
X014175Y015250D03*
X014372Y015250D03*
X014569Y015250D03*
X014765Y015250D03*
X014962Y015250D03*
D13*
X008100Y015100D03*
X008100Y016600D03*
X008100Y018100D03*
X008100Y019600D03*
X006100Y019600D03*
X006100Y018100D03*
X006100Y016600D03*
X006100Y015100D03*
X008600Y003600D03*
X008600Y001600D03*
X012600Y001600D03*
X012600Y003600D03*
D14*
X012100Y005860D02*
X012100Y006340D01*
X010100Y006340D02*
X010100Y005860D01*
D15*
X010600Y004100D03*
X010600Y001100D03*
X014100Y001600D03*
X017100Y001600D03*
X007600Y010100D03*
X006600Y010100D03*
X006600Y008100D03*
X006600Y005100D03*
X006600Y013100D03*
X007600Y013100D03*
D16*
X003600Y014600D03*
X003600Y015600D03*
X002600Y015600D03*
X002600Y014600D03*
X002600Y016600D03*
X003600Y016600D03*
X010600Y020100D03*
X010600Y021100D03*
X011600Y021100D03*
X011600Y020100D03*
X012600Y020100D03*
X012600Y021100D03*
X013600Y021100D03*
X013600Y020100D03*
X014600Y020100D03*
X014600Y021100D03*
X015600Y021100D03*
X015600Y020100D03*
X016600Y020100D03*
X016600Y021100D03*
X017600Y021100D03*
X017600Y020100D03*
X017100Y004600D03*
X016100Y004600D03*
X016100Y003600D03*
X017100Y003600D03*
X018100Y003600D03*
X019100Y003600D03*
X019100Y004600D03*
X018100Y004600D03*
X015100Y004600D03*
X015100Y003600D03*
D17*
X020280Y005600D02*
X020920Y005600D01*
X020920Y006600D02*
X020280Y006600D01*
X020280Y007600D02*
X020920Y007600D01*
X020920Y008600D02*
X020280Y008600D01*
X020280Y009600D02*
X020920Y009600D01*
X020920Y010600D02*
X020280Y010600D01*
X020280Y011600D02*
X020920Y011600D01*
X020920Y012600D02*
X020280Y012600D01*
X020280Y014100D02*
X020920Y014100D01*
X020920Y015100D02*
X020280Y015100D01*
X020280Y016100D02*
X020920Y016100D01*
X020920Y017100D02*
X020280Y017100D01*
X020280Y018100D02*
X020920Y018100D01*
X020920Y019100D02*
X020280Y019100D01*
X020280Y020100D02*
X020920Y020100D01*
X020920Y021100D02*
X020280Y021100D01*
X003920Y021100D02*
X003280Y021100D01*
X003280Y020100D02*
X003920Y020100D01*
X003920Y019100D02*
X003280Y019100D01*
X003280Y013100D02*
X003920Y013100D01*
X003920Y012100D02*
X003280Y012100D01*
X003280Y011100D02*
X003920Y011100D01*
X003920Y010100D02*
X003280Y010100D01*
X003280Y009100D02*
X003920Y009100D01*
X003920Y008100D02*
X003280Y008100D01*
X003280Y007100D02*
X003920Y007100D01*
X003920Y006100D02*
X003280Y006100D01*
X003100Y002920D02*
X003100Y002280D01*
X002100Y002280D02*
X002100Y002920D01*
X005600Y002920D02*
X005600Y002280D01*
X006600Y002280D02*
X006600Y002920D01*
D18*
X006600Y002600D02*
X006600Y002100D01*
X006100Y001600D01*
X004600Y001600D01*
X003600Y002600D01*
X003100Y002600D01*
X001600Y004100D01*
X001600Y015600D01*
X002600Y016600D01*
X002600Y019100D01*
X003600Y020100D01*
X007600Y020100D01*
X008100Y019600D01*
X008100Y018100D01*
X008100Y016600D01*
X008100Y015100D01*
X009600Y015100D01*
X011100Y013600D01*
X011850Y014350D01*
X013850Y014350D01*
X014100Y014100D01*
X014100Y012600D01*
X014797Y011903D01*
X015750Y011903D01*
X015750Y011706D02*
X016456Y011706D01*
X017600Y012600D01*
X017280Y012775D02*
X017280Y013170D01*
X021275Y013170D01*
X021420Y013025D01*
X021420Y005175D01*
X021025Y004780D01*
X019550Y004780D01*
X019550Y004786D01*
X019286Y005050D01*
X018914Y005050D01*
X018650Y004786D01*
X018650Y004780D01*
X018550Y004780D01*
X018550Y004786D01*
X018286Y005050D01*
X017914Y005050D01*
X017780Y004916D01*
X017780Y005675D01*
X017675Y005780D01*
X015530Y007925D01*
X015530Y008415D01*
X016252Y007694D01*
X016252Y007328D01*
X016328Y007252D01*
X016872Y007252D01*
X016948Y007328D01*
X016948Y007872D01*
X016872Y007948D01*
X016506Y007948D01*
X015780Y008675D01*
X015780Y009175D01*
X015675Y009280D01*
X015416Y009539D01*
X016099Y009539D01*
X016175Y009615D01*
X016175Y009771D01*
X019995Y005951D01*
X019899Y005855D01*
X019830Y005690D01*
X019830Y005510D01*
X019899Y005345D01*
X020025Y005219D01*
X020190Y005150D01*
X021010Y005150D01*
X021175Y005219D01*
X021301Y005345D01*
X021370Y005510D01*
X021370Y005690D01*
X021301Y005855D01*
X021175Y005981D01*
X021010Y006050D01*
X020405Y006050D01*
X020305Y006150D01*
X021010Y006150D01*
X021175Y006219D01*
X021301Y006345D01*
X021370Y006510D01*
X021370Y006690D01*
X021301Y006855D01*
X021175Y006981D01*
X021010Y007050D01*
X020190Y007050D01*
X020025Y006981D01*
X019999Y006955D01*
X019535Y007420D01*
X019867Y007420D01*
X019899Y007345D01*
X020025Y007219D01*
X020190Y007150D01*
X021010Y007150D01*
X021175Y007219D01*
X021301Y007345D01*
X021370Y007510D01*
X021370Y007690D01*
X021301Y007855D01*
X021175Y007981D01*
X021010Y008050D01*
X020190Y008050D01*
X020025Y007981D01*
X019899Y007855D01*
X019867Y007780D01*
X019675Y007780D01*
X016913Y010542D01*
X017403Y010542D01*
X019420Y008525D01*
X019525Y008420D01*
X019867Y008420D01*
X019899Y008345D01*
X020025Y008219D01*
X020190Y008150D01*
X021010Y008150D01*
X021175Y008219D01*
X021301Y008345D01*
X021370Y008510D01*
X021370Y008690D01*
X021301Y008855D01*
X021175Y008981D01*
X021010Y009050D01*
X020190Y009050D01*
X020025Y008981D01*
X019899Y008855D01*
X019867Y008780D01*
X019675Y008780D01*
X019035Y009420D01*
X019867Y009420D01*
X019899Y009345D01*
X020025Y009219D01*
X020190Y009150D01*
X021010Y009150D01*
X021175Y009219D01*
X021301Y009345D01*
X021370Y009510D01*
X021370Y009690D01*
X021301Y009855D01*
X021175Y009981D01*
X021010Y010050D01*
X020190Y010050D01*
X020025Y009981D01*
X019899Y009855D01*
X019867Y009780D01*
X019175Y009780D01*
X018019Y010936D01*
X019979Y010936D01*
X019899Y010855D01*
X019830Y010690D01*
X019830Y010510D01*
X019899Y010345D01*
X020025Y010219D01*
X020190Y010150D01*
X021010Y010150D01*
X021175Y010219D01*
X021301Y010345D01*
X021370Y010510D01*
X021370Y010690D01*
X021301Y010855D01*
X021175Y010981D01*
X021010Y011050D01*
X020405Y011050D01*
X020322Y011133D01*
X020387Y011133D01*
X020405Y011150D01*
X021010Y011150D01*
X021175Y011219D01*
X021301Y011345D01*
X021370Y011510D01*
X021370Y011690D01*
X021301Y011855D01*
X021175Y011981D01*
X021010Y012050D01*
X020190Y012050D01*
X020025Y011981D01*
X019899Y011855D01*
X019830Y011690D01*
X019830Y011510D01*
X019837Y011493D01*
X018747Y011493D01*
X019675Y012420D01*
X019867Y012420D01*
X019899Y012345D01*
X020025Y012219D01*
X020190Y012150D01*
X021010Y012150D01*
X021175Y012219D01*
X021301Y012345D01*
X021370Y012510D01*
X021370Y012690D01*
X021301Y012855D01*
X021175Y012981D01*
X021010Y013050D01*
X020190Y013050D01*
X020025Y012981D01*
X019899Y012855D01*
X019867Y012780D01*
X019525Y012780D01*
X019420Y012675D01*
X018435Y011689D01*
X016195Y011689D01*
X016195Y011706D01*
X016101Y011706D01*
X016101Y011706D01*
X016195Y011706D01*
X016195Y011795D01*
X016185Y011833D01*
X016175Y011850D01*
X016175Y011920D01*
X016425Y011920D01*
X017175Y012670D01*
X017280Y012775D01*
X017280Y012830D02*
X019888Y012830D01*
X019972Y012929D02*
X017280Y012929D01*
X017280Y013027D02*
X020135Y013027D01*
X020285Y013530D02*
X020405Y013650D01*
X021010Y013650D01*
X021175Y013719D01*
X021301Y013845D01*
X021370Y014010D01*
X021370Y014190D01*
X021301Y014355D01*
X021175Y014481D01*
X021010Y014550D01*
X020305Y014550D01*
X020405Y014650D01*
X021010Y014650D01*
X021175Y014719D01*
X021301Y014845D01*
X021370Y015010D01*
X021370Y015190D01*
X021301Y015355D01*
X021175Y015481D01*
X021010Y015550D01*
X020305Y015550D01*
X020405Y015650D01*
X021010Y015650D01*
X021175Y015719D01*
X021301Y015845D01*
X021370Y016010D01*
X021370Y016190D01*
X021301Y016355D01*
X021175Y016481D01*
X021010Y016550D01*
X020305Y016550D01*
X020405Y016650D01*
X021010Y016650D01*
X021175Y016719D01*
X021301Y016845D01*
X021370Y017010D01*
X021370Y017190D01*
X021301Y017355D01*
X021175Y017481D01*
X021010Y017550D01*
X020305Y017550D01*
X020405Y017650D01*
X021010Y017650D01*
X021175Y017719D01*
X021301Y017845D01*
X021370Y018010D01*
X021370Y018190D01*
X021301Y018355D01*
X021175Y018481D01*
X021010Y018550D01*
X020305Y018550D01*
X020405Y018650D01*
X021010Y018650D01*
X021175Y018719D01*
X021301Y018845D01*
X021370Y019010D01*
X021370Y019190D01*
X021301Y019355D01*
X021175Y019481D01*
X021010Y019550D01*
X020305Y019550D01*
X020405Y019650D01*
X021010Y019650D01*
X021175Y019719D01*
X021301Y019845D01*
X021370Y020010D01*
X021370Y020190D01*
X021301Y020355D01*
X021175Y020481D01*
X021010Y020550D01*
X020305Y020550D01*
X020405Y020650D01*
X021010Y020650D01*
X021175Y020719D01*
X021301Y020845D01*
X021370Y021010D01*
X021370Y021190D01*
X021301Y021355D01*
X021175Y021481D01*
X021010Y021550D01*
X020190Y021550D01*
X020025Y021481D01*
X019899Y021355D01*
X019830Y021190D01*
X019830Y021010D01*
X019899Y020845D01*
X019995Y020749D01*
X016525Y017280D01*
X016025Y017280D01*
X015920Y017175D01*
X014420Y015675D01*
X014319Y015675D01*
X014302Y015685D01*
X014263Y015695D01*
X014199Y015695D01*
X016675Y018170D01*
X016925Y018170D01*
X018175Y019420D01*
X018280Y019525D01*
X018280Y020675D01*
X018045Y020909D01*
X018050Y020914D01*
X018050Y021286D01*
X017786Y021550D01*
X017414Y021550D01*
X017150Y021286D01*
X017150Y020914D01*
X017414Y020650D01*
X017786Y020650D01*
X017791Y020655D01*
X017920Y020525D01*
X017920Y020416D01*
X017786Y020550D01*
X017414Y020550D01*
X017280Y020416D01*
X017280Y020675D01*
X017045Y020909D01*
X017050Y020914D01*
X017050Y021286D01*
X016786Y021550D01*
X016414Y021550D01*
X016150Y021286D01*
X016150Y020914D01*
X016414Y020650D01*
X016786Y020650D01*
X016791Y020655D01*
X016920Y020525D01*
X016920Y020416D01*
X016786Y020550D01*
X016414Y020550D01*
X016280Y020416D01*
X016280Y020675D01*
X016045Y020909D01*
X016050Y020914D01*
X016050Y021286D01*
X015786Y021550D01*
X015414Y021550D01*
X015150Y021286D01*
X015150Y020914D01*
X015414Y020650D01*
X015786Y020650D01*
X015791Y020655D01*
X015920Y020525D01*
X015920Y020416D01*
X015786Y020550D01*
X015414Y020550D01*
X015280Y020416D01*
X015280Y020675D01*
X015045Y020909D01*
X015050Y020914D01*
X015050Y021286D01*
X014786Y021550D01*
X014414Y021550D01*
X014150Y021286D01*
X014150Y020914D01*
X014414Y020650D01*
X014786Y020650D01*
X014791Y020655D01*
X014920Y020525D01*
X014920Y020416D01*
X014786Y020550D01*
X014414Y020550D01*
X014280Y020416D01*
X014280Y020675D01*
X014045Y020909D01*
X014050Y020914D01*
X014050Y021286D01*
X013786Y021550D01*
X013414Y021550D01*
X013150Y021286D01*
X013150Y020914D01*
X013414Y020650D01*
X013786Y020650D01*
X013791Y020655D01*
X013920Y020525D01*
X013920Y020416D01*
X013786Y020550D01*
X013414Y020550D01*
X013280Y020416D01*
X013280Y020675D01*
X013045Y020909D01*
X013050Y020914D01*
X013050Y021286D01*
X012786Y021550D01*
X012414Y021550D01*
X012150Y021286D01*
X012150Y020914D01*
X012414Y020650D01*
X012786Y020650D01*
X012791Y020655D01*
X012920Y020525D01*
X012920Y020416D01*
X012786Y020550D01*
X012414Y020550D01*
X012280Y020416D01*
X012280Y020675D01*
X012045Y020909D01*
X012050Y020914D01*
X012050Y021286D01*
X011786Y021550D01*
X011414Y021550D01*
X011150Y021286D01*
X011150Y020914D01*
X011414Y020650D01*
X011786Y020650D01*
X011791Y020655D01*
X011920Y020525D01*
X011920Y020416D01*
X011786Y020550D01*
X011414Y020550D01*
X011205Y020342D01*
X011205Y020749D01*
X011045Y020909D01*
X011050Y020914D01*
X011050Y021286D01*
X010786Y021550D01*
X010414Y021550D01*
X010150Y021286D01*
X010150Y020914D01*
X010414Y020650D01*
X010786Y020650D01*
X010791Y020655D01*
X010845Y020600D01*
X010845Y020491D01*
X010786Y020550D01*
X010414Y020550D01*
X010150Y020286D01*
X010150Y019914D01*
X010414Y019650D01*
X010420Y019650D01*
X010420Y016025D01*
X010525Y015920D01*
X010648Y015797D01*
X010648Y015675D01*
X010382Y015675D01*
X010365Y015685D01*
X010326Y015695D01*
X010238Y015695D01*
X010238Y015601D01*
X010238Y015601D01*
X010238Y015695D01*
X010149Y015695D01*
X010111Y015685D01*
X010077Y015665D01*
X010049Y015637D01*
X010029Y015603D01*
X010019Y015565D01*
X010019Y015250D01*
X010236Y015250D01*
X010236Y015250D01*
X010019Y015250D01*
X010019Y014936D01*
X009675Y015280D01*
X008545Y015280D01*
X008545Y015284D01*
X008284Y015545D01*
X008280Y015545D01*
X008280Y016155D01*
X008284Y016155D01*
X008545Y016416D01*
X008545Y016784D01*
X008284Y017045D01*
X008280Y017045D01*
X008280Y017655D01*
X008284Y017655D01*
X008545Y017916D01*
X008545Y018284D01*
X008284Y018545D01*
X008280Y018545D01*
X008280Y019155D01*
X008284Y019155D01*
X008545Y019416D01*
X008545Y019784D01*
X008284Y020045D01*
X007916Y020045D01*
X007913Y020042D01*
X007675Y020280D01*
X004333Y020280D01*
X004301Y020355D01*
X004175Y020481D01*
X004010Y020550D01*
X003190Y020550D01*
X003025Y020481D01*
X002899Y020355D01*
X002830Y020190D01*
X002830Y020010D01*
X002899Y019845D01*
X002995Y019749D01*
X002420Y019175D01*
X002420Y017050D01*
X002414Y017050D01*
X002150Y016786D01*
X002150Y016414D01*
X002155Y016409D01*
X001420Y015675D01*
X001420Y004025D01*
X001525Y003920D01*
X002075Y003370D01*
X002010Y003370D01*
X001845Y003301D01*
X001719Y003175D01*
X001650Y003010D01*
X001650Y002190D01*
X001719Y002025D01*
X001845Y001899D01*
X002010Y001830D01*
X002190Y001830D01*
X002355Y001899D01*
X002481Y002025D01*
X002550Y002190D01*
X002550Y002895D01*
X002650Y002795D01*
X002650Y002190D01*
X002719Y002025D01*
X002845Y001899D01*
X003010Y001830D01*
X003190Y001830D01*
X003355Y001899D01*
X003481Y002025D01*
X003550Y002190D01*
X003550Y002395D01*
X004420Y001525D01*
X004525Y001420D01*
X006175Y001420D01*
X006585Y001830D01*
X006690Y001830D01*
X006855Y001899D01*
X006981Y002025D01*
X007050Y002190D01*
X007050Y002420D01*
X007525Y002420D01*
X008158Y001787D01*
X008155Y001784D01*
X008155Y001416D01*
X008416Y001155D01*
X008784Y001155D01*
X009045Y001416D01*
X009045Y001784D01*
X008784Y002045D01*
X008416Y002045D01*
X008413Y002042D01*
X007675Y002780D01*
X007050Y002780D01*
X007050Y003010D01*
X006981Y003175D01*
X006855Y003301D01*
X006690Y003370D01*
X006510Y003370D01*
X006345Y003301D01*
X006219Y003175D01*
X006150Y003010D01*
X006150Y002190D01*
X006219Y002025D01*
X006245Y001999D01*
X006025Y001780D01*
X004675Y001780D01*
X003675Y002780D01*
X003550Y002780D01*
X003550Y003010D01*
X003481Y003175D01*
X003355Y003301D01*
X003190Y003370D01*
X003010Y003370D01*
X002845Y003301D01*
X002749Y003205D01*
X001780Y004175D01*
X001780Y015525D01*
X002409Y016155D01*
X002414Y016150D01*
X002786Y016150D01*
X003050Y016414D01*
X003050Y016786D01*
X002786Y017050D01*
X002780Y017050D01*
X002780Y019025D01*
X002905Y019150D01*
X003550Y019150D01*
X003550Y019570D01*
X003325Y019570D01*
X003405Y019650D01*
X004010Y019650D01*
X004175Y019719D01*
X004301Y019845D01*
X004333Y019920D01*
X005762Y019920D01*
X005635Y019793D01*
X005635Y019630D01*
X006070Y019630D01*
X006070Y019570D01*
X006130Y019570D01*
X006130Y019630D01*
X006565Y019630D01*
X006565Y019793D01*
X006438Y019920D01*
X007525Y019920D01*
X007658Y019787D01*
X007655Y019784D01*
X007655Y019416D01*
X007916Y019155D01*
X007920Y019155D01*
X007920Y018545D01*
X007916Y018545D01*
X007655Y018284D01*
X007655Y017916D01*
X007916Y017655D01*
X007920Y017655D01*
X007920Y017045D01*
X007916Y017045D01*
X007655Y016784D01*
X007655Y016416D01*
X007916Y016155D01*
X007920Y016155D01*
X007920Y015545D01*
X007916Y015545D01*
X007655Y015284D01*
X007655Y014916D01*
X007916Y014655D01*
X008284Y014655D01*
X008545Y014916D01*
X008545Y014920D01*
X009525Y014920D01*
X009784Y014661D01*
X009101Y014661D01*
X009025Y014585D01*
X009025Y014249D01*
X008206Y014249D01*
X007280Y015175D01*
X007280Y016752D01*
X007372Y016752D01*
X007448Y016828D01*
X007448Y017372D01*
X007372Y017448D01*
X006828Y017448D01*
X006752Y017372D01*
X006752Y016828D01*
X006828Y016752D01*
X006920Y016752D01*
X006920Y015025D01*
X007025Y014920D01*
X008057Y013889D01*
X008268Y013889D01*
X008252Y013872D01*
X008252Y013328D01*
X008328Y013252D01*
X008694Y013252D01*
X008844Y013101D01*
X009025Y013101D01*
X009025Y012834D01*
X009015Y012817D01*
X009005Y012779D01*
X009005Y012691D01*
X009099Y012691D01*
X009099Y012691D01*
X009099Y012691D01*
X009005Y012691D01*
X009005Y012602D01*
X009015Y012564D01*
X009025Y012547D01*
X009025Y011929D01*
X008280Y012675D01*
X008175Y012780D01*
X007860Y012780D01*
X008010Y012930D01*
X008010Y013270D01*
X007770Y013510D01*
X007430Y013510D01*
X007190Y013270D01*
X007190Y012930D01*
X007340Y012780D01*
X006860Y012780D01*
X007010Y012930D01*
X007010Y013270D01*
X006770Y013510D01*
X006430Y013510D01*
X006190Y013270D01*
X006190Y012930D01*
X006340Y012780D01*
X004236Y012780D01*
X004301Y012845D01*
X004370Y013010D01*
X004370Y013190D01*
X004301Y013355D01*
X004175Y013481D01*
X004010Y013550D01*
X003190Y013550D01*
X003025Y013481D01*
X002899Y013355D01*
X002830Y013190D01*
X002830Y013010D01*
X002899Y012845D01*
X003025Y012719D01*
X003190Y012650D01*
X003795Y012650D01*
X003895Y012550D01*
X003190Y012550D01*
X003025Y012481D01*
X002899Y012355D01*
X002830Y012190D01*
X002830Y012010D01*
X002899Y011845D01*
X002780Y011845D01*
X002780Y011747D02*
X002997Y011747D01*
X003025Y011719D02*
X003190Y011650D01*
X004010Y011650D01*
X004175Y011719D01*
X004301Y011845D01*
X007600Y011845D01*
X007525Y011920D02*
X007953Y011493D01*
X004148Y011493D01*
X004010Y011550D01*
X003190Y011550D01*
X003025Y011481D01*
X002899Y011355D01*
X002830Y011190D01*
X002830Y011010D01*
X002899Y010845D01*
X003025Y010719D01*
X003190Y010650D01*
X004010Y010650D01*
X004175Y010719D01*
X004301Y010845D01*
X004370Y011010D01*
X004370Y011133D01*
X004878Y011133D01*
X004201Y010455D01*
X004175Y010481D01*
X004010Y010550D01*
X003190Y010550D01*
X003025Y010481D01*
X002899Y010355D01*
X002830Y010190D01*
X002830Y010010D01*
X002899Y009845D01*
X002964Y009780D01*
X002780Y009780D01*
X002780Y013525D01*
X003409Y014155D01*
X003414Y014150D01*
X003786Y014150D01*
X004050Y014414D01*
X004050Y014786D01*
X003786Y015050D01*
X003414Y015050D01*
X003150Y014786D01*
X003150Y014414D01*
X003155Y014409D01*
X002420Y013675D01*
X002420Y009525D01*
X002525Y009420D01*
X002964Y009420D01*
X002899Y009355D01*
X002830Y009190D01*
X002830Y009010D01*
X002899Y008845D01*
X003025Y008719D01*
X003190Y008650D01*
X003895Y008650D01*
X003795Y008550D01*
X003190Y008550D01*
X003025Y008481D01*
X002899Y008355D01*
X002830Y008190D01*
X002830Y008010D01*
X002899Y007845D01*
X003025Y007719D01*
X003190Y007650D01*
X003895Y007650D01*
X003795Y007550D01*
X003190Y007550D01*
X003025Y007481D01*
X002899Y007355D01*
X002830Y007190D01*
X002830Y007010D01*
X002899Y006845D01*
X003025Y006719D01*
X003190Y006650D01*
X003895Y006650D01*
X003795Y006550D01*
X003190Y006550D01*
X003025Y006481D01*
X002899Y006355D01*
X002830Y006190D01*
X002830Y006010D01*
X002899Y005845D01*
X003025Y005719D01*
X003190Y005650D01*
X004010Y005650D01*
X004175Y005719D01*
X004301Y005845D01*
X004370Y006010D01*
X004370Y006190D01*
X004301Y006355D01*
X004236Y006420D01*
X008175Y006420D01*
X008280Y006525D01*
X010280Y008525D01*
X010771Y008525D01*
X008025Y005780D01*
X005525Y005780D01*
X005025Y005280D01*
X003448Y005280D01*
X003448Y005372D01*
X003372Y005448D01*
X002828Y005448D01*
X002752Y005372D01*
X002752Y004828D01*
X002828Y004752D01*
X003372Y004752D01*
X003448Y004828D01*
X003448Y004920D01*
X005175Y004920D01*
X005280Y005025D01*
X005675Y005420D01*
X006340Y005420D01*
X006190Y005270D01*
X006190Y004945D01*
X005420Y004175D01*
X005420Y003333D01*
X005345Y003301D01*
X005219Y003175D01*
X005150Y003010D01*
X005150Y002190D01*
X005219Y002025D01*
X005345Y001899D01*
X005510Y001830D01*
X005690Y001830D01*
X005855Y001899D01*
X005981Y002025D01*
X006050Y002190D01*
X006050Y003010D01*
X005981Y003175D01*
X005855Y003301D01*
X005780Y003333D01*
X005780Y004025D01*
X006445Y004690D01*
X006770Y004690D01*
X007010Y004930D01*
X007010Y005270D01*
X006860Y005420D01*
X008175Y005420D01*
X008280Y005525D01*
X011205Y008451D01*
X011205Y008505D01*
X011222Y008505D01*
X011222Y008599D01*
X011222Y008599D01*
X011222Y008505D01*
X011239Y008505D01*
X011239Y004707D01*
X012158Y003787D01*
X012155Y003784D01*
X012155Y003416D01*
X012416Y003155D01*
X012784Y003155D01*
X012920Y003291D01*
X012920Y002175D01*
X012787Y002042D01*
X012784Y002045D01*
X012416Y002045D01*
X012155Y001784D01*
X012155Y001416D01*
X012416Y001155D01*
X012784Y001155D01*
X013045Y001416D01*
X013045Y001784D01*
X013042Y001787D01*
X013175Y001920D01*
X013280Y002025D01*
X013280Y004175D01*
X013175Y004280D01*
X012448Y005006D01*
X012448Y005372D01*
X012372Y005448D01*
X012280Y005448D01*
X012280Y005534D01*
X012310Y005546D01*
X012414Y005650D01*
X012470Y005786D01*
X012470Y006414D01*
X012414Y006550D01*
X012310Y006654D01*
X012174Y006710D01*
X012026Y006710D01*
X011993Y006696D01*
X011993Y008525D01*
X013404Y008525D01*
X013404Y006041D01*
X014655Y004791D01*
X014650Y004786D01*
X014650Y004414D01*
X014914Y004150D01*
X015286Y004150D01*
X015420Y004284D01*
X015420Y004175D01*
X015291Y004045D01*
X015286Y004050D01*
X014914Y004050D01*
X014650Y003786D01*
X014650Y003414D01*
X014914Y003150D01*
X015286Y003150D01*
X015291Y003155D01*
X016690Y001755D01*
X016690Y001430D01*
X016930Y001190D01*
X017270Y001190D01*
X017510Y001430D01*
X017510Y001770D01*
X017270Y002010D01*
X016945Y002010D01*
X015545Y003409D01*
X015550Y003414D01*
X015550Y003786D01*
X015545Y003791D01*
X015780Y004025D01*
X015780Y004284D01*
X015914Y004150D01*
X016286Y004150D01*
X016420Y004284D01*
X016420Y004025D01*
X016655Y003791D01*
X016650Y003786D01*
X016650Y003414D01*
X016914Y003150D01*
X017286Y003150D01*
X017550Y003414D01*
X017550Y003786D01*
X017286Y004050D01*
X016914Y004050D01*
X016909Y004045D01*
X016780Y004175D01*
X016780Y004284D01*
X016914Y004150D01*
X017286Y004150D01*
X017420Y004284D01*
X017420Y004025D01*
X017655Y003791D01*
X017650Y003786D01*
X017650Y003414D01*
X017914Y003150D01*
X018286Y003150D01*
X018550Y003414D01*
X018550Y003786D01*
X018286Y004050D01*
X017914Y004050D01*
X017909Y004045D01*
X017780Y004175D01*
X017780Y004284D01*
X017914Y004150D01*
X018286Y004150D01*
X018550Y004414D01*
X018550Y004420D01*
X018650Y004420D01*
X018650Y004414D01*
X018914Y004150D01*
X019286Y004150D01*
X019550Y004414D01*
X019550Y004420D01*
X021175Y004420D01*
X021280Y004525D01*
X021780Y005025D01*
X021780Y013175D01*
X021675Y013280D01*
X021425Y013530D01*
X020285Y013530D01*
X020373Y013618D02*
X022100Y013618D01*
X022100Y013520D02*
X021435Y013520D01*
X021534Y013421D02*
X022100Y013421D01*
X022100Y013323D02*
X021632Y013323D01*
X021731Y013224D02*
X022100Y013224D01*
X022100Y013126D02*
X021780Y013126D01*
X021780Y013027D02*
X022100Y013027D01*
X022100Y012929D02*
X021780Y012929D01*
X021780Y012830D02*
X022100Y012830D01*
X022100Y012732D02*
X021780Y012732D01*
X021780Y012633D02*
X022100Y012633D01*
X022100Y012535D02*
X021780Y012535D01*
X021780Y012436D02*
X022100Y012436D01*
X022100Y012338D02*
X021780Y012338D01*
X021780Y012239D02*
X022100Y012239D01*
X022100Y012141D02*
X021780Y012141D01*
X021780Y012042D02*
X022100Y012042D01*
X022100Y011944D02*
X021780Y011944D01*
X021780Y011845D02*
X022100Y011845D01*
X022100Y011747D02*
X021780Y011747D01*
X021780Y011648D02*
X022100Y011648D01*
X022100Y011550D02*
X021780Y011550D01*
X021780Y011451D02*
X022100Y011451D01*
X022100Y011353D02*
X021780Y011353D01*
X021780Y011254D02*
X022100Y011254D01*
X022100Y011156D02*
X021780Y011156D01*
X021780Y011057D02*
X022100Y011057D01*
X022100Y010959D02*
X021780Y010959D01*
X021780Y010860D02*
X022100Y010860D01*
X022100Y010762D02*
X021780Y010762D01*
X021780Y010663D02*
X022100Y010663D01*
X022100Y010565D02*
X021780Y010565D01*
X021780Y010466D02*
X022100Y010466D01*
X022100Y010368D02*
X021780Y010368D01*
X021780Y010269D02*
X022100Y010269D01*
X022100Y010171D02*
X021780Y010171D01*
X021780Y010072D02*
X022100Y010072D01*
X022100Y009974D02*
X021780Y009974D01*
X021780Y009875D02*
X022100Y009875D01*
X022100Y009777D02*
X021780Y009777D01*
X021780Y009678D02*
X022100Y009678D01*
X022100Y009580D02*
X021780Y009580D01*
X021780Y009481D02*
X022100Y009481D01*
X022100Y009383D02*
X021780Y009383D01*
X021780Y009284D02*
X022100Y009284D01*
X022100Y009186D02*
X021780Y009186D01*
X021780Y009087D02*
X022100Y009087D01*
X022100Y008989D02*
X021780Y008989D01*
X021780Y008890D02*
X022100Y008890D01*
X022100Y008792D02*
X021780Y008792D01*
X021780Y008693D02*
X022100Y008693D01*
X022100Y008595D02*
X021780Y008595D01*
X021780Y008496D02*
X022100Y008496D01*
X022100Y008398D02*
X021780Y008398D01*
X021780Y008299D02*
X022100Y008299D01*
X022100Y008201D02*
X021780Y008201D01*
X021780Y008102D02*
X022100Y008102D01*
X022100Y008004D02*
X021780Y008004D01*
X021780Y007905D02*
X022100Y007905D01*
X022100Y007807D02*
X021780Y007807D01*
X021780Y007708D02*
X022100Y007708D01*
X022100Y007610D02*
X021780Y007610D01*
X021780Y007511D02*
X022100Y007511D01*
X022100Y007413D02*
X021780Y007413D01*
X021780Y007314D02*
X022100Y007314D01*
X022100Y007216D02*
X021780Y007216D01*
X021780Y007117D02*
X022100Y007117D01*
X022100Y007019D02*
X021780Y007019D01*
X021780Y006920D02*
X022100Y006920D01*
X022100Y006822D02*
X021780Y006822D01*
X021780Y006723D02*
X022100Y006723D01*
X022100Y006625D02*
X021780Y006625D01*
X021780Y006526D02*
X022100Y006526D01*
X022100Y006428D02*
X021780Y006428D01*
X021780Y006329D02*
X022100Y006329D01*
X022100Y006231D02*
X021780Y006231D01*
X021780Y006132D02*
X022100Y006132D01*
X022100Y006034D02*
X021780Y006034D01*
X021780Y005935D02*
X022100Y005935D01*
X022100Y005837D02*
X021780Y005837D01*
X021780Y005738D02*
X022100Y005738D01*
X022100Y005640D02*
X021780Y005640D01*
X021780Y005541D02*
X022100Y005541D01*
X022100Y005443D02*
X021780Y005443D01*
X021780Y005344D02*
X022100Y005344D01*
X022100Y005246D02*
X021780Y005246D01*
X021780Y005147D02*
X022100Y005147D01*
X022100Y005049D02*
X021780Y005049D01*
X021705Y004950D02*
X022100Y004950D01*
X022100Y004852D02*
X021606Y004852D01*
X021508Y004753D02*
X022100Y004753D01*
X022100Y004655D02*
X021409Y004655D01*
X021311Y004556D02*
X022100Y004556D01*
X022100Y004458D02*
X021212Y004458D01*
X021100Y004600D02*
X019100Y004600D01*
X018100Y004600D01*
X018386Y004950D02*
X018814Y004950D01*
X018912Y005049D02*
X018288Y005049D01*
X018485Y004852D02*
X018715Y004852D01*
X018705Y004359D02*
X018495Y004359D01*
X018397Y004261D02*
X018803Y004261D01*
X018902Y004162D02*
X018298Y004162D01*
X018371Y003965D02*
X018829Y003965D01*
X018914Y004050D02*
X018650Y003786D01*
X018650Y003414D01*
X018914Y003150D01*
X019286Y003150D01*
X019550Y003414D01*
X019550Y003786D01*
X019286Y004050D01*
X018914Y004050D01*
X018730Y003867D02*
X018470Y003867D01*
X018550Y003768D02*
X018650Y003768D01*
X018650Y003670D02*
X018550Y003670D01*
X018550Y003571D02*
X018650Y003571D01*
X018650Y003473D02*
X018550Y003473D01*
X018510Y003374D02*
X018690Y003374D01*
X018788Y003276D02*
X018412Y003276D01*
X018313Y003177D02*
X018887Y003177D01*
X019313Y003177D02*
X022100Y003177D01*
X022100Y003079D02*
X015876Y003079D01*
X015914Y003150D02*
X016286Y003150D01*
X016550Y003414D01*
X016550Y003786D01*
X016286Y004050D01*
X015914Y004050D01*
X015650Y003786D01*
X015650Y003414D01*
X015914Y003150D01*
X015887Y003177D02*
X015778Y003177D01*
X015788Y003276D02*
X015679Y003276D01*
X015690Y003374D02*
X015581Y003374D01*
X015550Y003473D02*
X015650Y003473D01*
X015650Y003571D02*
X015550Y003571D01*
X015550Y003670D02*
X015650Y003670D01*
X015650Y003768D02*
X015550Y003768D01*
X015621Y003867D02*
X015730Y003867D01*
X015720Y003965D02*
X015829Y003965D01*
X015780Y004064D02*
X016420Y004064D01*
X016420Y004162D02*
X016298Y004162D01*
X016397Y004261D02*
X016420Y004261D01*
X016600Y004100D02*
X017100Y003600D01*
X016788Y003276D02*
X016412Y003276D01*
X016510Y003374D02*
X016690Y003374D01*
X016650Y003473D02*
X016550Y003473D01*
X016550Y003571D02*
X016650Y003571D01*
X016650Y003670D02*
X016550Y003670D01*
X016550Y003768D02*
X016650Y003768D01*
X016579Y003867D02*
X016470Y003867D01*
X016480Y003965D02*
X016371Y003965D01*
X016600Y004100D02*
X016600Y005100D01*
X014175Y007525D01*
X014175Y008950D01*
X013978Y008950D02*
X013978Y007222D01*
X016100Y005100D01*
X016100Y004600D01*
X015803Y004261D02*
X015780Y004261D01*
X015780Y004162D02*
X015902Y004162D01*
X015600Y004100D02*
X015100Y003600D01*
X017100Y001600D01*
X016716Y001404D02*
X014512Y001404D01*
X014530Y001422D02*
X014530Y001570D01*
X014130Y001570D01*
X014130Y001630D01*
X014530Y001630D01*
X014530Y001778D01*
X014278Y002030D01*
X014130Y002030D01*
X014130Y001630D01*
X014070Y001630D01*
X014070Y002030D01*
X013922Y002030D01*
X013670Y001778D01*
X013670Y001630D01*
X014070Y001630D01*
X014070Y001570D01*
X014130Y001570D01*
X014130Y001170D01*
X014278Y001170D01*
X014530Y001422D01*
X014530Y001503D02*
X016690Y001503D01*
X016690Y001601D02*
X014130Y001601D01*
X014100Y001600D02*
X013600Y001100D01*
X010600Y001100D01*
X011222Y001722D01*
X011222Y008950D01*
X011025Y008950D02*
X011025Y008525D01*
X008100Y005600D01*
X005600Y005600D01*
X005100Y005100D01*
X003100Y005100D01*
X002752Y005147D02*
X001780Y005147D01*
X001780Y005049D02*
X002752Y005049D01*
X002752Y004950D02*
X001780Y004950D01*
X001780Y004852D02*
X002752Y004852D01*
X002827Y004753D02*
X001780Y004753D01*
X001780Y004655D02*
X005900Y004655D01*
X005998Y004753D02*
X003373Y004753D01*
X003448Y004852D02*
X006097Y004852D01*
X006190Y004950D02*
X005205Y004950D01*
X005303Y005049D02*
X006190Y005049D01*
X006190Y005147D02*
X005402Y005147D01*
X005500Y005246D02*
X006190Y005246D01*
X006264Y005344D02*
X005599Y005344D01*
X005385Y005640D02*
X001780Y005640D01*
X001780Y005738D02*
X003006Y005738D01*
X002907Y005837D02*
X001780Y005837D01*
X001780Y005935D02*
X002861Y005935D01*
X002830Y006034D02*
X001780Y006034D01*
X001780Y006132D02*
X002830Y006132D01*
X002847Y006231D02*
X001780Y006231D01*
X001780Y006329D02*
X002888Y006329D01*
X002971Y006428D02*
X001780Y006428D01*
X001780Y006526D02*
X003133Y006526D01*
X003021Y006723D02*
X001780Y006723D01*
X001780Y006625D02*
X003870Y006625D01*
X004100Y006600D02*
X003600Y006100D01*
X003378Y005443D02*
X005188Y005443D01*
X005286Y005541D02*
X001780Y005541D01*
X001780Y005443D02*
X002822Y005443D01*
X002752Y005344D02*
X001780Y005344D01*
X001780Y005246D02*
X002752Y005246D01*
X003448Y005344D02*
X005089Y005344D01*
X005483Y005738D02*
X004194Y005738D01*
X004293Y005837D02*
X008082Y005837D01*
X008180Y005935D02*
X004339Y005935D01*
X004370Y006034D02*
X008279Y006034D01*
X008377Y006132D02*
X004370Y006132D01*
X004353Y006231D02*
X008476Y006231D01*
X008574Y006329D02*
X004312Y006329D01*
X004100Y006600D02*
X008100Y006600D01*
X010238Y008738D01*
X010238Y008950D01*
X010039Y008989D02*
X008743Y008989D01*
X008842Y009087D02*
X010039Y009087D01*
X010039Y009186D02*
X008940Y009186D01*
X009039Y009284D02*
X010039Y009284D01*
X010039Y009300D02*
X010039Y008793D01*
X008025Y006780D01*
X004236Y006780D01*
X004301Y006845D01*
X004370Y007010D01*
X004370Y007190D01*
X004301Y007355D01*
X004205Y007451D01*
X005175Y008420D01*
X006312Y008420D01*
X006170Y008278D01*
X006170Y008130D01*
X006570Y008130D01*
X006570Y008070D01*
X006630Y008070D01*
X006630Y008130D01*
X007030Y008130D01*
X007030Y008278D01*
X006888Y008420D01*
X008175Y008420D01*
X008280Y008525D01*
X009293Y009539D01*
X009800Y009539D01*
X009876Y009615D01*
X009876Y011920D01*
X012275Y011920D01*
X014820Y009376D01*
X014643Y009376D01*
X011366Y009376D01*
X011349Y009385D01*
X011311Y009396D01*
X011222Y009396D01*
X011133Y009396D01*
X011095Y009385D01*
X011078Y009376D01*
X010115Y009376D01*
X010039Y009300D01*
X010039Y008890D02*
X008645Y008890D01*
X008546Y008792D02*
X010037Y008792D01*
X009938Y008693D02*
X008448Y008693D01*
X008349Y008595D02*
X009840Y008595D01*
X009741Y008496D02*
X008251Y008496D01*
X008100Y008600D02*
X005100Y008600D01*
X003600Y007100D01*
X003855Y007610D02*
X001780Y007610D01*
X001780Y007708D02*
X003050Y007708D01*
X002937Y007807D02*
X001780Y007807D01*
X001780Y007905D02*
X002874Y007905D01*
X002833Y008004D02*
X001780Y008004D01*
X001780Y008102D02*
X002830Y008102D01*
X002835Y008201D02*
X001780Y008201D01*
X001780Y008299D02*
X002875Y008299D01*
X002941Y008398D02*
X001780Y008398D01*
X001780Y008496D02*
X003060Y008496D01*
X003087Y008693D02*
X001780Y008693D01*
X001780Y008595D02*
X003840Y008595D01*
X003600Y008100D02*
X004600Y009100D01*
X008100Y009100D01*
X008935Y009935D01*
X009450Y009935D01*
X009450Y010131D02*
X008631Y010131D01*
X007850Y009350D01*
X004350Y009350D01*
X004100Y009100D01*
X003600Y009100D01*
X002952Y008792D02*
X001780Y008792D01*
X001780Y008890D02*
X002880Y008890D01*
X002839Y008989D02*
X001780Y008989D01*
X001780Y009087D02*
X002830Y009087D01*
X002830Y009186D02*
X001780Y009186D01*
X001780Y009284D02*
X002869Y009284D01*
X002926Y009383D02*
X001780Y009383D01*
X001780Y009481D02*
X002464Y009481D01*
X002420Y009580D02*
X001780Y009580D01*
X001780Y009678D02*
X002420Y009678D01*
X002420Y009777D02*
X001780Y009777D01*
X001780Y009875D02*
X002420Y009875D01*
X002420Y009974D02*
X001780Y009974D01*
X001780Y010072D02*
X002420Y010072D01*
X002420Y010171D02*
X001780Y010171D01*
X001780Y010269D02*
X002420Y010269D01*
X002420Y010368D02*
X001780Y010368D01*
X001780Y010466D02*
X002420Y010466D01*
X002420Y010565D02*
X001780Y010565D01*
X001780Y010663D02*
X002420Y010663D01*
X002420Y010762D02*
X001780Y010762D01*
X001780Y010860D02*
X002420Y010860D01*
X002420Y010959D02*
X001780Y010959D01*
X001780Y011057D02*
X002420Y011057D01*
X002420Y011156D02*
X001780Y011156D01*
X001780Y011254D02*
X002420Y011254D01*
X002420Y011353D02*
X001780Y011353D01*
X001780Y011451D02*
X002420Y011451D01*
X002420Y011550D02*
X001780Y011550D01*
X001780Y011648D02*
X002420Y011648D01*
X002420Y011747D02*
X001780Y011747D01*
X001780Y011845D02*
X002420Y011845D01*
X002420Y011944D02*
X001780Y011944D01*
X001780Y012042D02*
X002420Y012042D01*
X002420Y012141D02*
X001780Y012141D01*
X001780Y012239D02*
X002420Y012239D01*
X002420Y012338D02*
X001780Y012338D01*
X001780Y012436D02*
X002420Y012436D01*
X002420Y012535D02*
X001780Y012535D01*
X001780Y012633D02*
X002420Y012633D01*
X002420Y012732D02*
X001780Y012732D01*
X001780Y012830D02*
X002420Y012830D01*
X002420Y012929D02*
X001780Y012929D01*
X001780Y013027D02*
X002420Y013027D01*
X002420Y013126D02*
X001780Y013126D01*
X001780Y013224D02*
X002420Y013224D01*
X002420Y013323D02*
X001780Y013323D01*
X001780Y013421D02*
X002420Y013421D01*
X002420Y013520D02*
X001780Y013520D01*
X001780Y013618D02*
X002420Y013618D01*
X002462Y013717D02*
X001780Y013717D01*
X001780Y013815D02*
X002560Y013815D01*
X002659Y013914D02*
X001780Y013914D01*
X001780Y014012D02*
X002757Y014012D01*
X002795Y014130D02*
X002650Y014130D01*
X002650Y014550D01*
X002650Y014650D01*
X002550Y014650D01*
X002550Y015070D01*
X002405Y015070D01*
X002130Y014795D01*
X002130Y014650D01*
X002550Y014650D01*
X002550Y014550D01*
X002130Y014550D01*
X002130Y014405D01*
X002405Y014130D01*
X002550Y014130D01*
X002550Y014550D01*
X002650Y014550D01*
X003070Y014550D01*
X003070Y014405D01*
X002795Y014130D01*
X002856Y014111D02*
X001780Y014111D01*
X001780Y014209D02*
X002326Y014209D01*
X002228Y014308D02*
X001780Y014308D01*
X001780Y014406D02*
X002130Y014406D01*
X002130Y014505D02*
X001780Y014505D01*
X001780Y014603D02*
X002550Y014603D01*
X002600Y014600D02*
X003100Y015100D01*
X006100Y015100D01*
X006100Y018100D01*
X006100Y019600D01*
X005600Y019100D01*
X003600Y019100D01*
X003650Y019134D02*
X007920Y019134D01*
X007920Y019036D02*
X004386Y019036D01*
X004388Y019050D02*
X003650Y019050D01*
X003650Y019150D01*
X003550Y019150D01*
X003550Y019050D01*
X003650Y019050D01*
X003650Y018630D01*
X003957Y018630D01*
X004030Y018642D01*
X004100Y018664D01*
X004166Y018698D01*
X004226Y018742D01*
X004278Y018794D01*
X004322Y018854D01*
X004356Y018920D01*
X004378Y018990D01*
X004388Y019050D01*
X004388Y019150D02*
X004378Y019210D01*
X004356Y019280D01*
X004322Y019346D01*
X004278Y019406D01*
X004226Y019458D01*
X004166Y019502D01*
X004100Y019536D01*
X004030Y019558D01*
X003957Y019570D01*
X003650Y019570D01*
X003650Y019150D01*
X004388Y019150D01*
X004371Y019233D02*
X005810Y019233D01*
X005907Y019135D02*
X005635Y019407D01*
X005635Y019570D01*
X006070Y019570D01*
X006070Y019135D01*
X005907Y019135D01*
X006070Y019233D02*
X006130Y019233D01*
X006130Y019135D02*
X006293Y019135D01*
X006565Y019407D01*
X006565Y019570D01*
X006130Y019570D01*
X006130Y019135D01*
X006130Y019331D02*
X006070Y019331D01*
X006070Y019430D02*
X006130Y019430D01*
X006130Y019528D02*
X006070Y019528D01*
X006070Y019627D02*
X003381Y019627D01*
X003550Y019528D02*
X003650Y019528D01*
X003650Y019430D02*
X003550Y019430D01*
X003550Y019331D02*
X003650Y019331D01*
X003650Y019233D02*
X003550Y019233D01*
X003550Y019134D02*
X002889Y019134D01*
X002812Y019050D02*
X002822Y018990D01*
X002844Y018920D01*
X002878Y018854D01*
X002922Y018794D01*
X002974Y018742D01*
X003034Y018698D01*
X003100Y018664D01*
X003170Y018642D01*
X003243Y018630D01*
X003550Y018630D01*
X003550Y019050D01*
X002812Y019050D01*
X002814Y019036D02*
X002790Y019036D01*
X002780Y018937D02*
X002839Y018937D01*
X002889Y018839D02*
X002780Y018839D01*
X002780Y018740D02*
X002976Y018740D01*
X003170Y018642D02*
X002780Y018642D01*
X002780Y018543D02*
X005885Y018543D01*
X005907Y018565D02*
X005635Y018293D01*
X005635Y018130D01*
X006070Y018130D01*
X006070Y018565D01*
X005907Y018565D01*
X006070Y018543D02*
X006130Y018543D01*
X006130Y018565D02*
X006293Y018565D01*
X006565Y018293D01*
X006565Y018130D01*
X006130Y018130D01*
X006130Y018070D01*
X006565Y018070D01*
X006565Y017907D01*
X006293Y017635D01*
X006130Y017635D01*
X006130Y018070D01*
X006070Y018070D01*
X006070Y017635D01*
X005907Y017635D01*
X005635Y017907D01*
X005635Y018070D01*
X006070Y018070D01*
X006070Y018130D01*
X006130Y018130D01*
X006130Y018565D01*
X006130Y018445D02*
X006070Y018445D01*
X006070Y018346D02*
X006130Y018346D01*
X006130Y018248D02*
X006070Y018248D01*
X006070Y018149D02*
X006130Y018149D01*
X006130Y018051D02*
X006070Y018051D01*
X006070Y017952D02*
X006130Y017952D01*
X006130Y017854D02*
X006070Y017854D01*
X006070Y017755D02*
X006130Y017755D01*
X006130Y017657D02*
X006070Y017657D01*
X005886Y017657D02*
X002780Y017657D01*
X002780Y017755D02*
X005787Y017755D01*
X005689Y017854D02*
X002780Y017854D01*
X002780Y017952D02*
X005635Y017952D01*
X005635Y018051D02*
X002780Y018051D01*
X002780Y018149D02*
X005635Y018149D01*
X005635Y018248D02*
X002780Y018248D01*
X002780Y018346D02*
X005688Y018346D01*
X005787Y018445D02*
X002780Y018445D01*
X002420Y018445D02*
X000600Y018445D01*
X000600Y018543D02*
X002420Y018543D01*
X002420Y018642D02*
X000600Y018642D01*
X000600Y018740D02*
X002420Y018740D01*
X002420Y018839D02*
X000600Y018839D01*
X000600Y018937D02*
X002420Y018937D01*
X002420Y019036D02*
X000600Y019036D01*
X000600Y019134D02*
X002420Y019134D01*
X002478Y019233D02*
X000600Y019233D01*
X000600Y019331D02*
X002577Y019331D01*
X002675Y019430D02*
X000600Y019430D01*
X000600Y019528D02*
X002774Y019528D01*
X002872Y019627D02*
X000600Y019627D01*
X000600Y019725D02*
X002971Y019725D01*
X002920Y019824D02*
X000600Y019824D01*
X000600Y019922D02*
X002867Y019922D01*
X002830Y020021D02*
X000600Y020021D01*
X000600Y020119D02*
X002830Y020119D01*
X002842Y020218D02*
X000600Y020218D01*
X000600Y020316D02*
X002882Y020316D01*
X002958Y020415D02*
X000600Y020415D01*
X000600Y020513D02*
X003101Y020513D01*
X003190Y020650D02*
X003025Y020719D01*
X002899Y020845D01*
X002830Y021010D01*
X002830Y021190D01*
X002899Y021355D01*
X003025Y021481D01*
X003190Y021550D01*
X004010Y021550D01*
X004175Y021481D01*
X004301Y021355D01*
X004370Y021190D01*
X004370Y021010D01*
X004301Y020845D01*
X004175Y020719D01*
X004010Y020650D01*
X003190Y020650D01*
X003045Y020710D02*
X000710Y020710D01*
X000612Y020612D02*
X010834Y020612D01*
X010823Y020513D02*
X010845Y020513D01*
X011025Y020675D02*
X010600Y021100D01*
X010255Y020809D02*
X004265Y020809D01*
X004327Y020907D02*
X010157Y020907D01*
X010150Y021006D02*
X004368Y021006D01*
X004370Y021104D02*
X010150Y021104D01*
X010150Y021203D02*
X004365Y021203D01*
X004324Y021301D02*
X010165Y021301D01*
X010263Y021400D02*
X004257Y021400D01*
X004135Y021498D02*
X010362Y021498D01*
X010100Y021600D02*
X009600Y021100D01*
X009600Y016100D01*
X010238Y015462D01*
X010238Y015250D01*
X010019Y015293D02*
X008537Y015293D01*
X008438Y015391D02*
X010019Y015391D01*
X010019Y015490D02*
X008340Y015490D01*
X008280Y015588D02*
X010025Y015588D01*
X010118Y015687D02*
X008280Y015687D01*
X008280Y015785D02*
X010648Y015785D01*
X010648Y015687D02*
X010358Y015687D01*
X010238Y015687D02*
X010238Y015687D01*
X010463Y015982D02*
X008280Y015982D01*
X008280Y015884D02*
X010562Y015884D01*
X010600Y016100D02*
X010600Y020100D01*
X010278Y020415D02*
X004242Y020415D01*
X004318Y020316D02*
X010180Y020316D01*
X010150Y020218D02*
X007737Y020218D01*
X007835Y020119D02*
X010150Y020119D01*
X010150Y020021D02*
X008309Y020021D01*
X008407Y019922D02*
X010150Y019922D01*
X010240Y019824D02*
X008506Y019824D01*
X008545Y019725D02*
X010339Y019725D01*
X010420Y019627D02*
X008545Y019627D01*
X008545Y019528D02*
X010420Y019528D01*
X010420Y019430D02*
X008545Y019430D01*
X008460Y019331D02*
X010420Y019331D01*
X010420Y019233D02*
X008362Y019233D01*
X008280Y019134D02*
X010420Y019134D01*
X010420Y019036D02*
X008280Y019036D01*
X008280Y018937D02*
X010420Y018937D01*
X010420Y018839D02*
X008280Y018839D01*
X008280Y018740D02*
X010420Y018740D01*
X010420Y018642D02*
X008280Y018642D01*
X008286Y018543D02*
X010420Y018543D01*
X010420Y018445D02*
X008385Y018445D01*
X008483Y018346D02*
X010420Y018346D01*
X010420Y018248D02*
X008545Y018248D01*
X008545Y018149D02*
X010420Y018149D01*
X010420Y018051D02*
X008545Y018051D01*
X008545Y017952D02*
X010420Y017952D01*
X010420Y017854D02*
X008483Y017854D01*
X008384Y017755D02*
X010420Y017755D01*
X010420Y017657D02*
X008286Y017657D01*
X008280Y017558D02*
X010420Y017558D01*
X010420Y017460D02*
X008280Y017460D01*
X008280Y017361D02*
X010420Y017361D01*
X010420Y017263D02*
X008280Y017263D01*
X008280Y017164D02*
X010420Y017164D01*
X010420Y017066D02*
X008280Y017066D01*
X008362Y016967D02*
X010420Y016967D01*
X010420Y016869D02*
X008461Y016869D01*
X008545Y016770D02*
X010420Y016770D01*
X010420Y016672D02*
X008545Y016672D01*
X008545Y016573D02*
X010420Y016573D01*
X010420Y016475D02*
X008545Y016475D01*
X008505Y016376D02*
X010420Y016376D01*
X010420Y016278D02*
X008407Y016278D01*
X008308Y016179D02*
X010420Y016179D01*
X010420Y016081D02*
X008280Y016081D01*
X007920Y016081D02*
X007280Y016081D01*
X007280Y016179D02*
X007892Y016179D01*
X007793Y016278D02*
X007280Y016278D01*
X007280Y016376D02*
X007695Y016376D01*
X007655Y016475D02*
X007280Y016475D01*
X007280Y016573D02*
X007655Y016573D01*
X007655Y016672D02*
X007280Y016672D01*
X007390Y016770D02*
X007655Y016770D01*
X007739Y016869D02*
X007448Y016869D01*
X007448Y016967D02*
X007838Y016967D01*
X007920Y017066D02*
X007448Y017066D01*
X007448Y017164D02*
X007920Y017164D01*
X007920Y017263D02*
X007448Y017263D01*
X007448Y017361D02*
X007920Y017361D01*
X007920Y017460D02*
X002780Y017460D01*
X002780Y017558D02*
X007920Y017558D01*
X007914Y017657D02*
X006314Y017657D01*
X006413Y017755D02*
X007816Y017755D01*
X007717Y017854D02*
X006511Y017854D01*
X006565Y017952D02*
X007655Y017952D01*
X007655Y018051D02*
X006565Y018051D01*
X006565Y018149D02*
X007655Y018149D01*
X007655Y018248D02*
X006565Y018248D01*
X006512Y018346D02*
X007717Y018346D01*
X007815Y018445D02*
X006413Y018445D01*
X006315Y018543D02*
X007914Y018543D01*
X007920Y018642D02*
X004030Y018642D01*
X004224Y018740D02*
X007920Y018740D01*
X007920Y018839D02*
X004311Y018839D01*
X004361Y018937D02*
X007920Y018937D01*
X007838Y019233D02*
X006390Y019233D01*
X006489Y019331D02*
X007740Y019331D01*
X007655Y019430D02*
X006565Y019430D01*
X006565Y019528D02*
X007655Y019528D01*
X007655Y019627D02*
X006130Y019627D01*
X006534Y019824D02*
X007622Y019824D01*
X007655Y019725D02*
X006565Y019725D01*
X005666Y019824D02*
X004280Y019824D01*
X004181Y019725D02*
X005635Y019725D01*
X005635Y019528D02*
X004115Y019528D01*
X004255Y019430D02*
X005635Y019430D01*
X005711Y019331D02*
X004330Y019331D01*
X003650Y019036D02*
X003550Y019036D01*
X003550Y018937D02*
X003650Y018937D01*
X003650Y018839D02*
X003550Y018839D01*
X003550Y018740D02*
X003650Y018740D01*
X003650Y018642D02*
X003550Y018642D01*
X002420Y018346D02*
X000600Y018346D01*
X000600Y018248D02*
X002420Y018248D01*
X002420Y018149D02*
X000600Y018149D01*
X000600Y018051D02*
X002420Y018051D01*
X002420Y017952D02*
X000600Y017952D01*
X000600Y017854D02*
X002420Y017854D01*
X002420Y017755D02*
X000600Y017755D01*
X000600Y017657D02*
X002420Y017657D01*
X002420Y017558D02*
X000600Y017558D01*
X000600Y017460D02*
X002420Y017460D01*
X002420Y017361D02*
X000600Y017361D01*
X000600Y017263D02*
X002420Y017263D01*
X002420Y017164D02*
X000600Y017164D01*
X000600Y017066D02*
X002420Y017066D01*
X002331Y016967D02*
X000600Y016967D01*
X000600Y016869D02*
X002232Y016869D01*
X002150Y016770D02*
X000600Y016770D01*
X000600Y016672D02*
X002150Y016672D01*
X002150Y016573D02*
X000600Y016573D01*
X000600Y016475D02*
X002150Y016475D01*
X002121Y016376D02*
X000600Y016376D01*
X000600Y016278D02*
X002023Y016278D01*
X001924Y016179D02*
X000600Y016179D01*
X000600Y016081D02*
X001826Y016081D01*
X001727Y015982D02*
X000600Y015982D01*
X000600Y015884D02*
X001629Y015884D01*
X001530Y015785D02*
X000600Y015785D01*
X000600Y015687D02*
X001432Y015687D01*
X001420Y015588D02*
X000600Y015588D01*
X000600Y015490D02*
X001420Y015490D01*
X001420Y015391D02*
X000600Y015391D01*
X000600Y015293D02*
X001420Y015293D01*
X001420Y015194D02*
X000600Y015194D01*
X000600Y015096D02*
X001420Y015096D01*
X001420Y014997D02*
X000600Y014997D01*
X000600Y014899D02*
X001420Y014899D01*
X001420Y014800D02*
X000600Y014800D01*
X000600Y014702D02*
X001420Y014702D01*
X001420Y014603D02*
X000600Y014603D01*
X000600Y014505D02*
X001420Y014505D01*
X001420Y014406D02*
X000600Y014406D01*
X000600Y014308D02*
X001420Y014308D01*
X001420Y014209D02*
X000600Y014209D01*
X000600Y014111D02*
X001420Y014111D01*
X001420Y014012D02*
X000600Y014012D01*
X000600Y013914D02*
X001420Y013914D01*
X001420Y013815D02*
X000600Y013815D01*
X000600Y013717D02*
X001420Y013717D01*
X001420Y013618D02*
X000600Y013618D01*
X000600Y013520D02*
X001420Y013520D01*
X001420Y013421D02*
X000600Y013421D01*
X000600Y013323D02*
X001420Y013323D01*
X001420Y013224D02*
X000600Y013224D01*
X000600Y013126D02*
X001420Y013126D01*
X001420Y013027D02*
X000600Y013027D01*
X000600Y012929D02*
X001420Y012929D01*
X001420Y012830D02*
X000600Y012830D01*
X000600Y012732D02*
X001420Y012732D01*
X001420Y012633D02*
X000600Y012633D01*
X000600Y012535D02*
X001420Y012535D01*
X001420Y012436D02*
X000600Y012436D01*
X000600Y012338D02*
X001420Y012338D01*
X001420Y012239D02*
X000600Y012239D01*
X000600Y012141D02*
X001420Y012141D01*
X001420Y012042D02*
X000600Y012042D01*
X000600Y011944D02*
X001420Y011944D01*
X001420Y011845D02*
X000600Y011845D01*
X000600Y011747D02*
X001420Y011747D01*
X001420Y011648D02*
X000600Y011648D01*
X000600Y011550D02*
X001420Y011550D01*
X001420Y011451D02*
X000600Y011451D01*
X000600Y011353D02*
X001420Y011353D01*
X001420Y011254D02*
X000600Y011254D01*
X000600Y011156D02*
X001420Y011156D01*
X001420Y011057D02*
X000600Y011057D01*
X000600Y010959D02*
X001420Y010959D01*
X001420Y010860D02*
X000600Y010860D01*
X000600Y010762D02*
X001420Y010762D01*
X001420Y010663D02*
X000600Y010663D01*
X000600Y010565D02*
X001420Y010565D01*
X001420Y010466D02*
X000600Y010466D01*
X000600Y010368D02*
X001420Y010368D01*
X001420Y010269D02*
X000600Y010269D01*
X000600Y010171D02*
X001420Y010171D01*
X001420Y010072D02*
X000600Y010072D01*
X000600Y009974D02*
X001420Y009974D01*
X001420Y009875D02*
X000600Y009875D01*
X000600Y009777D02*
X001420Y009777D01*
X001420Y009678D02*
X000600Y009678D01*
X000600Y009580D02*
X001420Y009580D01*
X001420Y009481D02*
X000600Y009481D01*
X000600Y009383D02*
X001420Y009383D01*
X001420Y009284D02*
X000600Y009284D01*
X000600Y009186D02*
X001420Y009186D01*
X001420Y009087D02*
X000600Y009087D01*
X000600Y008989D02*
X001420Y008989D01*
X001420Y008890D02*
X000600Y008890D01*
X000600Y008792D02*
X001420Y008792D01*
X001420Y008693D02*
X000600Y008693D01*
X000600Y008595D02*
X001420Y008595D01*
X001420Y008496D02*
X000600Y008496D01*
X000600Y008398D02*
X001420Y008398D01*
X001420Y008299D02*
X000600Y008299D01*
X000600Y008201D02*
X001420Y008201D01*
X001420Y008102D02*
X000600Y008102D01*
X000600Y008004D02*
X001420Y008004D01*
X001420Y007905D02*
X000600Y007905D01*
X000600Y007807D02*
X001420Y007807D01*
X001420Y007708D02*
X000600Y007708D01*
X000600Y007610D02*
X001420Y007610D01*
X001420Y007511D02*
X000600Y007511D01*
X000600Y007413D02*
X001420Y007413D01*
X001420Y007314D02*
X000600Y007314D01*
X000600Y007216D02*
X001420Y007216D01*
X001420Y007117D02*
X000600Y007117D01*
X000600Y007019D02*
X001420Y007019D01*
X001420Y006920D02*
X000600Y006920D01*
X000600Y006822D02*
X001420Y006822D01*
X001420Y006723D02*
X000600Y006723D01*
X000600Y006625D02*
X001420Y006625D01*
X001420Y006526D02*
X000600Y006526D01*
X000600Y006428D02*
X001420Y006428D01*
X001420Y006329D02*
X000600Y006329D01*
X000600Y006231D02*
X001420Y006231D01*
X001420Y006132D02*
X000600Y006132D01*
X000600Y006034D02*
X001420Y006034D01*
X001420Y005935D02*
X000600Y005935D01*
X000600Y005837D02*
X001420Y005837D01*
X001420Y005738D02*
X000600Y005738D01*
X000600Y005640D02*
X001420Y005640D01*
X001420Y005541D02*
X000600Y005541D01*
X000600Y005443D02*
X001420Y005443D01*
X001420Y005344D02*
X000600Y005344D01*
X000600Y005246D02*
X001420Y005246D01*
X001420Y005147D02*
X000600Y005147D01*
X000600Y005049D02*
X001420Y005049D01*
X001420Y004950D02*
X000600Y004950D01*
X000600Y004852D02*
X001420Y004852D01*
X001420Y004753D02*
X000600Y004753D01*
X000600Y004655D02*
X001420Y004655D01*
X001420Y004556D02*
X000600Y004556D01*
X000600Y004458D02*
X001420Y004458D01*
X001420Y004359D02*
X000600Y004359D01*
X000600Y004261D02*
X001420Y004261D01*
X001420Y004162D02*
X000600Y004162D01*
X000600Y004064D02*
X001420Y004064D01*
X001480Y003965D02*
X000600Y003965D01*
X000600Y003867D02*
X001579Y003867D01*
X001677Y003768D02*
X000600Y003768D01*
X000600Y003670D02*
X001776Y003670D01*
X001874Y003571D02*
X000600Y003571D01*
X000600Y003473D02*
X001973Y003473D01*
X002071Y003374D02*
X000600Y003374D01*
X000600Y003276D02*
X001819Y003276D01*
X001721Y003177D02*
X000600Y003177D01*
X000600Y003079D02*
X001679Y003079D01*
X001650Y002980D02*
X000600Y002980D01*
X000600Y002882D02*
X001650Y002882D01*
X001650Y002783D02*
X000600Y002783D01*
X000600Y002685D02*
X001650Y002685D01*
X001650Y002586D02*
X000600Y002586D01*
X000600Y002488D02*
X001650Y002488D01*
X001650Y002389D02*
X000600Y002389D01*
X000600Y002291D02*
X001650Y002291D01*
X001650Y002192D02*
X000600Y002192D01*
X000600Y002094D02*
X001690Y002094D01*
X001749Y001995D02*
X000600Y001995D01*
X000600Y001897D02*
X001850Y001897D01*
X002350Y001897D02*
X002850Y001897D01*
X002749Y001995D02*
X002451Y001995D01*
X002510Y002094D02*
X002690Y002094D01*
X002650Y002192D02*
X002550Y002192D01*
X002550Y002291D02*
X002650Y002291D01*
X002650Y002389D02*
X002550Y002389D01*
X002550Y002488D02*
X002650Y002488D01*
X002650Y002586D02*
X002550Y002586D01*
X002550Y002685D02*
X002650Y002685D01*
X002650Y002783D02*
X002550Y002783D01*
X002550Y002882D02*
X002564Y002882D01*
X002679Y003276D02*
X002819Y003276D01*
X002581Y003374D02*
X005420Y003374D01*
X005420Y003473D02*
X002482Y003473D01*
X002384Y003571D02*
X005420Y003571D01*
X005420Y003670D02*
X002285Y003670D01*
X002187Y003768D02*
X005420Y003768D01*
X005420Y003867D02*
X002088Y003867D01*
X001990Y003965D02*
X005420Y003965D01*
X005420Y004064D02*
X001891Y004064D01*
X001793Y004162D02*
X005420Y004162D01*
X005506Y004261D02*
X001780Y004261D01*
X001780Y004359D02*
X005604Y004359D01*
X005703Y004458D02*
X001780Y004458D01*
X001780Y004556D02*
X005801Y004556D01*
X006015Y004261D02*
X009006Y004261D01*
X009104Y004359D02*
X006114Y004359D01*
X006212Y004458D02*
X009203Y004458D01*
X009301Y004556D02*
X006311Y004556D01*
X006409Y004655D02*
X009400Y004655D01*
X009498Y004753D02*
X006833Y004753D01*
X006931Y004852D02*
X009597Y004852D01*
X009695Y004950D02*
X007010Y004950D01*
X007010Y005049D02*
X009794Y005049D01*
X009892Y005147D02*
X007010Y005147D01*
X007010Y005246D02*
X009920Y005246D01*
X009920Y005175D02*
X008787Y004042D01*
X008784Y004045D01*
X008416Y004045D01*
X008155Y003784D01*
X008155Y003416D01*
X008416Y003155D01*
X008784Y003155D01*
X009045Y003416D01*
X009045Y003784D01*
X009042Y003787D01*
X010280Y005025D01*
X010280Y005534D01*
X010310Y005546D01*
X010414Y005650D01*
X010470Y005786D01*
X010470Y006414D01*
X010414Y006550D01*
X010310Y006654D01*
X010174Y006710D01*
X010026Y006710D01*
X009890Y006654D01*
X009786Y006550D01*
X009730Y006414D01*
X009730Y005786D01*
X009786Y005650D01*
X009890Y005546D01*
X009920Y005534D01*
X009920Y005175D01*
X009920Y005344D02*
X006936Y005344D01*
X006600Y005100D02*
X005600Y004100D01*
X005600Y002600D01*
X006050Y002586D02*
X006150Y002586D01*
X006150Y002488D02*
X006050Y002488D01*
X006050Y002389D02*
X006150Y002389D01*
X006150Y002291D02*
X006050Y002291D01*
X006050Y002192D02*
X006150Y002192D01*
X006190Y002094D02*
X006010Y002094D01*
X005951Y001995D02*
X006240Y001995D01*
X006142Y001897D02*
X005850Y001897D01*
X006043Y001798D02*
X004657Y001798D01*
X004558Y001897D02*
X005350Y001897D01*
X005249Y001995D02*
X004460Y001995D01*
X004361Y002094D02*
X005190Y002094D01*
X005150Y002192D02*
X004263Y002192D01*
X004164Y002291D02*
X005150Y002291D01*
X005150Y002389D02*
X004066Y002389D01*
X003967Y002488D02*
X005150Y002488D01*
X005150Y002586D02*
X003869Y002586D01*
X003770Y002685D02*
X005150Y002685D01*
X005150Y002783D02*
X003550Y002783D01*
X003550Y002882D02*
X005150Y002882D01*
X005150Y002980D02*
X003550Y002980D01*
X003521Y003079D02*
X005179Y003079D01*
X005221Y003177D02*
X003479Y003177D01*
X003381Y003276D02*
X005319Y003276D01*
X005780Y003374D02*
X008197Y003374D01*
X008155Y003473D02*
X005780Y003473D01*
X005780Y003571D02*
X008155Y003571D01*
X008155Y003670D02*
X005780Y003670D01*
X005780Y003768D02*
X008155Y003768D01*
X008237Y003867D02*
X005780Y003867D01*
X005780Y003965D02*
X008336Y003965D01*
X008600Y003600D02*
X010100Y005100D01*
X010100Y006100D01*
X009730Y006132D02*
X008887Y006132D01*
X008985Y006231D02*
X009730Y006231D01*
X009730Y006329D02*
X009084Y006329D01*
X009182Y006428D02*
X009736Y006428D01*
X009777Y006526D02*
X009281Y006526D01*
X009379Y006625D02*
X009861Y006625D01*
X009576Y006822D02*
X011239Y006822D01*
X011239Y006920D02*
X009675Y006920D01*
X009773Y007019D02*
X011239Y007019D01*
X011239Y007117D02*
X009872Y007117D01*
X009970Y007216D02*
X011239Y007216D01*
X011239Y007314D02*
X010069Y007314D01*
X010167Y007413D02*
X011239Y007413D01*
X011239Y007511D02*
X010266Y007511D01*
X010364Y007610D02*
X011239Y007610D01*
X011239Y007708D02*
X010463Y007708D01*
X010561Y007807D02*
X011239Y007807D01*
X011239Y007905D02*
X010660Y007905D01*
X010758Y008004D02*
X011239Y008004D01*
X011239Y008102D02*
X010857Y008102D01*
X010955Y008201D02*
X011239Y008201D01*
X011239Y008299D02*
X011054Y008299D01*
X011152Y008398D02*
X011239Y008398D01*
X011239Y008496D02*
X011205Y008496D01*
X011222Y008595D02*
X011222Y008595D01*
X011222Y008599D02*
X011222Y008599D01*
X011419Y008950D02*
X011419Y004781D01*
X012600Y003600D01*
X012295Y003276D02*
X008905Y003276D01*
X009003Y003374D02*
X012197Y003374D01*
X012155Y003473D02*
X009045Y003473D01*
X009045Y003571D02*
X012155Y003571D01*
X012155Y003670D02*
X009045Y003670D01*
X009045Y003768D02*
X010352Y003768D01*
X010430Y003690D02*
X010190Y003930D01*
X010190Y004270D01*
X010430Y004510D01*
X010770Y004510D01*
X011010Y004270D01*
X011010Y003930D01*
X010770Y003690D01*
X010430Y003690D01*
X010254Y003867D02*
X009121Y003867D01*
X009220Y003965D02*
X010190Y003965D01*
X010190Y004064D02*
X009318Y004064D01*
X009417Y004162D02*
X010190Y004162D01*
X010190Y004261D02*
X009515Y004261D01*
X009614Y004359D02*
X010279Y004359D01*
X010378Y004458D02*
X009712Y004458D01*
X009811Y004556D02*
X011389Y004556D01*
X011291Y004655D02*
X009909Y004655D01*
X010008Y004753D02*
X011239Y004753D01*
X011239Y004852D02*
X010106Y004852D01*
X010205Y004950D02*
X011239Y004950D01*
X011239Y005049D02*
X010280Y005049D01*
X010280Y005147D02*
X011239Y005147D01*
X011239Y005246D02*
X010280Y005246D01*
X010280Y005344D02*
X011239Y005344D01*
X011239Y005443D02*
X010280Y005443D01*
X010297Y005541D02*
X011239Y005541D01*
X011239Y005640D02*
X010403Y005640D01*
X010450Y005738D02*
X011239Y005738D01*
X011239Y005837D02*
X010470Y005837D01*
X010470Y005935D02*
X011239Y005935D01*
X011239Y006034D02*
X010470Y006034D01*
X010470Y006132D02*
X011239Y006132D01*
X011239Y006231D02*
X010470Y006231D01*
X010470Y006329D02*
X011239Y006329D01*
X011239Y006428D02*
X010464Y006428D01*
X010423Y006526D02*
X011239Y006526D01*
X011239Y006625D02*
X010339Y006625D01*
X009730Y006034D02*
X008788Y006034D01*
X008690Y005935D02*
X009730Y005935D01*
X009730Y005837D02*
X008591Y005837D01*
X008493Y005738D02*
X009750Y005738D01*
X009797Y005640D02*
X008394Y005640D01*
X008296Y005541D02*
X009903Y005541D01*
X009920Y005443D02*
X008197Y005443D01*
X008182Y006428D02*
X008673Y006428D01*
X008771Y006526D02*
X008281Y006526D01*
X008379Y006625D02*
X008870Y006625D01*
X008968Y006723D02*
X008478Y006723D01*
X008576Y006822D02*
X009067Y006822D01*
X009165Y006920D02*
X008675Y006920D01*
X008773Y007019D02*
X009264Y007019D01*
X009362Y007117D02*
X008872Y007117D01*
X008970Y007216D02*
X009461Y007216D01*
X009559Y007314D02*
X009069Y007314D01*
X009167Y007413D02*
X009658Y007413D01*
X009756Y007511D02*
X009266Y007511D01*
X009364Y007610D02*
X009855Y007610D01*
X009953Y007708D02*
X009463Y007708D01*
X009561Y007807D02*
X010052Y007807D01*
X010150Y007905D02*
X009660Y007905D01*
X009758Y008004D02*
X010249Y008004D01*
X010347Y008102D02*
X009857Y008102D01*
X009955Y008201D02*
X010446Y008201D01*
X010544Y008299D02*
X010054Y008299D01*
X010152Y008398D02*
X010643Y008398D01*
X010741Y008496D02*
X010251Y008496D01*
X009643Y008398D02*
X006911Y008398D01*
X007009Y008299D02*
X009544Y008299D01*
X009446Y008201D02*
X007030Y008201D01*
X007030Y008070D02*
X006630Y008070D01*
X006630Y007670D01*
X006778Y007670D01*
X007030Y007922D01*
X007030Y008070D01*
X007030Y008004D02*
X009249Y008004D01*
X009347Y008102D02*
X006630Y008102D01*
X006600Y008100D02*
X007600Y008100D01*
X008100Y007600D01*
X008461Y007216D02*
X004359Y007216D01*
X004370Y007117D02*
X008362Y007117D01*
X008264Y007019D02*
X004370Y007019D01*
X004333Y006920D02*
X008165Y006920D01*
X008067Y006822D02*
X004278Y006822D01*
X004318Y007314D02*
X008559Y007314D01*
X008658Y007413D02*
X004244Y007413D01*
X004266Y007511D02*
X008756Y007511D01*
X008855Y007610D02*
X004364Y007610D01*
X004463Y007708D02*
X006384Y007708D01*
X006422Y007670D02*
X006570Y007670D01*
X006570Y008070D01*
X006170Y008070D01*
X006170Y007922D01*
X006422Y007670D01*
X006570Y007708D02*
X006630Y007708D01*
X006630Y007807D02*
X006570Y007807D01*
X006570Y007905D02*
X006630Y007905D01*
X006630Y008004D02*
X006570Y008004D01*
X006570Y008102D02*
X004857Y008102D01*
X004955Y008201D02*
X006170Y008201D01*
X006191Y008299D02*
X005054Y008299D01*
X005152Y008398D02*
X006289Y008398D01*
X006170Y008004D02*
X004758Y008004D01*
X004660Y007905D02*
X006187Y007905D01*
X006285Y007807D02*
X004561Y007807D01*
X003096Y007511D02*
X001780Y007511D01*
X001780Y007413D02*
X002956Y007413D01*
X002882Y007314D02*
X001780Y007314D01*
X001780Y007216D02*
X002841Y007216D01*
X002830Y007117D02*
X001780Y007117D01*
X001780Y007019D02*
X002830Y007019D01*
X002867Y006920D02*
X001780Y006920D01*
X001780Y006822D02*
X002922Y006822D01*
X002600Y009600D02*
X002600Y013600D01*
X003600Y014600D01*
X003262Y014899D02*
X002966Y014899D01*
X002868Y014997D02*
X003361Y014997D01*
X003414Y015150D02*
X003150Y015414D01*
X003150Y015786D01*
X003414Y016050D01*
X003786Y016050D01*
X004050Y015786D01*
X004050Y015414D01*
X003786Y015150D01*
X003414Y015150D01*
X003370Y015194D02*
X002830Y015194D01*
X002786Y015150D02*
X003050Y015414D01*
X003050Y015786D01*
X002786Y016050D01*
X002414Y016050D01*
X002150Y015786D01*
X002150Y015414D01*
X002414Y015150D01*
X002786Y015150D01*
X002795Y015070D02*
X002650Y015070D01*
X002650Y014650D01*
X003070Y014650D01*
X003070Y014795D01*
X002795Y015070D01*
X002650Y014997D02*
X002550Y014997D01*
X002550Y014899D02*
X002650Y014899D01*
X002650Y014800D02*
X002550Y014800D01*
X002550Y014702D02*
X002650Y014702D01*
X002650Y014603D02*
X003150Y014603D01*
X003150Y014505D02*
X003070Y014505D01*
X003070Y014406D02*
X003151Y014406D01*
X003053Y014308D02*
X002972Y014308D01*
X002954Y014209D02*
X002874Y014209D01*
X002650Y014209D02*
X002550Y014209D01*
X002550Y014308D02*
X002650Y014308D01*
X002650Y014406D02*
X002550Y014406D01*
X002550Y014505D02*
X002650Y014505D01*
X003070Y014702D02*
X003150Y014702D01*
X003164Y014800D02*
X003065Y014800D01*
X002929Y015293D02*
X003271Y015293D01*
X003173Y015391D02*
X003027Y015391D01*
X003050Y015490D02*
X003150Y015490D01*
X003150Y015588D02*
X003050Y015588D01*
X003050Y015687D02*
X003150Y015687D01*
X003150Y015785D02*
X003050Y015785D01*
X002953Y015884D02*
X003247Y015884D01*
X003346Y015982D02*
X002854Y015982D01*
X002815Y016179D02*
X003385Y016179D01*
X003414Y016150D02*
X003150Y016414D01*
X003150Y016786D01*
X003414Y017050D01*
X003786Y017050D01*
X004050Y016786D01*
X004050Y016780D01*
X005655Y016780D01*
X005655Y016784D01*
X005916Y017045D01*
X006284Y017045D01*
X006545Y016784D01*
X006545Y016416D01*
X006284Y016155D01*
X005916Y016155D01*
X005655Y016416D01*
X005655Y016420D01*
X004050Y016420D01*
X004050Y016414D01*
X003786Y016150D01*
X003414Y016150D01*
X003286Y016278D02*
X002914Y016278D01*
X003012Y016376D02*
X003188Y016376D01*
X003150Y016475D02*
X003050Y016475D01*
X003050Y016573D02*
X003150Y016573D01*
X003150Y016672D02*
X003050Y016672D01*
X003050Y016770D02*
X003150Y016770D01*
X003232Y016869D02*
X002968Y016869D01*
X002869Y016967D02*
X003331Y016967D01*
X003600Y016600D02*
X006100Y016600D01*
X006545Y016573D02*
X006920Y016573D01*
X006920Y016475D02*
X006545Y016475D01*
X006505Y016376D02*
X006920Y016376D01*
X006920Y016278D02*
X006407Y016278D01*
X006308Y016179D02*
X006920Y016179D01*
X006920Y016081D02*
X002335Y016081D01*
X002346Y015982D02*
X002237Y015982D01*
X002247Y015884D02*
X002138Y015884D01*
X002150Y015785D02*
X002040Y015785D01*
X001941Y015687D02*
X002150Y015687D01*
X002150Y015588D02*
X001843Y015588D01*
X001780Y015490D02*
X002150Y015490D01*
X002173Y015391D02*
X001780Y015391D01*
X001780Y015293D02*
X002271Y015293D01*
X002370Y015194D02*
X001780Y015194D01*
X001780Y015096D02*
X006070Y015096D01*
X006070Y015070D02*
X005635Y015070D01*
X005635Y014907D01*
X005907Y014635D01*
X006070Y014635D01*
X006070Y015070D01*
X006130Y015070D01*
X006130Y015130D01*
X006565Y015130D01*
X006565Y015293D01*
X006293Y015565D01*
X006130Y015565D01*
X006130Y015130D01*
X006070Y015130D01*
X006070Y015565D01*
X005907Y015565D01*
X005635Y015293D01*
X005635Y015130D01*
X006070Y015130D01*
X006070Y015070D01*
X006100Y015100D02*
X006850Y014350D01*
X007100Y014350D01*
X008759Y012691D01*
X009450Y012691D01*
X009450Y012494D02*
X010494Y012494D01*
X011100Y013100D01*
X011100Y013600D01*
X012403Y012297D02*
X015600Y009100D01*
X015600Y008600D01*
X016600Y007600D01*
X016252Y007610D02*
X015845Y007610D01*
X015747Y007708D02*
X016237Y007708D01*
X016139Y007807D02*
X015648Y007807D01*
X015550Y007905D02*
X016040Y007905D01*
X015942Y008004D02*
X015530Y008004D01*
X015530Y008102D02*
X015843Y008102D01*
X015745Y008201D02*
X015530Y008201D01*
X015530Y008299D02*
X015646Y008299D01*
X015548Y008398D02*
X015530Y008398D01*
X015780Y008693D02*
X017252Y008693D01*
X017154Y008792D02*
X015780Y008792D01*
X015780Y008890D02*
X017055Y008890D01*
X016957Y008989D02*
X015780Y008989D01*
X015780Y009087D02*
X016858Y009087D01*
X016760Y009186D02*
X015769Y009186D01*
X015671Y009284D02*
X016661Y009284D01*
X016563Y009383D02*
X015572Y009383D01*
X015474Y009481D02*
X016464Y009481D01*
X016366Y009580D02*
X016139Y009580D01*
X016175Y009678D02*
X016267Y009678D01*
X016069Y010131D02*
X020600Y005600D01*
X021049Y006034D02*
X021420Y006034D01*
X021420Y006132D02*
X020323Y006132D01*
X019979Y005935D02*
X017520Y005935D01*
X017618Y005837D02*
X019891Y005837D01*
X019850Y005738D02*
X017717Y005738D01*
X017780Y005640D02*
X019830Y005640D01*
X019830Y005541D02*
X017780Y005541D01*
X017780Y005443D02*
X019858Y005443D01*
X019900Y005344D02*
X017780Y005344D01*
X017780Y005246D02*
X019998Y005246D01*
X019485Y004852D02*
X021097Y004852D01*
X021195Y004950D02*
X019386Y004950D01*
X019288Y005049D02*
X021294Y005049D01*
X021392Y005147D02*
X017780Y005147D01*
X017780Y005049D02*
X017912Y005049D01*
X017814Y004950D02*
X017780Y004950D01*
X017600Y005600D02*
X017600Y004100D01*
X018100Y003600D01*
X017788Y003276D02*
X017412Y003276D01*
X017510Y003374D02*
X017690Y003374D01*
X017650Y003473D02*
X017550Y003473D01*
X017550Y003571D02*
X017650Y003571D01*
X017650Y003670D02*
X017550Y003670D01*
X017550Y003768D02*
X017650Y003768D01*
X017579Y003867D02*
X017470Y003867D01*
X017480Y003965D02*
X017371Y003965D01*
X017420Y004064D02*
X016891Y004064D01*
X016902Y004162D02*
X016793Y004162D01*
X016780Y004261D02*
X016803Y004261D01*
X017298Y004162D02*
X017420Y004162D01*
X017420Y004261D02*
X017397Y004261D01*
X017780Y004261D02*
X017803Y004261D01*
X017793Y004162D02*
X017902Y004162D01*
X017891Y004064D02*
X022100Y004064D01*
X022100Y004162D02*
X019298Y004162D01*
X019397Y004261D02*
X022100Y004261D01*
X022100Y004359D02*
X019495Y004359D01*
X019371Y003965D02*
X022100Y003965D01*
X022100Y003867D02*
X019470Y003867D01*
X019550Y003768D02*
X022100Y003768D01*
X022100Y003670D02*
X019550Y003670D01*
X019550Y003571D02*
X022100Y003571D01*
X022100Y003473D02*
X019550Y003473D01*
X019510Y003374D02*
X022100Y003374D01*
X022100Y003276D02*
X019412Y003276D01*
X017887Y003177D02*
X017313Y003177D01*
X016887Y003177D02*
X016313Y003177D01*
X016073Y002882D02*
X022100Y002882D01*
X022100Y002980D02*
X015975Y002980D01*
X016172Y002783D02*
X022100Y002783D01*
X022100Y002685D02*
X016270Y002685D01*
X016369Y002586D02*
X022100Y002586D01*
X022100Y002488D02*
X016467Y002488D01*
X016566Y002389D02*
X022100Y002389D01*
X022100Y002291D02*
X016664Y002291D01*
X016763Y002192D02*
X022100Y002192D01*
X022100Y002094D02*
X016861Y002094D01*
X016549Y001897D02*
X014412Y001897D01*
X014313Y001995D02*
X016450Y001995D01*
X016352Y002094D02*
X013280Y002094D01*
X013280Y002192D02*
X016253Y002192D01*
X016155Y002291D02*
X013280Y002291D01*
X013280Y002389D02*
X016056Y002389D01*
X015958Y002488D02*
X013280Y002488D01*
X013280Y002586D02*
X015859Y002586D01*
X015761Y002685D02*
X013280Y002685D01*
X013280Y002783D02*
X015662Y002783D01*
X015564Y002882D02*
X013280Y002882D01*
X013280Y002980D02*
X015465Y002980D01*
X015367Y003079D02*
X013280Y003079D01*
X013280Y003177D02*
X014887Y003177D01*
X014788Y003276D02*
X013280Y003276D01*
X013280Y003374D02*
X014690Y003374D01*
X014650Y003473D02*
X013280Y003473D01*
X013280Y003571D02*
X014650Y003571D01*
X014650Y003670D02*
X013280Y003670D01*
X013280Y003768D02*
X014650Y003768D01*
X014730Y003867D02*
X013280Y003867D01*
X013280Y003965D02*
X014829Y003965D01*
X014902Y004162D02*
X013280Y004162D01*
X013280Y004064D02*
X015309Y004064D01*
X015298Y004162D02*
X015407Y004162D01*
X015397Y004261D02*
X015420Y004261D01*
X015600Y004100D02*
X015600Y005100D01*
X013781Y006919D01*
X013781Y008950D01*
X013584Y008950D02*
X013584Y006116D01*
X015100Y004600D01*
X014705Y004359D02*
X013096Y004359D01*
X013194Y004261D02*
X014803Y004261D01*
X014650Y004458D02*
X012997Y004458D01*
X012899Y004556D02*
X014650Y004556D01*
X014650Y004655D02*
X012800Y004655D01*
X012702Y004753D02*
X014650Y004753D01*
X014594Y004852D02*
X012603Y004852D01*
X012505Y004950D02*
X014495Y004950D01*
X014397Y005049D02*
X012448Y005049D01*
X012448Y005147D02*
X014298Y005147D01*
X014200Y005246D02*
X012448Y005246D01*
X012448Y005344D02*
X014101Y005344D01*
X014003Y005443D02*
X012378Y005443D01*
X012297Y005541D02*
X013904Y005541D01*
X013806Y005640D02*
X012403Y005640D01*
X012450Y005738D02*
X013707Y005738D01*
X013609Y005837D02*
X012470Y005837D01*
X012470Y005935D02*
X013510Y005935D01*
X013412Y006034D02*
X012470Y006034D01*
X012470Y006132D02*
X013404Y006132D01*
X013404Y006231D02*
X012470Y006231D01*
X012470Y006329D02*
X013404Y006329D01*
X013404Y006428D02*
X012464Y006428D01*
X012423Y006526D02*
X013404Y006526D01*
X013404Y006625D02*
X012339Y006625D01*
X011993Y006723D02*
X013404Y006723D01*
X013404Y006822D02*
X011993Y006822D01*
X011993Y006920D02*
X013404Y006920D01*
X013404Y007019D02*
X011993Y007019D01*
X011993Y007117D02*
X013404Y007117D01*
X013404Y007216D02*
X011993Y007216D01*
X011993Y007314D02*
X013404Y007314D01*
X013404Y007413D02*
X011993Y007413D01*
X011993Y007511D02*
X013404Y007511D01*
X013404Y007610D02*
X011993Y007610D01*
X011993Y007708D02*
X013404Y007708D01*
X013404Y007807D02*
X011993Y007807D01*
X011993Y007905D02*
X013404Y007905D01*
X013404Y008004D02*
X011993Y008004D01*
X011993Y008102D02*
X013404Y008102D01*
X013404Y008201D02*
X011993Y008201D01*
X011993Y008299D02*
X013404Y008299D01*
X013404Y008398D02*
X011993Y008398D01*
X011993Y008496D02*
X013404Y008496D01*
X014517Y009678D02*
X009876Y009678D01*
X009876Y009777D02*
X014419Y009777D01*
X014320Y009875D02*
X009876Y009875D01*
X009876Y009974D02*
X014222Y009974D01*
X014123Y010072D02*
X009876Y010072D01*
X009876Y010171D02*
X014025Y010171D01*
X013926Y010269D02*
X009876Y010269D01*
X009876Y010368D02*
X013828Y010368D01*
X013729Y010466D02*
X009876Y010466D01*
X009876Y010565D02*
X013631Y010565D01*
X013532Y010663D02*
X009876Y010663D01*
X009876Y010762D02*
X013434Y010762D01*
X013335Y010860D02*
X009876Y010860D01*
X009876Y010959D02*
X013237Y010959D01*
X013138Y011057D02*
X009876Y011057D01*
X009876Y011156D02*
X013040Y011156D01*
X012941Y011254D02*
X009876Y011254D01*
X009876Y011353D02*
X012843Y011353D01*
X012744Y011451D02*
X009876Y011451D01*
X009876Y011550D02*
X012646Y011550D01*
X012547Y011648D02*
X009876Y011648D01*
X009876Y011747D02*
X012449Y011747D01*
X012350Y011845D02*
X009876Y011845D01*
X009450Y011706D02*
X008994Y011706D01*
X008100Y012600D01*
X004100Y012600D01*
X003600Y013100D01*
X003812Y012633D02*
X002780Y012633D01*
X002780Y012535D02*
X003153Y012535D01*
X002980Y012436D02*
X002780Y012436D01*
X002780Y012338D02*
X002891Y012338D01*
X002851Y012239D02*
X002780Y012239D01*
X002780Y012141D02*
X002830Y012141D01*
X002830Y012042D02*
X002780Y012042D01*
X002780Y011944D02*
X002858Y011944D01*
X002899Y011845D02*
X003025Y011719D01*
X003189Y011550D02*
X002780Y011550D01*
X002780Y011648D02*
X007797Y011648D01*
X007699Y011747D02*
X004203Y011747D01*
X004301Y011845D02*
X004333Y011920D01*
X007525Y011920D01*
X007600Y012100D02*
X003600Y012100D01*
X004011Y011550D02*
X007896Y011550D01*
X008191Y011509D02*
X007600Y012100D01*
X007910Y012830D02*
X009023Y012830D01*
X009025Y012929D02*
X008008Y012929D01*
X008010Y013027D02*
X009025Y013027D01*
X008820Y013126D02*
X008010Y013126D01*
X008010Y013224D02*
X008721Y013224D01*
X008919Y013281D02*
X008600Y013600D01*
X008919Y013281D02*
X009450Y013281D01*
X009005Y012732D02*
X008223Y012732D01*
X008322Y012633D02*
X009005Y012633D01*
X009025Y012535D02*
X008420Y012535D01*
X008519Y012436D02*
X009025Y012436D01*
X009025Y012338D02*
X008617Y012338D01*
X008716Y012239D02*
X009025Y012239D01*
X009025Y012141D02*
X008814Y012141D01*
X008913Y012042D02*
X009025Y012042D01*
X009011Y011944D02*
X009025Y011944D01*
X009450Y012100D02*
X012350Y012100D01*
X015350Y009100D01*
X015350Y007850D01*
X017600Y005600D01*
X017421Y006034D02*
X019912Y006034D01*
X019813Y006132D02*
X017323Y006132D01*
X017224Y006231D02*
X019715Y006231D01*
X019616Y006329D02*
X017126Y006329D01*
X017027Y006428D02*
X019518Y006428D01*
X019419Y006526D02*
X016929Y006526D01*
X016830Y006625D02*
X019321Y006625D01*
X019222Y006723D02*
X016732Y006723D01*
X016633Y006822D02*
X019124Y006822D01*
X019025Y006920D02*
X016535Y006920D01*
X016436Y007019D02*
X018927Y007019D01*
X018828Y007117D02*
X016338Y007117D01*
X016239Y007216D02*
X018730Y007216D01*
X018631Y007314D02*
X016934Y007314D01*
X016948Y007413D02*
X018533Y007413D01*
X018434Y007511D02*
X016948Y007511D01*
X016948Y007610D02*
X018336Y007610D01*
X018237Y007708D02*
X016948Y007708D01*
X016948Y007807D02*
X018139Y007807D01*
X018040Y007905D02*
X016915Y007905D01*
X016451Y008004D02*
X017942Y008004D01*
X017843Y008102D02*
X016353Y008102D01*
X016254Y008201D02*
X017745Y008201D01*
X017646Y008299D02*
X016156Y008299D01*
X016057Y008398D02*
X017548Y008398D01*
X017449Y008496D02*
X015959Y008496D01*
X015860Y008595D02*
X017351Y008595D01*
X018072Y009383D02*
X018563Y009383D01*
X018464Y009481D02*
X017974Y009481D01*
X017875Y009580D02*
X018366Y009580D01*
X018267Y009678D02*
X017777Y009678D01*
X017678Y009777D02*
X018169Y009777D01*
X018070Y009875D02*
X017580Y009875D01*
X017481Y009974D02*
X017972Y009974D01*
X017873Y010072D02*
X017383Y010072D01*
X017284Y010171D02*
X017775Y010171D01*
X017676Y010269D02*
X017186Y010269D01*
X017087Y010368D02*
X017578Y010368D01*
X017479Y010466D02*
X016989Y010466D01*
X016675Y010525D02*
X019600Y007600D01*
X020600Y007600D01*
X021122Y008004D02*
X021420Y008004D01*
X021420Y008102D02*
X019353Y008102D01*
X019451Y008004D02*
X020078Y008004D01*
X019949Y007905D02*
X019550Y007905D01*
X019648Y007807D02*
X019878Y007807D01*
X019871Y007413D02*
X019542Y007413D01*
X019641Y007314D02*
X019930Y007314D01*
X020032Y007216D02*
X019739Y007216D01*
X019838Y007117D02*
X021420Y007117D01*
X021420Y007019D02*
X021085Y007019D01*
X021236Y006920D02*
X021420Y006920D01*
X021420Y006822D02*
X021315Y006822D01*
X021356Y006723D02*
X021420Y006723D01*
X021420Y006625D02*
X021370Y006625D01*
X021370Y006526D02*
X021420Y006526D01*
X021420Y006428D02*
X021336Y006428D01*
X021285Y006329D02*
X021420Y006329D01*
X021420Y006231D02*
X021187Y006231D01*
X021221Y005935D02*
X021420Y005935D01*
X021420Y005837D02*
X021309Y005837D01*
X021350Y005738D02*
X021420Y005738D01*
X021420Y005640D02*
X021370Y005640D01*
X021370Y005541D02*
X021420Y005541D01*
X021420Y005443D02*
X021342Y005443D01*
X021300Y005344D02*
X021420Y005344D01*
X021420Y005246D02*
X021202Y005246D01*
X021600Y005100D02*
X021100Y004600D01*
X021600Y005100D02*
X021600Y013100D01*
X021350Y013350D01*
X017100Y013350D01*
X017100Y012850D01*
X016350Y012100D01*
X015750Y012100D01*
X015750Y012297D02*
X016297Y012297D01*
X016600Y012600D01*
X016600Y013100D01*
X017138Y012633D02*
X019378Y012633D01*
X019280Y012535D02*
X017039Y012535D01*
X016941Y012436D02*
X019181Y012436D01*
X019083Y012338D02*
X016842Y012338D01*
X016744Y012239D02*
X018984Y012239D01*
X018886Y012141D02*
X016645Y012141D01*
X016547Y012042D02*
X018787Y012042D01*
X018689Y011944D02*
X016448Y011944D01*
X016178Y011845D02*
X018590Y011845D01*
X018492Y011747D02*
X016195Y011747D01*
X016101Y011706D02*
X016101Y011706D01*
X015750Y011509D02*
X018509Y011509D01*
X019600Y012600D01*
X020600Y012600D01*
X021065Y013027D02*
X021418Y013027D01*
X021420Y012929D02*
X021228Y012929D01*
X021312Y012830D02*
X021420Y012830D01*
X021420Y012732D02*
X021353Y012732D01*
X021370Y012633D02*
X021420Y012633D01*
X021420Y012535D02*
X021370Y012535D01*
X021339Y012436D02*
X021420Y012436D01*
X021420Y012338D02*
X021294Y012338D01*
X021195Y012239D02*
X021420Y012239D01*
X021420Y012141D02*
X019395Y012141D01*
X019494Y012239D02*
X020005Y012239D01*
X019906Y012338D02*
X019592Y012338D01*
X019297Y012042D02*
X020171Y012042D01*
X019987Y011944D02*
X019198Y011944D01*
X019100Y011845D02*
X019894Y011845D01*
X019854Y011747D02*
X019001Y011747D01*
X018903Y011648D02*
X019830Y011648D01*
X019830Y011550D02*
X018804Y011550D01*
X018095Y010860D02*
X019904Y010860D01*
X019860Y010762D02*
X018193Y010762D01*
X018292Y010663D02*
X019830Y010663D01*
X019830Y010565D02*
X018390Y010565D01*
X018489Y010466D02*
X019848Y010466D01*
X019889Y010368D02*
X018587Y010368D01*
X018686Y010269D02*
X019975Y010269D01*
X020141Y010171D02*
X018784Y010171D01*
X018883Y010072D02*
X021420Y010072D01*
X021420Y009974D02*
X021183Y009974D01*
X021281Y009875D02*
X021420Y009875D01*
X021420Y009777D02*
X021334Y009777D01*
X021370Y009678D02*
X021420Y009678D01*
X021420Y009580D02*
X021370Y009580D01*
X021358Y009481D02*
X021420Y009481D01*
X021420Y009383D02*
X021317Y009383D01*
X021240Y009284D02*
X021420Y009284D01*
X021420Y009186D02*
X021095Y009186D01*
X021158Y008989D02*
X021420Y008989D01*
X021420Y009087D02*
X019368Y009087D01*
X019466Y008989D02*
X020042Y008989D01*
X019934Y008890D02*
X019565Y008890D01*
X019663Y008792D02*
X019872Y008792D01*
X019877Y008398D02*
X019057Y008398D01*
X018959Y008496D02*
X019449Y008496D01*
X019351Y008595D02*
X018860Y008595D01*
X018762Y008693D02*
X019252Y008693D01*
X019154Y008792D02*
X018663Y008792D01*
X018565Y008890D02*
X019055Y008890D01*
X018957Y008989D02*
X018466Y008989D01*
X018368Y009087D02*
X018858Y009087D01*
X018760Y009186D02*
X018269Y009186D01*
X018171Y009284D02*
X018661Y009284D01*
X019072Y009383D02*
X019883Y009383D01*
X019960Y009284D02*
X019171Y009284D01*
X019269Y009186D02*
X020105Y009186D01*
X020600Y009600D02*
X019100Y009600D01*
X017781Y010919D01*
X015750Y010919D01*
X015750Y011116D02*
X020084Y011116D01*
X020600Y010600D01*
X020398Y011057D02*
X021420Y011057D01*
X021420Y010959D02*
X021198Y010959D01*
X021296Y010860D02*
X021420Y010860D01*
X021420Y010762D02*
X021340Y010762D01*
X021370Y010663D02*
X021420Y010663D01*
X021420Y010565D02*
X021370Y010565D01*
X021352Y010466D02*
X021420Y010466D01*
X021420Y010368D02*
X021311Y010368D01*
X021225Y010269D02*
X021420Y010269D01*
X021420Y010171D02*
X021059Y010171D01*
X021023Y011156D02*
X021420Y011156D01*
X021420Y011254D02*
X021210Y011254D01*
X021305Y011353D02*
X021420Y011353D01*
X021420Y011451D02*
X021345Y011451D01*
X021370Y011550D02*
X021420Y011550D01*
X021420Y011648D02*
X021370Y011648D01*
X021346Y011747D02*
X021420Y011747D01*
X021420Y011845D02*
X021306Y011845D01*
X021213Y011944D02*
X021420Y011944D01*
X021420Y012042D02*
X021029Y012042D01*
X020600Y011600D02*
X020313Y011313D01*
X015750Y011313D01*
X015750Y010722D02*
X017478Y010722D01*
X019600Y008600D01*
X020600Y008600D01*
X021132Y008201D02*
X021420Y008201D01*
X021420Y008299D02*
X021255Y008299D01*
X021323Y008398D02*
X021420Y008398D01*
X021420Y008496D02*
X021364Y008496D01*
X021370Y008595D02*
X021420Y008595D01*
X021420Y008693D02*
X021369Y008693D01*
X021328Y008792D02*
X021420Y008792D01*
X021420Y008890D02*
X021266Y008890D01*
X021251Y007905D02*
X021420Y007905D01*
X021420Y007807D02*
X021322Y007807D01*
X021362Y007708D02*
X021420Y007708D01*
X021420Y007610D02*
X021370Y007610D01*
X021370Y007511D02*
X021420Y007511D01*
X021420Y007413D02*
X021329Y007413D01*
X021270Y007314D02*
X021420Y007314D01*
X021420Y007216D02*
X021168Y007216D01*
X020600Y006600D02*
X020100Y006600D01*
X016372Y010328D01*
X015750Y010328D01*
X015750Y010131D02*
X016069Y010131D01*
X015750Y010525D02*
X016675Y010525D01*
X015324Y012083D02*
X014871Y012083D01*
X014280Y012675D01*
X014280Y014175D01*
X014105Y014350D01*
X014158Y014403D01*
X014158Y014804D01*
X014175Y014804D01*
X014263Y014804D01*
X014302Y014815D01*
X014319Y014824D01*
X015085Y014824D01*
X015161Y014900D01*
X015161Y015070D01*
X015324Y015070D01*
X016175Y015920D01*
X017675Y015920D01*
X019830Y018075D01*
X019830Y018010D01*
X019899Y017845D01*
X019995Y017749D01*
X018025Y015780D01*
X016525Y015780D01*
X016420Y015675D01*
X015570Y014824D01*
X015570Y014661D01*
X015400Y014661D01*
X015324Y014585D01*
X015324Y012083D01*
X015324Y012141D02*
X014814Y012141D01*
X014716Y012239D02*
X015324Y012239D01*
X015324Y012338D02*
X014617Y012338D01*
X014519Y012436D02*
X015324Y012436D01*
X015324Y012535D02*
X014420Y012535D01*
X014322Y012633D02*
X015324Y012633D01*
X015324Y012732D02*
X014280Y012732D01*
X014280Y012830D02*
X015324Y012830D01*
X015324Y012929D02*
X014280Y012929D01*
X014280Y013027D02*
X015324Y013027D01*
X015324Y013126D02*
X014280Y013126D01*
X014280Y013224D02*
X015324Y013224D01*
X015324Y013323D02*
X014280Y013323D01*
X014280Y013421D02*
X015324Y013421D01*
X015324Y013520D02*
X014280Y013520D01*
X014280Y013618D02*
X015324Y013618D01*
X015324Y013717D02*
X014280Y013717D01*
X014280Y013815D02*
X015324Y013815D01*
X015324Y013914D02*
X014280Y013914D01*
X014280Y014012D02*
X015324Y014012D01*
X015324Y014111D02*
X014280Y014111D01*
X014246Y014209D02*
X015324Y014209D01*
X015324Y014308D02*
X014147Y014308D01*
X014158Y014406D02*
X015324Y014406D01*
X015324Y014505D02*
X014158Y014505D01*
X014175Y014525D02*
X014600Y014100D01*
X014600Y013600D01*
X014175Y014525D02*
X014175Y015250D01*
X014175Y015425D01*
X016600Y017850D01*
X016850Y017850D01*
X018600Y019600D01*
X018600Y021100D01*
X018100Y021600D01*
X010100Y021600D01*
X010838Y021498D02*
X011362Y021498D01*
X011263Y021400D02*
X010937Y021400D01*
X011035Y021301D02*
X011165Y021301D01*
X011150Y021203D02*
X011050Y021203D01*
X011050Y021104D02*
X011150Y021104D01*
X011150Y021006D02*
X011050Y021006D01*
X011047Y020907D02*
X011157Y020907D01*
X011146Y020809D02*
X011255Y020809D01*
X011205Y020710D02*
X011354Y020710D01*
X011205Y020612D02*
X011834Y020612D01*
X011823Y020513D02*
X011920Y020513D01*
X012100Y020600D02*
X011600Y021100D01*
X012050Y021104D02*
X012150Y021104D01*
X012150Y021006D02*
X012050Y021006D01*
X012047Y020907D02*
X012157Y020907D01*
X012146Y020809D02*
X012255Y020809D01*
X012244Y020710D02*
X012354Y020710D01*
X012280Y020612D02*
X012834Y020612D01*
X012823Y020513D02*
X012920Y020513D01*
X013100Y020600D02*
X012600Y021100D01*
X013050Y021104D02*
X013150Y021104D01*
X013150Y021006D02*
X013050Y021006D01*
X013047Y020907D02*
X013157Y020907D01*
X013146Y020809D02*
X013255Y020809D01*
X013244Y020710D02*
X013354Y020710D01*
X013280Y020612D02*
X013834Y020612D01*
X013823Y020513D02*
X013920Y020513D01*
X014100Y020600D02*
X013600Y021100D01*
X014050Y021104D02*
X014150Y021104D01*
X014150Y021006D02*
X014050Y021006D01*
X014047Y020907D02*
X014157Y020907D01*
X014146Y020809D02*
X014255Y020809D01*
X014244Y020710D02*
X014354Y020710D01*
X014280Y020612D02*
X014834Y020612D01*
X014823Y020513D02*
X014920Y020513D01*
X015100Y020600D02*
X014600Y021100D01*
X015050Y021104D02*
X015150Y021104D01*
X015150Y021006D02*
X015050Y021006D01*
X015047Y020907D02*
X015157Y020907D01*
X015146Y020809D02*
X015255Y020809D01*
X015244Y020710D02*
X015354Y020710D01*
X015280Y020612D02*
X015834Y020612D01*
X015823Y020513D02*
X015920Y020513D01*
X016100Y020600D02*
X015600Y021100D01*
X016050Y021104D02*
X016150Y021104D01*
X016150Y021006D02*
X016050Y021006D01*
X016047Y020907D02*
X016157Y020907D01*
X016146Y020809D02*
X016255Y020809D01*
X016244Y020710D02*
X016354Y020710D01*
X016280Y020612D02*
X016834Y020612D01*
X016823Y020513D02*
X016920Y020513D01*
X017100Y020600D02*
X016600Y021100D01*
X017050Y021104D02*
X017150Y021104D01*
X017150Y021006D02*
X017050Y021006D01*
X017047Y020907D02*
X017157Y020907D01*
X017146Y020809D02*
X017255Y020809D01*
X017244Y020710D02*
X017354Y020710D01*
X017280Y020612D02*
X017834Y020612D01*
X017823Y020513D02*
X017920Y020513D01*
X018100Y020600D02*
X017600Y021100D01*
X017165Y021301D02*
X017035Y021301D01*
X017050Y021203D02*
X017150Y021203D01*
X017263Y021400D02*
X016937Y021400D01*
X016838Y021498D02*
X017362Y021498D01*
X017838Y021498D02*
X020065Y021498D01*
X019943Y021400D02*
X017937Y021400D01*
X018035Y021301D02*
X019876Y021301D01*
X019835Y021203D02*
X018050Y021203D01*
X018050Y021104D02*
X019830Y021104D01*
X019832Y021006D02*
X018050Y021006D01*
X018047Y020907D02*
X019873Y020907D01*
X019935Y020809D02*
X018146Y020809D01*
X018244Y020710D02*
X019956Y020710D01*
X019857Y020612D02*
X018280Y020612D01*
X018280Y020513D02*
X019759Y020513D01*
X019660Y020415D02*
X018280Y020415D01*
X018280Y020316D02*
X019562Y020316D01*
X019463Y020218D02*
X018280Y020218D01*
X018280Y020119D02*
X019365Y020119D01*
X019266Y020021D02*
X018280Y020021D01*
X018280Y019922D02*
X019168Y019922D01*
X019069Y019824D02*
X018280Y019824D01*
X018280Y019725D02*
X018971Y019725D01*
X018872Y019627D02*
X018280Y019627D01*
X018280Y019528D02*
X018774Y019528D01*
X018675Y019430D02*
X018184Y019430D01*
X018175Y019420D02*
X018175Y019420D01*
X018086Y019331D02*
X018577Y019331D01*
X018478Y019233D02*
X017987Y019233D01*
X017889Y019134D02*
X018380Y019134D01*
X018281Y019036D02*
X017790Y019036D01*
X017692Y018937D02*
X018183Y018937D01*
X018084Y018839D02*
X017593Y018839D01*
X017495Y018740D02*
X017986Y018740D01*
X017887Y018642D02*
X017396Y018642D01*
X017298Y018543D02*
X017789Y018543D01*
X017690Y018445D02*
X017199Y018445D01*
X017101Y018346D02*
X017592Y018346D01*
X017493Y018248D02*
X017002Y018248D01*
X016850Y018350D02*
X018100Y019600D01*
X018100Y020600D01*
X017600Y020100D02*
X017600Y019600D01*
X013584Y015584D01*
X013584Y015250D01*
X013387Y015250D02*
X013387Y015887D01*
X017100Y019600D01*
X017100Y020600D01*
X017280Y020513D02*
X017377Y020513D01*
X016600Y020100D02*
X016600Y019600D01*
X013191Y016191D01*
X013191Y015250D01*
X012994Y015250D02*
X012994Y016494D01*
X016100Y019600D01*
X016100Y020600D01*
X016280Y020513D02*
X016377Y020513D01*
X016150Y021203D02*
X016050Y021203D01*
X016035Y021301D02*
X016165Y021301D01*
X016263Y021400D02*
X015937Y021400D01*
X015838Y021498D02*
X016362Y021498D01*
X015362Y021498D02*
X014838Y021498D01*
X014937Y021400D02*
X015263Y021400D01*
X015165Y021301D02*
X015035Y021301D01*
X015050Y021203D02*
X015150Y021203D01*
X015100Y020600D02*
X015100Y019600D01*
X012600Y017100D01*
X012600Y015250D01*
X012403Y015250D02*
X012403Y017403D01*
X014600Y019600D01*
X014600Y020100D01*
X014377Y020513D02*
X014280Y020513D01*
X014100Y020600D02*
X014100Y019600D01*
X012206Y017706D01*
X012206Y015250D01*
X012009Y015250D02*
X012009Y018009D01*
X013600Y019600D01*
X013600Y020100D01*
X013377Y020513D02*
X013280Y020513D01*
X013100Y020600D02*
X013100Y019600D01*
X011813Y018313D01*
X011813Y015250D01*
X011616Y015250D02*
X011616Y018616D01*
X012600Y019600D01*
X012600Y020100D01*
X012377Y020513D02*
X012280Y020513D01*
X012100Y020600D02*
X012100Y019600D01*
X011419Y018919D01*
X011419Y015250D01*
X011222Y015250D02*
X011222Y019722D01*
X011600Y020100D01*
X011278Y020415D02*
X011205Y020415D01*
X011205Y020513D02*
X011377Y020513D01*
X011025Y020675D02*
X011025Y015250D01*
X010828Y015250D02*
X010828Y015872D01*
X010600Y016100D01*
X010019Y015194D02*
X009761Y015194D01*
X009859Y015096D02*
X010019Y015096D01*
X010019Y014997D02*
X009958Y014997D01*
X009744Y014702D02*
X008331Y014702D01*
X008429Y014800D02*
X009645Y014800D01*
X009547Y014899D02*
X008528Y014899D01*
X009025Y014505D02*
X007950Y014505D01*
X007852Y014603D02*
X009043Y014603D01*
X009025Y014406D02*
X008049Y014406D01*
X008147Y014308D02*
X009025Y014308D01*
X009450Y014069D02*
X008131Y014069D01*
X007100Y015100D01*
X007100Y017100D01*
X006752Y017066D02*
X002780Y017066D01*
X002780Y017164D02*
X006752Y017164D01*
X006752Y017263D02*
X002780Y017263D01*
X002780Y017361D02*
X006752Y017361D01*
X006752Y016967D02*
X006362Y016967D01*
X006461Y016869D02*
X006752Y016869D01*
X006810Y016770D02*
X006545Y016770D01*
X006545Y016672D02*
X006920Y016672D01*
X006920Y015982D02*
X003854Y015982D01*
X003953Y015884D02*
X006920Y015884D01*
X006920Y015785D02*
X004050Y015785D01*
X004050Y015687D02*
X006920Y015687D01*
X006920Y015588D02*
X004050Y015588D01*
X004050Y015490D02*
X005832Y015490D01*
X005733Y015391D02*
X004027Y015391D01*
X003929Y015293D02*
X005635Y015293D01*
X005635Y015194D02*
X003830Y015194D01*
X003839Y014997D02*
X005635Y014997D01*
X005644Y014899D02*
X003938Y014899D01*
X004036Y014800D02*
X005742Y014800D01*
X005841Y014702D02*
X004050Y014702D01*
X004050Y014603D02*
X007342Y014603D01*
X007244Y014702D02*
X006359Y014702D01*
X006293Y014635D02*
X006565Y014907D01*
X006565Y015070D01*
X006130Y015070D01*
X006130Y014635D01*
X006293Y014635D01*
X006130Y014702D02*
X006070Y014702D01*
X006070Y014800D02*
X006130Y014800D01*
X006130Y014899D02*
X006070Y014899D01*
X006070Y014997D02*
X006130Y014997D01*
X006130Y015096D02*
X006920Y015096D01*
X006920Y015194D02*
X006565Y015194D01*
X006565Y015293D02*
X006920Y015293D01*
X006920Y015391D02*
X006467Y015391D01*
X006368Y015490D02*
X006920Y015490D01*
X007280Y015490D02*
X007860Y015490D01*
X007920Y015588D02*
X007280Y015588D01*
X007280Y015687D02*
X007920Y015687D01*
X007920Y015785D02*
X007280Y015785D01*
X007280Y015884D02*
X007920Y015884D01*
X007920Y015982D02*
X007280Y015982D01*
X007280Y015391D02*
X007762Y015391D01*
X007663Y015293D02*
X007280Y015293D01*
X007280Y015194D02*
X007655Y015194D01*
X007655Y015096D02*
X007359Y015096D01*
X007458Y014997D02*
X007655Y014997D01*
X007672Y014899D02*
X007556Y014899D01*
X007655Y014800D02*
X007771Y014800D01*
X007753Y014702D02*
X007869Y014702D01*
X007539Y014406D02*
X004042Y014406D01*
X004050Y014505D02*
X007441Y014505D01*
X007638Y014308D02*
X003944Y014308D01*
X003845Y014209D02*
X007736Y014209D01*
X007835Y014111D02*
X003365Y014111D01*
X003267Y014012D02*
X007933Y014012D01*
X008032Y013914D02*
X003168Y013914D01*
X003070Y013815D02*
X008252Y013815D01*
X008252Y013717D02*
X002971Y013717D01*
X002873Y013618D02*
X008252Y013618D01*
X008252Y013520D02*
X004083Y013520D01*
X004235Y013421D02*
X006341Y013421D01*
X006243Y013323D02*
X004315Y013323D01*
X004356Y013224D02*
X006190Y013224D01*
X006190Y013126D02*
X004370Y013126D01*
X004370Y013027D02*
X006190Y013027D01*
X006192Y012929D02*
X004336Y012929D01*
X004286Y012830D02*
X006290Y012830D01*
X006910Y012830D02*
X007290Y012830D01*
X007192Y012929D02*
X007008Y012929D01*
X007010Y013027D02*
X007190Y013027D01*
X007190Y013126D02*
X007010Y013126D01*
X007010Y013224D02*
X007190Y013224D01*
X007243Y013323D02*
X006957Y013323D01*
X006859Y013421D02*
X007341Y013421D01*
X007859Y013421D02*
X008252Y013421D01*
X008257Y013323D02*
X007957Y013323D01*
X009450Y012297D02*
X012403Y012297D01*
X013850Y014350D02*
X013978Y014478D01*
X013978Y015250D01*
X013781Y015250D02*
X013781Y015531D01*
X016600Y018350D01*
X016850Y018350D01*
X016654Y018149D02*
X017395Y018149D01*
X017296Y018051D02*
X016555Y018051D01*
X016457Y017952D02*
X017198Y017952D01*
X017099Y017854D02*
X016358Y017854D01*
X016260Y017755D02*
X017000Y017755D01*
X016902Y017657D02*
X016161Y017657D01*
X016063Y017558D02*
X016803Y017558D01*
X016705Y017460D02*
X015964Y017460D01*
X015866Y017361D02*
X016606Y017361D01*
X016600Y017100D02*
X020600Y021100D01*
X020366Y020612D02*
X022100Y020612D01*
X022100Y020710D02*
X021155Y020710D01*
X021265Y020809D02*
X022100Y020809D01*
X022100Y020907D02*
X021327Y020907D01*
X021368Y021006D02*
X022100Y021006D01*
X022100Y021104D02*
X021370Y021104D01*
X021365Y021203D02*
X022100Y021203D01*
X022100Y021301D02*
X021324Y021301D01*
X021257Y021400D02*
X022100Y021400D01*
X022100Y021498D02*
X021135Y021498D01*
X022100Y021597D02*
X001597Y021597D01*
X001695Y021695D02*
X022100Y021695D01*
X022100Y021794D02*
X001794Y021794D01*
X001892Y021892D02*
X022100Y021892D01*
X022100Y021991D02*
X001991Y021991D01*
X002089Y022089D02*
X022100Y022089D01*
X022100Y022100D02*
X022100Y000600D01*
X000600Y000600D01*
X000600Y020600D01*
X002100Y022100D01*
X022100Y022100D01*
X022100Y020513D02*
X021099Y020513D01*
X021242Y020415D02*
X022100Y020415D01*
X022100Y020316D02*
X021318Y020316D01*
X021358Y020218D02*
X022100Y020218D01*
X022100Y020119D02*
X021370Y020119D01*
X021370Y020021D02*
X022100Y020021D01*
X022100Y019922D02*
X021333Y019922D01*
X021280Y019824D02*
X022100Y019824D01*
X022100Y019725D02*
X021181Y019725D01*
X021062Y019528D02*
X022100Y019528D01*
X022100Y019430D02*
X021227Y019430D01*
X021311Y019331D02*
X022100Y019331D01*
X022100Y019233D02*
X021352Y019233D01*
X021370Y019134D02*
X022100Y019134D01*
X022100Y019036D02*
X021370Y019036D01*
X021340Y018937D02*
X022100Y018937D01*
X022100Y018839D02*
X021295Y018839D01*
X021196Y018740D02*
X022100Y018740D01*
X022100Y018642D02*
X020396Y018642D01*
X020600Y019100D02*
X017600Y016100D01*
X016100Y016100D01*
X015250Y015250D01*
X014962Y015250D01*
X014765Y015250D02*
X014765Y015515D01*
X015850Y016600D01*
X017100Y016600D01*
X020600Y020100D01*
X020381Y019627D02*
X022100Y019627D01*
X022100Y018543D02*
X021026Y018543D01*
X021212Y018445D02*
X022100Y018445D01*
X022100Y018346D02*
X021305Y018346D01*
X021346Y018248D02*
X022100Y018248D01*
X022100Y018149D02*
X021370Y018149D01*
X021370Y018051D02*
X022100Y018051D01*
X022100Y017952D02*
X021346Y017952D01*
X021305Y017854D02*
X022100Y017854D01*
X022100Y017755D02*
X021211Y017755D01*
X021025Y017657D02*
X022100Y017657D01*
X022100Y017558D02*
X020313Y017558D01*
X019989Y017755D02*
X019510Y017755D01*
X019608Y017854D02*
X019895Y017854D01*
X019854Y017952D02*
X019707Y017952D01*
X019805Y018051D02*
X019830Y018051D01*
X019902Y017657D02*
X019411Y017657D01*
X019313Y017558D02*
X019803Y017558D01*
X019705Y017460D02*
X019214Y017460D01*
X019116Y017361D02*
X019606Y017361D01*
X019508Y017263D02*
X019017Y017263D01*
X018919Y017164D02*
X019409Y017164D01*
X019311Y017066D02*
X018820Y017066D01*
X018722Y016967D02*
X019212Y016967D01*
X019114Y016869D02*
X018623Y016869D01*
X018525Y016770D02*
X019015Y016770D01*
X018917Y016672D02*
X018426Y016672D01*
X018328Y016573D02*
X018818Y016573D01*
X018720Y016475D02*
X018229Y016475D01*
X018131Y016376D02*
X018621Y016376D01*
X018523Y016278D02*
X018032Y016278D01*
X017934Y016179D02*
X018424Y016179D01*
X018326Y016081D02*
X017835Y016081D01*
X017737Y015982D02*
X018227Y015982D01*
X018129Y015884D02*
X016138Y015884D01*
X016040Y015785D02*
X018030Y015785D01*
X018100Y015600D02*
X020600Y018100D01*
X021197Y017460D02*
X022100Y017460D01*
X022100Y017361D02*
X021295Y017361D01*
X021340Y017263D02*
X022100Y017263D01*
X022100Y017164D02*
X021370Y017164D01*
X021370Y017066D02*
X022100Y017066D01*
X022100Y016967D02*
X021352Y016967D01*
X021311Y016869D02*
X022100Y016869D01*
X022100Y016770D02*
X021226Y016770D01*
X021062Y016672D02*
X022100Y016672D01*
X022100Y016573D02*
X020328Y016573D01*
X020600Y017100D02*
X018600Y015100D01*
X017100Y015100D01*
X016265Y014265D01*
X015750Y014265D01*
X015750Y014069D02*
X016569Y014069D01*
X017100Y014600D01*
X019100Y014600D01*
X020600Y016100D01*
X020343Y015588D02*
X022100Y015588D01*
X022100Y015490D02*
X021155Y015490D01*
X021265Y015391D02*
X022100Y015391D01*
X022100Y015293D02*
X021327Y015293D01*
X021368Y015194D02*
X022100Y015194D01*
X022100Y015096D02*
X021370Y015096D01*
X021364Y014997D02*
X022100Y014997D01*
X022100Y014899D02*
X021324Y014899D01*
X021256Y014800D02*
X022100Y014800D01*
X022100Y014702D02*
X021134Y014702D01*
X021119Y014505D02*
X022100Y014505D01*
X022100Y014603D02*
X020358Y014603D01*
X020600Y015100D02*
X019600Y014100D01*
X017100Y014100D01*
X016872Y013872D01*
X015750Y013872D01*
X015750Y013675D02*
X020175Y013675D01*
X020600Y014100D01*
X021170Y013717D02*
X022100Y013717D01*
X022100Y013815D02*
X021271Y013815D01*
X021330Y013914D02*
X022100Y013914D01*
X022100Y014012D02*
X021370Y014012D01*
X021370Y014111D02*
X022100Y014111D01*
X022100Y014209D02*
X021362Y014209D01*
X021321Y014308D02*
X022100Y014308D01*
X022100Y014406D02*
X021250Y014406D01*
X021320Y013126D02*
X017280Y013126D01*
X017236Y012732D02*
X019477Y012732D01*
X018100Y015600D02*
X016600Y015600D01*
X015750Y014750D01*
X015750Y014462D01*
X015570Y014702D02*
X014158Y014702D01*
X014158Y014800D02*
X015570Y014800D01*
X015644Y014899D02*
X015159Y014899D01*
X015161Y014997D02*
X015742Y014997D01*
X015841Y015096D02*
X015350Y015096D01*
X015449Y015194D02*
X015939Y015194D01*
X016038Y015293D02*
X015547Y015293D01*
X015646Y015391D02*
X016136Y015391D01*
X016235Y015490D02*
X015744Y015490D01*
X015843Y015588D02*
X016333Y015588D01*
X016432Y015687D02*
X015941Y015687D01*
X015220Y016475D02*
X014979Y016475D01*
X015078Y016573D02*
X015318Y016573D01*
X015417Y016672D02*
X015176Y016672D01*
X015275Y016770D02*
X015515Y016770D01*
X015614Y016869D02*
X015373Y016869D01*
X015472Y016967D02*
X015712Y016967D01*
X015811Y017066D02*
X015570Y017066D01*
X015669Y017164D02*
X015909Y017164D01*
X016008Y017263D02*
X015767Y017263D01*
X016100Y017100D02*
X016600Y017100D01*
X016100Y017100D02*
X014569Y015569D01*
X014569Y015250D01*
X014432Y015687D02*
X014295Y015687D01*
X014290Y015785D02*
X014530Y015785D01*
X014629Y015884D02*
X014388Y015884D01*
X014487Y015982D02*
X014727Y015982D01*
X014826Y016081D02*
X014585Y016081D01*
X014684Y016179D02*
X014924Y016179D01*
X015023Y016278D02*
X014782Y016278D01*
X014881Y016376D02*
X015121Y016376D01*
X014175Y014898D02*
X014175Y014898D01*
X014175Y014804D01*
X014175Y014898D01*
X014175Y014898D01*
X014158Y014603D02*
X015342Y014603D01*
X012797Y015250D02*
X012797Y016797D01*
X015600Y019600D01*
X015600Y020100D01*
X015377Y020513D02*
X015280Y020513D01*
X014362Y021498D02*
X013838Y021498D01*
X013937Y021400D02*
X014263Y021400D01*
X014165Y021301D02*
X014035Y021301D01*
X014050Y021203D02*
X014150Y021203D01*
X013362Y021498D02*
X012838Y021498D01*
X012937Y021400D02*
X013263Y021400D01*
X013165Y021301D02*
X013035Y021301D01*
X013050Y021203D02*
X013150Y021203D01*
X012362Y021498D02*
X011838Y021498D01*
X011937Y021400D02*
X012263Y021400D01*
X012165Y021301D02*
X012035Y021301D01*
X012050Y021203D02*
X012150Y021203D01*
X010354Y020710D02*
X004155Y020710D01*
X004099Y020513D02*
X010377Y020513D01*
X005892Y016179D02*
X003815Y016179D01*
X003914Y016278D02*
X005793Y016278D01*
X005695Y016376D02*
X004012Y016376D01*
X003968Y016869D02*
X005739Y016869D01*
X005838Y016967D02*
X003869Y016967D01*
X002332Y014997D02*
X001780Y014997D01*
X001780Y014899D02*
X002234Y014899D01*
X002135Y014800D02*
X001780Y014800D01*
X001780Y014702D02*
X002130Y014702D01*
X002780Y013520D02*
X003117Y013520D01*
X002965Y013421D02*
X002780Y013421D01*
X002780Y013323D02*
X002885Y013323D01*
X002844Y013224D02*
X002780Y013224D01*
X002780Y013126D02*
X002830Y013126D01*
X002830Y013027D02*
X002780Y013027D01*
X002780Y012929D02*
X002864Y012929D01*
X002914Y012830D02*
X002780Y012830D01*
X002780Y012732D02*
X003012Y012732D01*
X002995Y011451D02*
X002780Y011451D01*
X002780Y011353D02*
X002898Y011353D01*
X002857Y011254D02*
X002780Y011254D01*
X002780Y011156D02*
X002830Y011156D01*
X002830Y011057D02*
X002780Y011057D01*
X002780Y010959D02*
X002852Y010959D01*
X002892Y010860D02*
X002780Y010860D01*
X002780Y010762D02*
X002982Y010762D01*
X003159Y010663D02*
X002780Y010663D01*
X002780Y010565D02*
X004310Y010565D01*
X004408Y010663D02*
X004041Y010663D01*
X004218Y010762D02*
X004507Y010762D01*
X004605Y010860D02*
X004308Y010860D01*
X004348Y010959D02*
X004704Y010959D01*
X004802Y011057D02*
X004370Y011057D01*
X004211Y010466D02*
X004190Y010466D01*
X004100Y010100D02*
X003600Y010100D01*
X003010Y010466D02*
X002780Y010466D01*
X002780Y010368D02*
X002911Y010368D01*
X002863Y010269D02*
X002780Y010269D01*
X002780Y010171D02*
X002830Y010171D01*
X002830Y010072D02*
X002780Y010072D01*
X002780Y009974D02*
X002845Y009974D01*
X002886Y009875D02*
X002780Y009875D01*
X002600Y009600D02*
X007600Y009600D01*
X008328Y010328D01*
X009450Y010328D01*
X009450Y010525D02*
X006025Y010525D01*
X005600Y010100D01*
X005222Y010722D02*
X004850Y010350D01*
X005222Y010722D02*
X009450Y010722D01*
X009450Y011116D02*
X005116Y011116D01*
X004100Y010100D01*
X003600Y011100D02*
X003813Y011313D01*
X009450Y011313D01*
X009450Y011509D02*
X008191Y011509D01*
X007237Y010345D02*
X007170Y010278D01*
X007170Y010130D01*
X007570Y010130D01*
X007570Y010070D01*
X007170Y010070D01*
X007170Y009922D01*
X007312Y009780D01*
X006860Y009780D01*
X007010Y009930D01*
X007010Y010270D01*
X006935Y010345D01*
X007237Y010345D01*
X007170Y010269D02*
X007010Y010269D01*
X007010Y010171D02*
X007170Y010171D01*
X007010Y010072D02*
X007570Y010072D01*
X007217Y009875D02*
X006955Y009875D01*
X007010Y009974D02*
X007170Y009974D01*
X008100Y008600D02*
X009238Y009738D01*
X009450Y009738D01*
X009236Y009481D02*
X014714Y009481D01*
X014616Y009580D02*
X009840Y009580D01*
X009137Y009383D02*
X011090Y009383D01*
X011222Y009383D02*
X011222Y009383D01*
X011222Y009396D02*
X011222Y009302D01*
X011222Y009302D01*
X011222Y009302D01*
X011222Y009396D01*
X011354Y009383D02*
X014813Y009383D01*
X015944Y007511D02*
X016252Y007511D01*
X016252Y007413D02*
X016042Y007413D01*
X016141Y007314D02*
X016266Y007314D01*
X019156Y008299D02*
X019945Y008299D01*
X020068Y008201D02*
X019254Y008201D01*
X019936Y007019D02*
X020115Y007019D01*
X019919Y009875D02*
X019080Y009875D01*
X018981Y009974D02*
X020017Y009974D01*
X021098Y015687D02*
X022100Y015687D01*
X022100Y015785D02*
X021241Y015785D01*
X021317Y015884D02*
X022100Y015884D01*
X022100Y015982D02*
X021358Y015982D01*
X021370Y016081D02*
X022100Y016081D01*
X022100Y016179D02*
X021370Y016179D01*
X021334Y016278D02*
X022100Y016278D01*
X022100Y016376D02*
X021280Y016376D01*
X021182Y016475D02*
X022100Y016475D01*
X011813Y008950D02*
X011813Y006387D01*
X012100Y006100D01*
X012100Y005100D01*
X013100Y004100D01*
X013100Y002100D01*
X012600Y001600D01*
X012267Y001897D02*
X008933Y001897D01*
X008834Y001995D02*
X012366Y001995D01*
X012169Y001798D02*
X009031Y001798D01*
X009045Y001700D02*
X012155Y001700D01*
X012155Y001601D02*
X009045Y001601D01*
X009045Y001503D02*
X010394Y001503D01*
X010422Y001530D02*
X010170Y001278D01*
X010170Y001130D01*
X010570Y001130D01*
X010570Y001530D01*
X010422Y001530D01*
X010570Y001503D02*
X010630Y001503D01*
X010630Y001530D02*
X010630Y001130D01*
X010570Y001130D01*
X010570Y001070D01*
X010170Y001070D01*
X010170Y000922D01*
X010422Y000670D01*
X010570Y000670D01*
X010570Y001070D01*
X010630Y001070D01*
X010630Y001130D01*
X011030Y001130D01*
X011030Y001278D01*
X010778Y001530D01*
X010630Y001530D01*
X010630Y001404D02*
X010570Y001404D01*
X010570Y001306D02*
X010630Y001306D01*
X010630Y001207D02*
X010570Y001207D01*
X010570Y001109D02*
X000600Y001109D01*
X000600Y001207D02*
X008364Y001207D01*
X008265Y001306D02*
X000600Y001306D01*
X000600Y001404D02*
X008167Y001404D01*
X008155Y001503D02*
X006257Y001503D01*
X006356Y001601D02*
X008155Y001601D01*
X008155Y001700D02*
X006454Y001700D01*
X006553Y001798D02*
X008147Y001798D01*
X008049Y001897D02*
X006850Y001897D01*
X006951Y001995D02*
X007950Y001995D01*
X007852Y002094D02*
X007010Y002094D01*
X007050Y002192D02*
X007753Y002192D01*
X007655Y002291D02*
X007050Y002291D01*
X007050Y002389D02*
X007556Y002389D01*
X007600Y002600D02*
X008600Y001600D01*
X008935Y001306D02*
X010197Y001306D01*
X010170Y001207D02*
X008836Y001207D01*
X009033Y001404D02*
X010296Y001404D01*
X010170Y001010D02*
X000600Y001010D01*
X000600Y000912D02*
X010180Y000912D01*
X010279Y000813D02*
X000600Y000813D01*
X000600Y000715D02*
X010377Y000715D01*
X010570Y000715D02*
X010630Y000715D01*
X010630Y000670D02*
X010778Y000670D01*
X011030Y000922D01*
X011030Y001070D01*
X010630Y001070D01*
X010630Y000670D01*
X010630Y000813D02*
X010570Y000813D01*
X010570Y000912D02*
X010630Y000912D01*
X010630Y001010D02*
X010570Y001010D01*
X010630Y001109D02*
X022100Y001109D01*
X022100Y001207D02*
X017287Y001207D01*
X017385Y001306D02*
X022100Y001306D01*
X022100Y001404D02*
X017484Y001404D01*
X017510Y001503D02*
X022100Y001503D01*
X022100Y001601D02*
X017510Y001601D01*
X017510Y001700D02*
X022100Y001700D01*
X022100Y001798D02*
X017482Y001798D01*
X017383Y001897D02*
X022100Y001897D01*
X022100Y001995D02*
X017285Y001995D01*
X016690Y001700D02*
X014530Y001700D01*
X014510Y001798D02*
X016647Y001798D01*
X016815Y001306D02*
X014414Y001306D01*
X014315Y001207D02*
X016913Y001207D01*
X014130Y001207D02*
X014070Y001207D01*
X014070Y001170D02*
X014070Y001570D01*
X013670Y001570D01*
X013670Y001422D01*
X013922Y001170D01*
X014070Y001170D01*
X014070Y001306D02*
X014130Y001306D01*
X014130Y001404D02*
X014070Y001404D01*
X014070Y001503D02*
X014130Y001503D01*
X014070Y001601D02*
X013045Y001601D01*
X013045Y001503D02*
X013670Y001503D01*
X013688Y001404D02*
X013033Y001404D01*
X012935Y001306D02*
X013786Y001306D01*
X013885Y001207D02*
X012836Y001207D01*
X012364Y001207D02*
X011030Y001207D01*
X011003Y001306D02*
X012265Y001306D01*
X012167Y001404D02*
X010904Y001404D01*
X010806Y001503D02*
X012155Y001503D01*
X012839Y002094D02*
X008361Y002094D01*
X008263Y002192D02*
X012920Y002192D01*
X012920Y002291D02*
X008164Y002291D01*
X008066Y002389D02*
X012920Y002389D01*
X012920Y002488D02*
X007967Y002488D01*
X007869Y002586D02*
X012920Y002586D01*
X012920Y002685D02*
X007770Y002685D01*
X007600Y002600D02*
X006600Y002600D01*
X006150Y002685D02*
X006050Y002685D01*
X006050Y002783D02*
X006150Y002783D01*
X006150Y002882D02*
X006050Y002882D01*
X006050Y002980D02*
X006150Y002980D01*
X006179Y003079D02*
X006021Y003079D01*
X005979Y003177D02*
X006221Y003177D01*
X006319Y003276D02*
X005881Y003276D01*
X005818Y004064D02*
X008809Y004064D01*
X008907Y004162D02*
X005917Y004162D01*
X006881Y003276D02*
X008295Y003276D01*
X008394Y003177D02*
X006979Y003177D01*
X007021Y003079D02*
X012920Y003079D01*
X012920Y003177D02*
X012806Y003177D01*
X012905Y003276D02*
X012920Y003276D01*
X012920Y002980D02*
X007050Y002980D01*
X007050Y002882D02*
X012920Y002882D01*
X012920Y002783D02*
X007050Y002783D01*
X008806Y003177D02*
X012394Y003177D01*
X012155Y003768D02*
X010848Y003768D01*
X010946Y003867D02*
X012079Y003867D01*
X011980Y003965D02*
X011010Y003965D01*
X011010Y004064D02*
X011882Y004064D01*
X011783Y004162D02*
X011010Y004162D01*
X011010Y004261D02*
X011685Y004261D01*
X011586Y004359D02*
X010921Y004359D01*
X010822Y004458D02*
X011488Y004458D01*
X012100Y005100D02*
X011616Y005584D01*
X011616Y008950D01*
X011239Y006723D02*
X009478Y006723D01*
X008953Y007708D02*
X006816Y007708D01*
X006915Y007807D02*
X009052Y007807D01*
X009150Y007905D02*
X007013Y007905D01*
X003556Y002389D02*
X003550Y002389D01*
X003550Y002291D02*
X003655Y002291D01*
X003753Y002192D02*
X003550Y002192D01*
X003510Y002094D02*
X003852Y002094D01*
X003950Y001995D02*
X003451Y001995D01*
X003350Y001897D02*
X004049Y001897D01*
X004147Y001798D02*
X000600Y001798D01*
X000600Y001700D02*
X004246Y001700D01*
X004344Y001601D02*
X000600Y001601D01*
X000600Y001503D02*
X004443Y001503D01*
X000600Y000616D02*
X022100Y000616D01*
X022100Y000715D02*
X010823Y000715D01*
X010921Y000813D02*
X022100Y000813D01*
X022100Y000912D02*
X011020Y000912D01*
X011030Y001010D02*
X022100Y001010D01*
X014130Y001700D02*
X014070Y001700D01*
X014070Y001798D02*
X014130Y001798D01*
X014130Y001897D02*
X014070Y001897D01*
X014070Y001995D02*
X014130Y001995D01*
X013887Y001995D02*
X013250Y001995D01*
X013175Y001920D02*
X013175Y001920D01*
X013151Y001897D02*
X013788Y001897D01*
X013690Y001798D02*
X013053Y001798D01*
X013045Y001700D02*
X013670Y001700D01*
X007145Y014800D02*
X006458Y014800D01*
X006556Y014899D02*
X007047Y014899D01*
X006948Y014997D02*
X006565Y014997D01*
X006130Y015194D02*
X006070Y015194D01*
X006070Y015293D02*
X006130Y015293D01*
X006130Y015391D02*
X006070Y015391D01*
X006070Y015490D02*
X006130Y015490D01*
X002935Y020809D02*
X000809Y020809D01*
X000907Y020907D02*
X002873Y020907D01*
X002832Y021006D02*
X001006Y021006D01*
X001104Y021104D02*
X002830Y021104D01*
X002835Y021203D02*
X001203Y021203D01*
X001301Y021301D02*
X002876Y021301D01*
X002943Y021400D02*
X001400Y021400D01*
X001498Y021498D02*
X003065Y021498D01*
D19*
X007100Y017100D03*
X009600Y016100D03*
X008600Y013600D03*
X005600Y010100D03*
X004850Y010350D03*
X008100Y007600D03*
X012100Y005100D03*
X016600Y007600D03*
X017600Y012600D03*
X016600Y013100D03*
X014600Y013600D03*
X003100Y005100D03*
M02*
