%
M48
M72
T01C0.0236
T02C0.0240
T03C0.0320
T04C0.0400
%
T01
X3100Y5100
X5600Y10100
X4850Y10350
X8100Y7600
X12100Y5100
X16600Y7600
X17600Y12600
X16600Y13100
X14600Y13600
X9600Y16100
X8600Y13600
X7100Y17100
T02
X10100Y6100
X12100Y6100
T03
X10600Y4100
X8600Y3600
X8600Y1600
X10600Y1100
X12600Y1600
X14100Y1600
X12600Y3600
X17100Y1600
X7600Y10100
X6600Y10100
X6600Y8100
X6600Y5100
X6600Y13100
X7600Y13100
X8100Y15100
X8100Y16600
X8100Y18100
X8100Y19600
X6100Y19600
X6100Y18100
X6100Y16600
X6100Y15100
T04
X2100Y2600
X3100Y2600
X5600Y2600
X6600Y2600
X3600Y6100
X3600Y7100
X3600Y8100
X3600Y9100
X3600Y10100
X3600Y11100
X3600Y12100
X3600Y13100
X3600Y14600
X3600Y15600
X2600Y15600
X2600Y14600
X2600Y16600
X3600Y16600
X3600Y19100
X3600Y20100
X3600Y21100
X10600Y21100
X10600Y20100
X11600Y20100
X11600Y21100
X12600Y21100
X12600Y20100
X13600Y20100
X13600Y21100
X14600Y21100
X14600Y20100
X15600Y20100
X15600Y21100
X16600Y21100
X16600Y20100
X17600Y20100
X17600Y21100
X20600Y21100
X20600Y20100
X20600Y19100
X20600Y18100
X20600Y17100
X20600Y16100
X20600Y15100
X20600Y14100
X20600Y12600
X20600Y11600
X20600Y10600
X20600Y9600
X20600Y8600
X20600Y7600
X20600Y6600
X20600Y5600
X19100Y4600
X18100Y4600
X18100Y3600
X19100Y3600
X17100Y3600
X16100Y3600
X16100Y4600
X17100Y4600
X15100Y4600
X15100Y3600
M30
