G75*
G70*
%OFA0B0*%
%FSLAX24Y24*%
%IPPOS*%
%LPD*%
%AMOC8*
5,1,8,0,0,1.08239X$1,22.5*
%
%ADD10C,0.0440*%
%ADD11OC8,0.0630*%
%ADD12C,0.0600*%
%ADD13OC8,0.0520*%
%ADD14OC8,0.0600*%
%ADD15C,0.0100*%
%ADD16R,0.0396X0.0396*%
%ADD17C,0.0160*%
%ADD18C,0.0400*%
D10*
X014100Y004880D02*
X014100Y005320D01*
X016100Y005320D02*
X016100Y004880D01*
D11*
X015100Y008100D03*
X013100Y008100D03*
X009600Y005100D03*
X007600Y005100D03*
X007600Y023600D03*
X005600Y023600D03*
X005600Y026600D03*
X004100Y026600D03*
X002100Y026600D03*
X007600Y026600D03*
D12*
X002400Y024100D02*
X001800Y024100D01*
X001800Y023100D02*
X002400Y023100D01*
X002400Y022100D02*
X001800Y022100D01*
X015100Y026300D02*
X015100Y026900D01*
X016100Y026900D02*
X016100Y026300D01*
X017100Y026300D02*
X017100Y026900D01*
X018100Y026900D02*
X018100Y026300D01*
X019100Y026300D02*
X019100Y026900D01*
X020100Y026900D02*
X020100Y026300D01*
X023600Y027300D02*
X023600Y027900D01*
X024600Y027900D02*
X024600Y027300D01*
X025600Y027300D02*
X025600Y027900D01*
X025600Y003400D02*
X025600Y002800D01*
X024600Y002800D02*
X024600Y003400D01*
X023600Y003400D02*
X023600Y002800D01*
X022600Y002800D02*
X022600Y003400D01*
X021600Y003400D02*
X021600Y002800D01*
X020600Y002800D02*
X020600Y003400D01*
D13*
X021600Y007600D03*
X022600Y009600D03*
X019600Y009600D03*
X018600Y007600D03*
X007100Y017600D03*
X007100Y019600D03*
X004100Y004600D03*
X003100Y004600D03*
X003100Y001600D03*
X004100Y001600D03*
D14*
X004100Y007100D03*
X005100Y007100D03*
X005100Y008100D03*
X004100Y008100D03*
X003100Y008100D03*
X002100Y008100D03*
X002100Y007100D03*
X003100Y007100D03*
X003100Y009600D03*
X003100Y010600D03*
X002100Y010600D03*
X002100Y009600D03*
X004100Y009600D03*
X004100Y010600D03*
X005100Y010600D03*
X005100Y009600D03*
X006100Y012600D03*
X006100Y013600D03*
X006100Y014600D03*
X007100Y014600D03*
X007100Y013600D03*
X007100Y012600D03*
X023600Y025600D03*
X023600Y026600D03*
X024600Y026600D03*
X024600Y025600D03*
X025600Y025600D03*
X025600Y026600D03*
X025600Y019100D03*
X025600Y018100D03*
X025600Y017100D03*
X025600Y016100D03*
X025600Y015100D03*
X025600Y014100D03*
X024600Y014100D03*
X024600Y015100D03*
X024600Y016100D03*
X024600Y017100D03*
X024600Y018100D03*
X024600Y019100D03*
X024600Y012100D03*
X024600Y011100D03*
X025600Y011100D03*
X025600Y012100D03*
X026600Y012100D03*
X026600Y011100D03*
D15*
X022600Y009600D02*
X022600Y003100D01*
X021600Y003100D02*
X021600Y007600D01*
X023600Y003100D02*
X022100Y001600D01*
X006100Y001600D01*
X006100Y008100D01*
X006100Y011100D01*
X002600Y011100D01*
X002100Y010600D01*
X002100Y009600D01*
X002100Y008100D01*
X002100Y007100D01*
X003100Y007100D02*
X003100Y008100D01*
X003100Y009600D01*
X003100Y010600D01*
X004100Y010600D02*
X004100Y009600D01*
X004100Y008100D01*
X004100Y007100D01*
X004100Y004600D01*
X003100Y004600D02*
X003100Y007100D01*
X006100Y011100D02*
X006100Y012600D01*
X005600Y012600D01*
X005600Y023600D01*
X005100Y023600D01*
X003600Y025100D01*
X004100Y025100D01*
X004600Y025600D01*
X022600Y025600D01*
X023600Y026600D01*
X024600Y026600D01*
X025600Y026600D01*
X021100Y018100D02*
X020600Y017600D01*
X018600Y017600D01*
X017100Y019100D01*
X012100Y019100D02*
X011100Y019100D01*
X010600Y018600D01*
X007100Y017600D02*
X007100Y014600D01*
X015100Y008100D02*
X016100Y008100D01*
X016100Y005100D01*
X014100Y005100D02*
X009600Y005100D01*
X006100Y001600D02*
X004100Y001600D01*
X003100Y001600D01*
X002100Y023100D02*
X002600Y023600D01*
X005100Y023600D01*
X003600Y025100D02*
X002100Y026600D01*
X004600Y025600D02*
X005600Y026600D01*
D16*
X010600Y019600D03*
X011600Y018600D03*
X011600Y018100D03*
X011600Y017100D03*
X011100Y016600D03*
X011100Y016100D03*
X012100Y015100D03*
X014600Y014100D03*
X015100Y014600D03*
X016100Y014600D03*
X015100Y017100D03*
X012600Y019100D03*
X013600Y020100D03*
X010600Y017600D03*
X008600Y014100D03*
X008100Y014100D03*
X009600Y012100D03*
X010100Y012100D03*
X009600Y010600D03*
X010100Y010100D03*
X006100Y008100D03*
X014600Y006100D03*
X016600Y008600D03*
X017600Y011100D03*
X018100Y011600D03*
X022600Y014600D03*
X023600Y015600D03*
X023600Y016600D03*
X023600Y017600D03*
X022600Y017600D03*
X022600Y018600D03*
X021100Y017100D03*
X020600Y018600D03*
X019600Y019600D03*
X018600Y020100D03*
X019100Y018100D03*
X018600Y017100D03*
X025600Y021600D03*
X022600Y024600D03*
X025600Y010100D03*
D17*
X028490Y000600D02*
X000600Y000600D01*
X000600Y029100D01*
X028490Y029100D01*
X028490Y000600D01*
X028490Y000734D02*
X000600Y000734D01*
X000600Y000893D02*
X028490Y000893D01*
X028490Y001051D02*
X000600Y001051D01*
X000600Y001210D02*
X002897Y001210D01*
X002926Y001180D02*
X002680Y001426D01*
X002680Y001774D01*
X002926Y002020D01*
X003274Y002020D01*
X003484Y001810D01*
X003716Y001810D01*
X003926Y002020D01*
X004274Y002020D01*
X004484Y001810D01*
X005890Y001810D01*
X005890Y007742D01*
X005836Y007742D01*
X005742Y007836D01*
X005742Y008364D01*
X005836Y008458D01*
X005890Y008458D01*
X005890Y010890D01*
X005489Y010890D01*
X005580Y010799D01*
X005580Y010620D01*
X005120Y010620D01*
X005120Y010580D01*
X005580Y010580D01*
X005580Y010401D01*
X005299Y010120D01*
X005120Y010120D01*
X005120Y010580D01*
X005080Y010580D01*
X005080Y010120D01*
X004901Y010120D01*
X004620Y010401D01*
X004620Y010580D01*
X005080Y010580D01*
X005080Y010620D01*
X004620Y010620D01*
X004620Y010799D01*
X004711Y010890D01*
X004461Y010890D01*
X004560Y010791D01*
X004560Y010409D01*
X004310Y010159D01*
X004310Y010041D01*
X004560Y009791D01*
X004560Y009409D01*
X004310Y009159D01*
X004310Y008541D01*
X004560Y008291D01*
X004560Y007909D01*
X004310Y007659D01*
X004310Y007541D01*
X004560Y007291D01*
X004560Y006909D01*
X004310Y006659D01*
X004310Y004984D01*
X004520Y004774D01*
X004520Y004426D01*
X004274Y004180D01*
X003926Y004180D01*
X003680Y004426D01*
X003680Y004774D01*
X003890Y004984D01*
X003890Y006659D01*
X003640Y006909D01*
X003640Y007291D01*
X003890Y007541D01*
X003890Y007659D01*
X003640Y007909D01*
X003640Y008291D01*
X003890Y008541D01*
X003890Y009159D01*
X003640Y009409D01*
X003640Y009791D01*
X003890Y010041D01*
X003890Y010159D01*
X003640Y010409D01*
X003640Y010791D01*
X003739Y010890D01*
X003461Y010890D01*
X003560Y010791D01*
X003560Y010409D01*
X003310Y010159D01*
X003310Y010041D01*
X003560Y009791D01*
X003560Y009409D01*
X003310Y009159D01*
X003310Y008541D01*
X003560Y008291D01*
X003560Y007909D01*
X003310Y007659D01*
X003310Y007541D01*
X003560Y007291D01*
X003560Y006909D01*
X003310Y006659D01*
X003310Y004984D01*
X003520Y004774D01*
X003520Y004426D01*
X003274Y004180D01*
X002926Y004180D01*
X002680Y004426D01*
X002680Y004774D01*
X002890Y004984D01*
X002890Y006659D01*
X002640Y006909D01*
X002640Y007291D01*
X002890Y007541D01*
X002890Y007659D01*
X002640Y007909D01*
X002640Y008291D01*
X002890Y008541D01*
X002890Y009159D01*
X002640Y009409D01*
X002640Y009791D01*
X002890Y010041D01*
X002890Y010159D01*
X002640Y010409D01*
X002640Y010791D01*
X002739Y010890D01*
X002687Y010890D01*
X002560Y010763D01*
X002560Y010409D01*
X002310Y010159D01*
X002310Y010041D01*
X002560Y009791D01*
X002560Y009409D01*
X002310Y009159D01*
X002310Y008541D01*
X002560Y008291D01*
X002560Y007909D01*
X002310Y007659D01*
X002310Y007541D01*
X002560Y007291D01*
X002560Y006909D01*
X002291Y006640D01*
X001909Y006640D01*
X001640Y006909D01*
X001640Y007291D01*
X001890Y007541D01*
X001890Y007659D01*
X001640Y007909D01*
X001640Y008291D01*
X001890Y008541D01*
X001890Y009159D01*
X001640Y009409D01*
X001640Y009791D01*
X001890Y010041D01*
X001890Y010159D01*
X001640Y010409D01*
X001640Y010791D01*
X001909Y011060D01*
X002263Y011060D01*
X002513Y011310D01*
X005890Y011310D01*
X005890Y012159D01*
X005659Y012390D01*
X005513Y012390D01*
X005390Y012513D01*
X005390Y023138D01*
X005138Y023390D01*
X002761Y023390D01*
X002790Y023361D01*
X002860Y023191D01*
X002860Y023008D01*
X002790Y022839D01*
X002661Y022710D01*
X002491Y022640D01*
X001708Y022640D01*
X001539Y022710D01*
X001410Y022839D01*
X001340Y023008D01*
X001340Y023191D01*
X001410Y023361D01*
X001539Y023490D01*
X001708Y023560D01*
X002263Y023560D01*
X002323Y023620D01*
X002120Y023620D01*
X002120Y024080D01*
X002120Y024120D01*
X002080Y024120D01*
X002080Y024580D01*
X001762Y024580D01*
X001688Y024568D01*
X001616Y024545D01*
X001548Y024511D01*
X001487Y024466D01*
X001434Y024413D01*
X001389Y024352D01*
X001355Y024284D01*
X001332Y024212D01*
X001320Y024138D01*
X001320Y024120D01*
X002080Y024120D01*
X002080Y024080D01*
X002120Y024080D01*
X002880Y024080D01*
X002880Y024062D01*
X002868Y023988D01*
X002845Y023916D01*
X002811Y023848D01*
X002783Y023810D01*
X004593Y023810D01*
X003513Y024890D01*
X003390Y025013D01*
X002278Y026125D01*
X001903Y026125D01*
X001625Y026403D01*
X001625Y026797D01*
X001903Y027075D01*
X002297Y027075D01*
X002575Y026797D01*
X002575Y026422D01*
X003687Y025310D01*
X004013Y025310D01*
X004390Y025687D01*
X004513Y025810D01*
X005125Y026422D01*
X005125Y026797D01*
X005403Y027075D01*
X005797Y027075D01*
X006075Y026797D01*
X006075Y026403D01*
X005797Y026125D01*
X005422Y026125D01*
X005107Y025810D01*
X022480Y025810D01*
X022536Y025833D01*
X023140Y026437D01*
X023140Y026791D01*
X023285Y026936D01*
X023234Y026987D01*
X023189Y027048D01*
X023155Y027116D01*
X023132Y027188D01*
X023120Y027262D01*
X023120Y027580D01*
X023580Y027580D01*
X023580Y027620D01*
X023580Y028380D01*
X023562Y028380D01*
X023488Y028368D01*
X023416Y028345D01*
X023348Y028311D01*
X023287Y028266D01*
X023234Y028213D01*
X023189Y028152D01*
X023155Y028084D01*
X023132Y028012D01*
X023120Y027938D01*
X023120Y027620D01*
X023580Y027620D01*
X023620Y027620D01*
X023620Y028380D01*
X023638Y028380D01*
X023712Y028368D01*
X023784Y028345D01*
X023852Y028311D01*
X023913Y028266D01*
X023966Y028213D01*
X024011Y028152D01*
X024045Y028084D01*
X024068Y028012D01*
X024080Y027938D01*
X024080Y027620D01*
X023620Y027620D01*
X023620Y027580D01*
X024080Y027580D01*
X024080Y027262D01*
X024068Y027188D01*
X024045Y027116D01*
X024011Y027048D01*
X023966Y026987D01*
X023915Y026936D01*
X024041Y026810D01*
X024159Y026810D01*
X024285Y026936D01*
X024234Y026987D01*
X024189Y027048D01*
X024155Y027116D01*
X024132Y027188D01*
X024120Y027262D01*
X024120Y027580D01*
X024580Y027580D01*
X024580Y027620D01*
X024580Y028380D01*
X024562Y028380D01*
X024488Y028368D01*
X024416Y028345D01*
X024348Y028311D01*
X024287Y028266D01*
X024234Y028213D01*
X024189Y028152D01*
X024155Y028084D01*
X024132Y028012D01*
X024120Y027938D01*
X024120Y027620D01*
X024580Y027620D01*
X024620Y027620D01*
X024620Y028380D01*
X024638Y028380D01*
X024712Y028368D01*
X024784Y028345D01*
X024852Y028311D01*
X024913Y028266D01*
X024966Y028213D01*
X025011Y028152D01*
X025045Y028084D01*
X025068Y028012D01*
X025080Y027938D01*
X025080Y027620D01*
X024620Y027620D01*
X024620Y027580D01*
X025080Y027580D01*
X025080Y027262D01*
X025068Y027188D01*
X025045Y027116D01*
X025011Y027048D01*
X024966Y026987D01*
X024915Y026936D01*
X025041Y026810D01*
X025159Y026810D01*
X025285Y026936D01*
X025234Y026987D01*
X025189Y027048D01*
X025155Y027116D01*
X025132Y027188D01*
X025120Y027262D01*
X025120Y027580D01*
X025580Y027580D01*
X025580Y027620D01*
X025580Y028380D01*
X025562Y028380D01*
X025488Y028368D01*
X025416Y028345D01*
X025348Y028311D01*
X025287Y028266D01*
X025234Y028213D01*
X025189Y028152D01*
X025155Y028084D01*
X025132Y028012D01*
X025120Y027938D01*
X025120Y027620D01*
X025580Y027620D01*
X025620Y027620D01*
X025620Y028380D01*
X025638Y028380D01*
X025712Y028368D01*
X025784Y028345D01*
X025852Y028311D01*
X025913Y028266D01*
X025966Y028213D01*
X026011Y028152D01*
X026045Y028084D01*
X026068Y028012D01*
X026080Y027938D01*
X026080Y027620D01*
X025620Y027620D01*
X025620Y027580D01*
X026080Y027580D01*
X026080Y027262D01*
X026068Y027188D01*
X026045Y027116D01*
X026011Y027048D01*
X025966Y026987D01*
X025915Y026936D01*
X026060Y026791D01*
X026060Y026409D01*
X025791Y026140D01*
X025409Y026140D01*
X025159Y026390D01*
X025041Y026390D01*
X024791Y026140D01*
X024409Y026140D01*
X024159Y026390D01*
X024041Y026390D01*
X023791Y026140D01*
X023437Y026140D01*
X022840Y025543D01*
X022840Y024958D01*
X022864Y024958D01*
X022958Y024864D01*
X022958Y024336D01*
X022864Y024242D01*
X022336Y024242D01*
X022242Y024336D01*
X022242Y024864D01*
X022336Y024958D01*
X022360Y024958D01*
X022360Y025390D01*
X004687Y025390D01*
X004310Y025013D01*
X004187Y024890D01*
X004107Y024890D01*
X005163Y023834D01*
X005403Y024075D01*
X005797Y024075D01*
X006075Y023797D01*
X006075Y023403D01*
X005810Y023138D01*
X005810Y014989D01*
X005901Y015080D01*
X006080Y015080D01*
X006080Y014620D01*
X006120Y014620D01*
X006120Y015080D01*
X006299Y015080D01*
X006580Y014799D01*
X006580Y014620D01*
X006120Y014620D01*
X006120Y014580D01*
X006580Y014580D01*
X006580Y014401D01*
X006299Y014120D01*
X006120Y014120D01*
X006120Y014580D01*
X006080Y014580D01*
X006080Y014120D01*
X005901Y014120D01*
X005810Y014211D01*
X005810Y013961D01*
X005909Y014060D01*
X006291Y014060D01*
X006560Y013791D01*
X006560Y013409D01*
X006291Y013140D01*
X005909Y013140D01*
X005810Y013239D01*
X005810Y012961D01*
X005909Y013060D01*
X006291Y013060D01*
X006560Y012791D01*
X006560Y012409D01*
X006310Y012159D01*
X006310Y008458D01*
X006364Y008458D01*
X006458Y008364D01*
X006458Y007836D01*
X006364Y007742D01*
X006310Y007742D01*
X006310Y001810D01*
X022013Y001810D01*
X022543Y002340D01*
X022508Y002340D01*
X022339Y002410D01*
X022210Y002539D01*
X022140Y002708D01*
X022140Y003491D01*
X022210Y003661D01*
X022339Y003790D01*
X022390Y003811D01*
X022390Y009216D01*
X022180Y009426D01*
X022180Y009774D01*
X022383Y009977D01*
X018501Y013860D01*
X014958Y013860D01*
X014958Y013836D01*
X014864Y013742D01*
X014336Y013742D01*
X014242Y013836D01*
X014242Y014364D01*
X014336Y014458D01*
X014742Y014458D01*
X014742Y014860D01*
X012458Y014860D01*
X012458Y014836D01*
X012364Y014742D01*
X011836Y014742D01*
X011742Y014836D01*
X011742Y015364D01*
X011836Y015458D01*
X012364Y015458D01*
X012458Y015364D01*
X012458Y015340D01*
X021091Y015340D01*
X021131Y015343D01*
X021139Y015340D01*
X021148Y015340D01*
X021184Y015325D01*
X022323Y014945D01*
X022336Y014958D01*
X022864Y014958D01*
X022958Y014864D01*
X022958Y014336D01*
X022864Y014242D01*
X022336Y014242D01*
X022242Y014336D01*
X022242Y014466D01*
X021061Y014860D01*
X016458Y014860D01*
X016458Y014340D01*
X018648Y014340D01*
X018736Y014303D01*
X018803Y014236D01*
X018803Y014236D01*
X022699Y010340D01*
X025242Y010340D01*
X025242Y010364D01*
X025336Y010458D01*
X025864Y010458D01*
X025958Y010364D01*
X025958Y009836D01*
X025864Y009742D01*
X025336Y009742D01*
X025242Y009836D01*
X025242Y009860D01*
X022934Y009860D01*
X023020Y009774D01*
X023020Y009426D01*
X022810Y009216D01*
X022810Y003811D01*
X022861Y003790D01*
X022990Y003661D01*
X023060Y003491D01*
X023060Y002857D01*
X023140Y002937D01*
X023140Y003491D01*
X023210Y003661D01*
X023339Y003790D01*
X023508Y003860D01*
X023691Y003860D01*
X023861Y003790D01*
X023990Y003661D01*
X024060Y003491D01*
X024060Y002708D01*
X023990Y002539D01*
X023861Y002410D01*
X023691Y002340D01*
X023508Y002340D01*
X023339Y002410D01*
X023273Y002476D01*
X022310Y001513D01*
X022187Y001390D01*
X004484Y001390D01*
X004274Y001180D01*
X003926Y001180D01*
X003716Y001390D01*
X003484Y001390D01*
X003274Y001180D01*
X002926Y001180D01*
X002738Y001368D02*
X000600Y001368D01*
X000600Y001527D02*
X002680Y001527D01*
X002680Y001685D02*
X000600Y001685D01*
X000600Y001844D02*
X002750Y001844D01*
X002908Y002002D02*
X000600Y002002D01*
X000600Y002161D02*
X005890Y002161D01*
X005890Y002319D02*
X000600Y002319D01*
X000600Y002478D02*
X005890Y002478D01*
X005890Y002636D02*
X000600Y002636D01*
X000600Y002795D02*
X005890Y002795D01*
X005890Y002953D02*
X000600Y002953D01*
X000600Y003112D02*
X005890Y003112D01*
X005890Y003270D02*
X000600Y003270D01*
X000600Y003429D02*
X005890Y003429D01*
X005890Y003587D02*
X000600Y003587D01*
X000600Y003746D02*
X005890Y003746D01*
X005890Y003904D02*
X000600Y003904D01*
X000600Y004063D02*
X005890Y004063D01*
X005890Y004221D02*
X004315Y004221D01*
X004473Y004380D02*
X005890Y004380D01*
X005890Y004538D02*
X004520Y004538D01*
X004520Y004697D02*
X005890Y004697D01*
X005890Y004855D02*
X004439Y004855D01*
X004310Y005014D02*
X005890Y005014D01*
X005890Y005172D02*
X004310Y005172D01*
X004310Y005331D02*
X005890Y005331D01*
X005890Y005489D02*
X004310Y005489D01*
X004310Y005648D02*
X005890Y005648D01*
X005890Y005806D02*
X004310Y005806D01*
X004310Y005965D02*
X005890Y005965D01*
X005890Y006123D02*
X004310Y006123D01*
X004310Y006282D02*
X005890Y006282D01*
X005890Y006440D02*
X004310Y006440D01*
X004310Y006599D02*
X005890Y006599D01*
X005890Y006757D02*
X005436Y006757D01*
X005299Y006620D02*
X005580Y006901D01*
X005580Y007080D01*
X005120Y007080D01*
X005120Y007120D01*
X005580Y007120D01*
X005580Y007299D01*
X005299Y007580D01*
X005120Y007580D01*
X005120Y007120D01*
X005080Y007120D01*
X005080Y007580D01*
X004901Y007580D01*
X004620Y007299D01*
X004620Y007120D01*
X005080Y007120D01*
X005080Y007080D01*
X005120Y007080D01*
X005120Y006620D01*
X005299Y006620D01*
X005080Y006620D02*
X005080Y007080D01*
X004620Y007080D01*
X004620Y006901D01*
X004901Y006620D01*
X005080Y006620D01*
X005080Y006757D02*
X005120Y006757D01*
X005120Y006916D02*
X005080Y006916D01*
X005080Y007074D02*
X005120Y007074D01*
X005120Y007233D02*
X005080Y007233D01*
X005080Y007391D02*
X005120Y007391D01*
X005120Y007550D02*
X005080Y007550D01*
X005080Y007620D02*
X005080Y008080D01*
X005120Y008080D01*
X005120Y008120D01*
X005580Y008120D01*
X005580Y008299D01*
X005299Y008580D01*
X005120Y008580D01*
X005120Y008120D01*
X005080Y008120D01*
X005080Y008580D01*
X004901Y008580D01*
X004620Y008299D01*
X004620Y008120D01*
X005080Y008120D01*
X005080Y008080D01*
X004620Y008080D01*
X004620Y007901D01*
X004901Y007620D01*
X005080Y007620D01*
X005120Y007620D02*
X005299Y007620D01*
X005580Y007901D01*
X005580Y008080D01*
X005120Y008080D01*
X005120Y007620D01*
X005120Y007708D02*
X005080Y007708D01*
X005080Y007867D02*
X005120Y007867D01*
X005120Y008025D02*
X005080Y008025D01*
X005080Y008184D02*
X005120Y008184D01*
X005120Y008342D02*
X005080Y008342D01*
X005080Y008501D02*
X005120Y008501D01*
X005378Y008501D02*
X005890Y008501D01*
X005890Y008659D02*
X004310Y008659D01*
X004310Y008818D02*
X005890Y008818D01*
X005890Y008976D02*
X004310Y008976D01*
X004310Y009135D02*
X004887Y009135D01*
X004901Y009120D02*
X005080Y009120D01*
X005080Y009580D01*
X005120Y009580D01*
X005120Y009620D01*
X005580Y009620D01*
X005580Y009799D01*
X005299Y010080D01*
X005120Y010080D01*
X005120Y009620D01*
X005080Y009620D01*
X005080Y010080D01*
X004901Y010080D01*
X004620Y009799D01*
X004620Y009620D01*
X005080Y009620D01*
X005080Y009580D01*
X004620Y009580D01*
X004620Y009401D01*
X004901Y009120D01*
X005080Y009135D02*
X005120Y009135D01*
X005120Y009120D02*
X005299Y009120D01*
X005580Y009401D01*
X005580Y009580D01*
X005120Y009580D01*
X005120Y009120D01*
X005120Y009293D02*
X005080Y009293D01*
X005080Y009452D02*
X005120Y009452D01*
X005120Y009610D02*
X005890Y009610D01*
X005890Y009452D02*
X005580Y009452D01*
X005472Y009293D02*
X005890Y009293D01*
X005890Y009135D02*
X005313Y009135D01*
X005080Y009610D02*
X004560Y009610D01*
X004560Y009452D02*
X004620Y009452D01*
X004728Y009293D02*
X004444Y009293D01*
X004560Y009769D02*
X004620Y009769D01*
X004748Y009927D02*
X004424Y009927D01*
X004310Y010086D02*
X005890Y010086D01*
X005890Y010244D02*
X005423Y010244D01*
X005580Y010403D02*
X005890Y010403D01*
X005890Y010561D02*
X005580Y010561D01*
X005580Y010720D02*
X005890Y010720D01*
X005890Y010878D02*
X005501Y010878D01*
X005120Y010561D02*
X005080Y010561D01*
X005080Y010403D02*
X005120Y010403D01*
X005120Y010244D02*
X005080Y010244D01*
X004777Y010244D02*
X004395Y010244D01*
X004553Y010403D02*
X004620Y010403D01*
X004620Y010561D02*
X004560Y010561D01*
X004560Y010720D02*
X004620Y010720D01*
X004699Y010878D02*
X004473Y010878D01*
X003805Y010244D02*
X003395Y010244D01*
X003310Y010086D02*
X003890Y010086D01*
X003776Y009927D02*
X003424Y009927D01*
X003560Y009769D02*
X003640Y009769D01*
X003640Y009610D02*
X003560Y009610D01*
X003560Y009452D02*
X003640Y009452D01*
X003756Y009293D02*
X003444Y009293D01*
X003310Y009135D02*
X003890Y009135D01*
X003890Y008976D02*
X003310Y008976D01*
X003310Y008818D02*
X003890Y008818D01*
X003890Y008659D02*
X003310Y008659D01*
X003350Y008501D02*
X003850Y008501D01*
X003691Y008342D02*
X003509Y008342D01*
X003560Y008184D02*
X003640Y008184D01*
X003640Y008025D02*
X003560Y008025D01*
X003517Y007867D02*
X003683Y007867D01*
X003841Y007708D02*
X003359Y007708D01*
X003310Y007550D02*
X003890Y007550D01*
X003740Y007391D02*
X003460Y007391D01*
X003560Y007233D02*
X003640Y007233D01*
X003640Y007074D02*
X003560Y007074D01*
X003560Y006916D02*
X003640Y006916D01*
X003792Y006757D02*
X003408Y006757D01*
X003310Y006599D02*
X003890Y006599D01*
X003890Y006440D02*
X003310Y006440D01*
X003310Y006282D02*
X003890Y006282D01*
X003890Y006123D02*
X003310Y006123D01*
X003310Y005965D02*
X003890Y005965D01*
X003890Y005806D02*
X003310Y005806D01*
X003310Y005648D02*
X003890Y005648D01*
X003890Y005489D02*
X003310Y005489D01*
X003310Y005331D02*
X003890Y005331D01*
X003890Y005172D02*
X003310Y005172D01*
X003310Y005014D02*
X003890Y005014D01*
X003761Y004855D02*
X003439Y004855D01*
X003520Y004697D02*
X003680Y004697D01*
X003680Y004538D02*
X003520Y004538D01*
X003473Y004380D02*
X003727Y004380D01*
X003885Y004221D02*
X003315Y004221D01*
X002885Y004221D02*
X000600Y004221D01*
X000600Y004380D02*
X002727Y004380D01*
X002680Y004538D02*
X000600Y004538D01*
X000600Y004697D02*
X002680Y004697D01*
X002761Y004855D02*
X000600Y004855D01*
X000600Y005014D02*
X002890Y005014D01*
X002890Y005172D02*
X000600Y005172D01*
X000600Y005331D02*
X002890Y005331D01*
X002890Y005489D02*
X000600Y005489D01*
X000600Y005648D02*
X002890Y005648D01*
X002890Y005806D02*
X000600Y005806D01*
X000600Y005965D02*
X002890Y005965D01*
X002890Y006123D02*
X000600Y006123D01*
X000600Y006282D02*
X002890Y006282D01*
X002890Y006440D02*
X000600Y006440D01*
X000600Y006599D02*
X002890Y006599D01*
X002792Y006757D02*
X002408Y006757D01*
X002560Y006916D02*
X002640Y006916D01*
X002640Y007074D02*
X002560Y007074D01*
X002560Y007233D02*
X002640Y007233D01*
X002740Y007391D02*
X002460Y007391D01*
X002310Y007550D02*
X002890Y007550D01*
X002841Y007708D02*
X002359Y007708D01*
X002517Y007867D02*
X002683Y007867D01*
X002640Y008025D02*
X002560Y008025D01*
X002560Y008184D02*
X002640Y008184D01*
X002691Y008342D02*
X002509Y008342D01*
X002350Y008501D02*
X002850Y008501D01*
X002890Y008659D02*
X002310Y008659D01*
X002310Y008818D02*
X002890Y008818D01*
X002890Y008976D02*
X002310Y008976D01*
X002310Y009135D02*
X002890Y009135D01*
X002756Y009293D02*
X002444Y009293D01*
X002560Y009452D02*
X002640Y009452D01*
X002640Y009610D02*
X002560Y009610D01*
X002560Y009769D02*
X002640Y009769D01*
X002776Y009927D02*
X002424Y009927D01*
X002310Y010086D02*
X002890Y010086D01*
X002805Y010244D02*
X002395Y010244D01*
X002553Y010403D02*
X002647Y010403D01*
X002640Y010561D02*
X002560Y010561D01*
X002560Y010720D02*
X002640Y010720D01*
X002675Y010878D02*
X002727Y010878D01*
X002398Y011195D02*
X000600Y011195D01*
X000600Y011037D02*
X001886Y011037D01*
X001727Y010878D02*
X000600Y010878D01*
X000600Y010720D02*
X001640Y010720D01*
X001640Y010561D02*
X000600Y010561D01*
X000600Y010403D02*
X001647Y010403D01*
X001805Y010244D02*
X000600Y010244D01*
X000600Y010086D02*
X001890Y010086D01*
X001776Y009927D02*
X000600Y009927D01*
X000600Y009769D02*
X001640Y009769D01*
X001640Y009610D02*
X000600Y009610D01*
X000600Y009452D02*
X001640Y009452D01*
X001756Y009293D02*
X000600Y009293D01*
X000600Y009135D02*
X001890Y009135D01*
X001890Y008976D02*
X000600Y008976D01*
X000600Y008818D02*
X001890Y008818D01*
X001890Y008659D02*
X000600Y008659D01*
X000600Y008501D02*
X001850Y008501D01*
X001691Y008342D02*
X000600Y008342D01*
X000600Y008184D02*
X001640Y008184D01*
X001640Y008025D02*
X000600Y008025D01*
X000600Y007867D02*
X001683Y007867D01*
X001841Y007708D02*
X000600Y007708D01*
X000600Y007550D02*
X001890Y007550D01*
X001740Y007391D02*
X000600Y007391D01*
X000600Y007233D02*
X001640Y007233D01*
X001640Y007074D02*
X000600Y007074D01*
X000600Y006916D02*
X001640Y006916D01*
X001792Y006757D02*
X000600Y006757D01*
X004310Y007550D02*
X004871Y007550D01*
X004813Y007708D02*
X004359Y007708D01*
X004517Y007867D02*
X004655Y007867D01*
X004620Y008025D02*
X004560Y008025D01*
X004560Y008184D02*
X004620Y008184D01*
X004663Y008342D02*
X004509Y008342D01*
X004350Y008501D02*
X004822Y008501D01*
X005537Y008342D02*
X005742Y008342D01*
X005742Y008184D02*
X005580Y008184D01*
X005580Y008025D02*
X005742Y008025D01*
X005742Y007867D02*
X005545Y007867D01*
X005387Y007708D02*
X005890Y007708D01*
X005890Y007550D02*
X005329Y007550D01*
X005488Y007391D02*
X005890Y007391D01*
X005890Y007233D02*
X005580Y007233D01*
X005580Y007074D02*
X005890Y007074D01*
X005890Y006916D02*
X005580Y006916D01*
X006310Y006916D02*
X006360Y006916D01*
X006360Y007074D02*
X006310Y007074D01*
X006310Y007233D02*
X006360Y007233D01*
X006360Y007391D02*
X006310Y007391D01*
X006310Y007550D02*
X006360Y007550D01*
X006360Y007648D02*
X006360Y003052D01*
X006397Y002964D01*
X006464Y002897D01*
X006552Y002860D01*
X020140Y002860D01*
X020140Y002708D01*
X020210Y002539D01*
X020339Y002410D01*
X020508Y002340D01*
X020691Y002340D01*
X020861Y002410D01*
X020990Y002539D01*
X021060Y002708D01*
X021060Y003491D01*
X020990Y003661D01*
X020861Y003790D01*
X020691Y003860D01*
X020508Y003860D01*
X020339Y003790D01*
X020210Y003661D01*
X020140Y003491D01*
X020140Y003340D01*
X006840Y003340D01*
X006840Y007360D01*
X007648Y007360D01*
X007736Y007397D01*
X007803Y007464D01*
X007840Y007552D01*
X007840Y013742D01*
X007860Y013742D01*
X007860Y011052D01*
X007897Y010964D01*
X007964Y010897D01*
X008052Y010860D01*
X009242Y010860D01*
X009242Y010336D01*
X009336Y010242D01*
X009742Y010242D01*
X009742Y009836D01*
X009836Y009742D01*
X010119Y009742D01*
X010964Y008897D01*
X011052Y008860D01*
X016242Y008860D01*
X016242Y008840D01*
X014552Y008840D01*
X014464Y008803D01*
X014397Y008736D01*
X014360Y008648D01*
X014360Y006458D01*
X014336Y006458D01*
X014242Y006364D01*
X014242Y005836D01*
X014336Y005742D01*
X014864Y005742D01*
X014958Y005836D01*
X014958Y006364D01*
X014864Y006458D01*
X014840Y006458D01*
X014840Y007688D01*
X014903Y007625D01*
X015297Y007625D01*
X015562Y007890D01*
X015890Y007890D01*
X015890Y005644D01*
X015885Y005642D01*
X015778Y005535D01*
X015720Y005396D01*
X015720Y004804D01*
X015778Y004665D01*
X015885Y004558D01*
X016024Y004500D01*
X016176Y004500D01*
X016315Y004558D01*
X016422Y004665D01*
X016480Y004804D01*
X016480Y005396D01*
X016422Y005535D01*
X016315Y005642D01*
X016310Y005644D01*
X016310Y008187D01*
X016187Y008310D01*
X015562Y008310D01*
X015512Y008360D01*
X016242Y008360D01*
X016242Y008336D01*
X016336Y008242D01*
X016864Y008242D01*
X016958Y008336D01*
X016958Y008860D01*
X017501Y008860D01*
X018360Y008001D01*
X018360Y007954D01*
X018180Y007774D01*
X018180Y007426D01*
X018426Y007180D01*
X018774Y007180D01*
X019020Y007426D01*
X019020Y007774D01*
X018840Y007954D01*
X018840Y008148D01*
X018803Y008236D01*
X017803Y009236D01*
X017736Y009303D01*
X017648Y009340D01*
X011199Y009340D01*
X010458Y010081D01*
X010458Y010360D01*
X010501Y010360D01*
X011464Y009397D01*
X011552Y009360D01*
X019246Y009360D01*
X019426Y009180D01*
X019774Y009180D01*
X020020Y009426D01*
X020020Y009774D01*
X019774Y010020D01*
X019426Y010020D01*
X019246Y009840D01*
X011699Y009840D01*
X010803Y010736D01*
X010736Y010803D01*
X010648Y010840D01*
X009958Y010840D01*
X009958Y010860D01*
X017242Y010860D01*
X017242Y010836D01*
X017336Y010742D01*
X017864Y010742D01*
X017958Y010836D01*
X017958Y011242D01*
X018364Y011242D01*
X018458Y011336D01*
X018458Y011864D01*
X018364Y011958D01*
X017836Y011958D01*
X017742Y011864D01*
X017742Y011840D01*
X010458Y011840D01*
X010458Y012364D01*
X010364Y012458D01*
X010340Y012458D01*
X010340Y017242D01*
X010864Y017242D01*
X010958Y017336D01*
X010958Y017360D01*
X011001Y017360D01*
X011242Y017119D01*
X011242Y016958D01*
X010836Y016958D01*
X010742Y016864D01*
X010742Y015836D01*
X010836Y015742D01*
X011364Y015742D01*
X011458Y015836D01*
X011458Y015860D01*
X023242Y015860D01*
X023242Y015336D01*
X023336Y015242D01*
X023864Y015242D01*
X023958Y015336D01*
X023958Y015864D01*
X023864Y015958D01*
X023840Y015958D01*
X023840Y016148D01*
X023803Y016236D01*
X023798Y016242D01*
X023864Y016242D01*
X023958Y016336D01*
X023958Y016864D01*
X023864Y016958D01*
X023336Y016958D01*
X023242Y016864D01*
X023242Y016840D01*
X021458Y016840D01*
X021458Y016860D01*
X023148Y016860D01*
X023236Y016897D01*
X023303Y016964D01*
X023340Y017052D01*
X023340Y017242D01*
X023864Y017242D01*
X023958Y017336D01*
X023958Y017864D01*
X023864Y017958D01*
X023340Y017958D01*
X023340Y019860D01*
X027360Y019860D01*
X027360Y011340D01*
X027011Y011340D01*
X026791Y011560D01*
X026409Y011560D01*
X026140Y011291D01*
X026140Y010909D01*
X026409Y010640D01*
X026791Y010640D01*
X027011Y010860D01*
X027648Y010860D01*
X027736Y010897D01*
X027803Y010964D01*
X027840Y011052D01*
X027840Y020148D01*
X027803Y020236D01*
X027736Y020303D01*
X027648Y020340D01*
X023179Y020340D01*
X023199Y020360D01*
X026148Y020360D01*
X026236Y020397D01*
X026303Y020464D01*
X026340Y020552D01*
X026340Y022148D01*
X026303Y022236D01*
X026236Y022303D01*
X026148Y022340D01*
X018552Y022340D01*
X018464Y022303D01*
X017001Y020840D01*
X011552Y020840D01*
X011464Y020803D01*
X010619Y019958D01*
X010336Y019958D01*
X010242Y019864D01*
X010242Y019336D01*
X010336Y019242D01*
X010864Y019242D01*
X010958Y019336D01*
X010958Y019619D01*
X011699Y020360D01*
X013242Y020360D01*
X013242Y019836D01*
X013336Y019742D01*
X013864Y019742D01*
X013958Y019836D01*
X013958Y019860D01*
X018242Y019860D01*
X018242Y019836D01*
X018336Y019742D01*
X018864Y019742D01*
X018958Y019836D01*
X018958Y020364D01*
X018864Y020458D01*
X018336Y020458D01*
X018242Y020364D01*
X018242Y020340D01*
X013958Y020340D01*
X013958Y020360D01*
X017148Y020360D01*
X017236Y020397D01*
X017303Y020464D01*
X018699Y021860D01*
X025242Y021860D01*
X025242Y021840D01*
X022552Y021840D01*
X022464Y021803D01*
X019840Y019179D01*
X019840Y019242D01*
X019864Y019242D01*
X019958Y019336D01*
X019958Y019864D01*
X019864Y019958D01*
X019336Y019958D01*
X019242Y019864D01*
X019242Y019340D01*
X012958Y019340D01*
X012958Y019364D01*
X012864Y019458D01*
X012336Y019458D01*
X012289Y019411D01*
X012172Y019460D01*
X012028Y019460D01*
X011896Y019405D01*
X011801Y019310D01*
X011013Y019310D01*
X010543Y018840D01*
X010052Y018840D01*
X009964Y018803D01*
X007840Y018803D01*
X007840Y018645D02*
X009805Y018645D01*
X009897Y018736D02*
X009397Y018236D01*
X009360Y018148D01*
X009360Y012458D01*
X009336Y012458D01*
X009242Y012364D01*
X009242Y011840D01*
X008840Y011840D01*
X008840Y013742D01*
X008864Y013742D01*
X008958Y013836D01*
X008958Y014364D01*
X008864Y014458D01*
X007840Y014458D01*
X007840Y019648D01*
X007803Y019736D01*
X007736Y019803D01*
X007648Y019840D01*
X007454Y019840D01*
X007274Y020020D01*
X006926Y020020D01*
X006680Y019774D01*
X006680Y019426D01*
X006926Y019180D01*
X007274Y019180D01*
X007360Y019266D01*
X007360Y017934D01*
X007274Y018020D01*
X006926Y018020D01*
X006680Y017774D01*
X006680Y017426D01*
X006890Y017216D01*
X006890Y015041D01*
X006640Y014791D01*
X006640Y014409D01*
X006909Y014140D01*
X007291Y014140D01*
X007360Y014209D01*
X007360Y013991D01*
X007291Y014060D01*
X006909Y014060D01*
X006640Y013791D01*
X006640Y013409D01*
X006909Y013140D01*
X007291Y013140D01*
X007360Y013209D01*
X007360Y012991D01*
X007291Y013060D01*
X006909Y013060D01*
X006640Y012791D01*
X006640Y012409D01*
X006909Y012140D01*
X007291Y012140D01*
X007360Y012209D01*
X007360Y007840D01*
X006552Y007840D01*
X006464Y007803D01*
X006397Y007736D01*
X006360Y007648D01*
X006385Y007708D02*
X006310Y007708D01*
X006458Y007867D02*
X007360Y007867D01*
X007360Y008025D02*
X006458Y008025D01*
X006458Y008184D02*
X007360Y008184D01*
X007360Y008342D02*
X006458Y008342D01*
X006310Y008501D02*
X007360Y008501D01*
X007360Y008659D02*
X006310Y008659D01*
X006310Y008818D02*
X007360Y008818D01*
X007360Y008976D02*
X006310Y008976D01*
X006310Y009135D02*
X007360Y009135D01*
X007360Y009293D02*
X006310Y009293D01*
X006310Y009452D02*
X007360Y009452D01*
X007360Y009610D02*
X006310Y009610D01*
X006310Y009769D02*
X007360Y009769D01*
X007360Y009927D02*
X006310Y009927D01*
X006310Y010086D02*
X007360Y010086D01*
X007360Y010244D02*
X006310Y010244D01*
X006310Y010403D02*
X007360Y010403D01*
X007360Y010561D02*
X006310Y010561D01*
X006310Y010720D02*
X007360Y010720D01*
X007360Y010878D02*
X006310Y010878D01*
X006310Y011037D02*
X007360Y011037D01*
X007360Y011195D02*
X006310Y011195D01*
X006310Y011354D02*
X007360Y011354D01*
X007360Y011512D02*
X006310Y011512D01*
X006310Y011671D02*
X007360Y011671D01*
X007360Y011829D02*
X006310Y011829D01*
X006310Y011988D02*
X007360Y011988D01*
X007360Y012146D02*
X007297Y012146D01*
X007840Y012146D02*
X007860Y012146D01*
X007860Y011988D02*
X007840Y011988D01*
X007840Y011829D02*
X007860Y011829D01*
X007860Y011671D02*
X007840Y011671D01*
X007840Y011512D02*
X007860Y011512D01*
X007860Y011354D02*
X007840Y011354D01*
X007840Y011195D02*
X007860Y011195D01*
X007867Y011037D02*
X007840Y011037D01*
X007840Y010878D02*
X008009Y010878D01*
X007840Y010720D02*
X009242Y010720D01*
X009242Y010561D02*
X007840Y010561D01*
X007840Y010403D02*
X009242Y010403D01*
X009333Y010244D02*
X007840Y010244D01*
X007840Y010086D02*
X009742Y010086D01*
X009742Y009927D02*
X007840Y009927D01*
X007840Y009769D02*
X009809Y009769D01*
X010100Y010100D02*
X011100Y009100D01*
X017600Y009100D01*
X018600Y008100D01*
X018600Y007600D01*
X018273Y007867D02*
X016310Y007867D01*
X016310Y008025D02*
X018336Y008025D01*
X018177Y008184D02*
X016310Y008184D01*
X016242Y008342D02*
X015530Y008342D01*
X015538Y007867D02*
X015890Y007867D01*
X015890Y007708D02*
X015380Y007708D01*
X015890Y007550D02*
X014840Y007550D01*
X014840Y007391D02*
X015890Y007391D01*
X015890Y007233D02*
X014840Y007233D01*
X014840Y007074D02*
X015890Y007074D01*
X015890Y006916D02*
X014840Y006916D01*
X014840Y006757D02*
X015890Y006757D01*
X015890Y006599D02*
X014840Y006599D01*
X014882Y006440D02*
X015890Y006440D01*
X015890Y006282D02*
X014958Y006282D01*
X014958Y006123D02*
X015890Y006123D01*
X015890Y005965D02*
X014958Y005965D01*
X014929Y005806D02*
X015890Y005806D01*
X015890Y005648D02*
X014302Y005648D01*
X014315Y005642D02*
X014176Y005700D01*
X014024Y005700D01*
X013885Y005642D01*
X013778Y005535D01*
X013720Y005396D01*
X013720Y005310D01*
X010062Y005310D01*
X009797Y005575D01*
X009403Y005575D01*
X009125Y005297D01*
X009125Y004903D01*
X009403Y004625D01*
X009797Y004625D01*
X010062Y004890D01*
X013720Y004890D01*
X013720Y004804D01*
X013778Y004665D01*
X013885Y004558D01*
X014024Y004500D01*
X014176Y004500D01*
X014315Y004558D01*
X014422Y004665D01*
X014480Y004804D01*
X014480Y005396D01*
X014422Y005535D01*
X014315Y005642D01*
X014271Y005806D02*
X006840Y005806D01*
X006840Y005648D02*
X013898Y005648D01*
X013759Y005489D02*
X009883Y005489D01*
X010041Y005331D02*
X013720Y005331D01*
X013720Y004855D02*
X010027Y004855D01*
X009868Y004697D02*
X013765Y004697D01*
X013933Y004538D02*
X006840Y004538D01*
X006840Y004380D02*
X021390Y004380D01*
X021390Y004538D02*
X016267Y004538D01*
X016435Y004697D02*
X021390Y004697D01*
X021390Y004855D02*
X016480Y004855D01*
X016480Y005014D02*
X021390Y005014D01*
X021390Y005172D02*
X016480Y005172D01*
X016480Y005331D02*
X021390Y005331D01*
X021390Y005489D02*
X016441Y005489D01*
X016310Y005648D02*
X021390Y005648D01*
X021390Y005806D02*
X016310Y005806D01*
X016310Y005965D02*
X021390Y005965D01*
X021390Y006123D02*
X016310Y006123D01*
X016310Y006282D02*
X021390Y006282D01*
X021390Y006440D02*
X016310Y006440D01*
X016310Y006599D02*
X021390Y006599D01*
X021390Y006757D02*
X016310Y006757D01*
X016310Y006916D02*
X021390Y006916D01*
X021390Y007074D02*
X016310Y007074D01*
X016310Y007233D02*
X018374Y007233D01*
X018215Y007391D02*
X016310Y007391D01*
X016310Y007550D02*
X018180Y007550D01*
X018180Y007708D02*
X016310Y007708D01*
X016958Y008342D02*
X018019Y008342D01*
X017860Y008501D02*
X016958Y008501D01*
X016958Y008659D02*
X017702Y008659D01*
X017543Y008818D02*
X016958Y008818D01*
X016600Y008600D02*
X014600Y008600D01*
X014600Y006100D01*
X014318Y006440D02*
X006840Y006440D01*
X006840Y006282D02*
X014242Y006282D01*
X014242Y006123D02*
X006840Y006123D01*
X006840Y005965D02*
X014242Y005965D01*
X014441Y005489D02*
X015759Y005489D01*
X015720Y005331D02*
X014480Y005331D01*
X014480Y005172D02*
X015720Y005172D01*
X015720Y005014D02*
X014480Y005014D01*
X014480Y004855D02*
X015720Y004855D01*
X015765Y004697D02*
X014435Y004697D01*
X014267Y004538D02*
X015933Y004538D01*
X014360Y006599D02*
X006840Y006599D01*
X006840Y006757D02*
X014360Y006757D01*
X014360Y006916D02*
X006840Y006916D01*
X006840Y007074D02*
X014360Y007074D01*
X014360Y007233D02*
X006840Y007233D01*
X006600Y007600D02*
X006600Y003100D01*
X020600Y003100D01*
X020140Y002795D02*
X006310Y002795D01*
X006310Y002953D02*
X006408Y002953D01*
X006360Y003112D02*
X006310Y003112D01*
X006310Y003270D02*
X006360Y003270D01*
X006360Y003429D02*
X006310Y003429D01*
X006310Y003587D02*
X006360Y003587D01*
X006360Y003746D02*
X006310Y003746D01*
X006310Y003904D02*
X006360Y003904D01*
X006360Y004063D02*
X006310Y004063D01*
X006310Y004221D02*
X006360Y004221D01*
X006360Y004380D02*
X006310Y004380D01*
X006310Y004538D02*
X006360Y004538D01*
X006360Y004697D02*
X006310Y004697D01*
X006310Y004855D02*
X006360Y004855D01*
X006360Y005014D02*
X006310Y005014D01*
X006310Y005172D02*
X006360Y005172D01*
X006360Y005331D02*
X006310Y005331D01*
X006310Y005489D02*
X006360Y005489D01*
X006360Y005648D02*
X006310Y005648D01*
X006310Y005806D02*
X006360Y005806D01*
X006360Y005965D02*
X006310Y005965D01*
X006310Y006123D02*
X006360Y006123D01*
X006360Y006282D02*
X006310Y006282D01*
X006310Y006440D02*
X006360Y006440D01*
X006360Y006599D02*
X006310Y006599D01*
X006310Y006757D02*
X006360Y006757D01*
X006600Y007600D02*
X007600Y007600D01*
X007600Y019600D01*
X007100Y019600D01*
X006819Y019913D02*
X005810Y019913D01*
X005810Y020071D02*
X010732Y020071D01*
X010890Y020230D02*
X005810Y020230D01*
X005810Y020388D02*
X011049Y020388D01*
X011207Y020547D02*
X005810Y020547D01*
X005810Y020705D02*
X011366Y020705D01*
X011600Y020600D02*
X010600Y019600D01*
X010958Y019596D02*
X019242Y019596D01*
X019242Y019754D02*
X018877Y019754D01*
X018958Y019913D02*
X019290Y019913D01*
X018958Y020071D02*
X020732Y020071D01*
X020890Y020230D02*
X018958Y020230D01*
X018934Y020388D02*
X021049Y020388D01*
X021207Y020547D02*
X017386Y020547D01*
X017544Y020705D02*
X021366Y020705D01*
X021524Y020864D02*
X017703Y020864D01*
X017861Y021022D02*
X021683Y021022D01*
X021841Y021181D02*
X018020Y021181D01*
X018178Y021339D02*
X022000Y021339D01*
X022158Y021498D02*
X018337Y021498D01*
X018495Y021656D02*
X022317Y021656D01*
X022491Y021815D02*
X018654Y021815D01*
X018600Y022100D02*
X017100Y020600D01*
X011600Y020600D01*
X011569Y020230D02*
X013242Y020230D01*
X013242Y020071D02*
X011410Y020071D01*
X011252Y019913D02*
X013242Y019913D01*
X013323Y019754D02*
X011093Y019754D01*
X010958Y019437D02*
X011973Y019437D01*
X012227Y019437D02*
X012315Y019437D01*
X012600Y019100D02*
X017100Y019100D01*
X019600Y019100D01*
X019600Y019600D01*
X019958Y019596D02*
X020256Y019596D01*
X020415Y019754D02*
X019958Y019754D01*
X019910Y019913D02*
X020573Y019913D01*
X020098Y019437D02*
X019958Y019437D01*
X019939Y019279D02*
X019901Y019279D01*
X019242Y019437D02*
X012885Y019437D01*
X012958Y018860D02*
X017043Y018860D01*
X018513Y017390D01*
X020687Y017390D01*
X020810Y017513D01*
X021079Y017782D01*
X021464Y017397D01*
X021552Y017360D01*
X022242Y017360D01*
X022242Y017340D01*
X021458Y017340D01*
X021458Y017364D01*
X021364Y017458D01*
X020836Y017458D01*
X020742Y017364D01*
X020742Y016840D01*
X011958Y016840D01*
X011958Y017364D01*
X011864Y017458D01*
X011581Y017458D01*
X011236Y017803D01*
X011148Y017840D01*
X010958Y017840D01*
X010958Y017860D01*
X011242Y017860D01*
X011242Y017836D01*
X011336Y017742D01*
X011864Y017742D01*
X011958Y017836D01*
X011958Y018769D01*
X012028Y018740D01*
X012172Y018740D01*
X012289Y018789D01*
X012336Y018742D01*
X012864Y018742D01*
X012958Y018836D01*
X012958Y018860D01*
X012926Y018803D02*
X017100Y018803D01*
X017258Y018645D02*
X011958Y018645D01*
X011958Y018486D02*
X017417Y018486D01*
X017575Y018328D02*
X011958Y018328D01*
X011958Y018169D02*
X017734Y018169D01*
X017892Y018011D02*
X011958Y018011D01*
X011958Y017852D02*
X018051Y017852D01*
X018209Y017694D02*
X011346Y017694D01*
X011242Y017852D02*
X010958Y017852D01*
X011100Y017600D02*
X010600Y017600D01*
X010340Y017218D02*
X011143Y017218D01*
X011242Y017060D02*
X010340Y017060D01*
X010340Y016901D02*
X010779Y016901D01*
X010742Y016743D02*
X010340Y016743D01*
X010340Y016584D02*
X010742Y016584D01*
X010742Y016426D02*
X010340Y016426D01*
X010340Y016267D02*
X010742Y016267D01*
X010742Y016109D02*
X010340Y016109D01*
X010340Y015950D02*
X010742Y015950D01*
X010786Y015792D02*
X010340Y015792D01*
X010340Y015633D02*
X023242Y015633D01*
X023242Y015475D02*
X010340Y015475D01*
X010340Y015316D02*
X011742Y015316D01*
X011742Y015158D02*
X010340Y015158D01*
X010340Y014999D02*
X011742Y014999D01*
X011742Y014841D02*
X010340Y014841D01*
X010340Y014682D02*
X014742Y014682D01*
X014742Y014524D02*
X010340Y014524D01*
X010340Y014365D02*
X014243Y014365D01*
X014242Y014207D02*
X010340Y014207D01*
X010340Y014048D02*
X014242Y014048D01*
X014242Y013890D02*
X010340Y013890D01*
X010340Y013731D02*
X018630Y013731D01*
X018788Y013573D02*
X010340Y013573D01*
X010340Y013414D02*
X018947Y013414D01*
X019105Y013256D02*
X010340Y013256D01*
X010340Y013097D02*
X019264Y013097D01*
X019422Y012939D02*
X010340Y012939D01*
X010340Y012780D02*
X019581Y012780D01*
X019739Y012622D02*
X010340Y012622D01*
X010340Y012463D02*
X019898Y012463D01*
X020056Y012305D02*
X010458Y012305D01*
X010458Y012146D02*
X020215Y012146D01*
X020373Y011988D02*
X010458Y011988D01*
X010100Y012100D02*
X010100Y018100D01*
X011600Y018100D01*
X011504Y017535D02*
X018368Y017535D01*
X018600Y017100D02*
X015100Y017100D01*
X014742Y014841D02*
X012458Y014841D01*
X012100Y015100D02*
X021100Y015100D01*
X022600Y014600D01*
X022958Y014524D02*
X024373Y014524D01*
X024409Y014560D02*
X024140Y014291D01*
X024140Y013909D01*
X024409Y013640D01*
X024791Y013640D01*
X025060Y013909D01*
X025060Y014291D01*
X024791Y014560D01*
X024409Y014560D01*
X024409Y014640D02*
X024791Y014640D01*
X025060Y014909D01*
X025060Y015291D01*
X024791Y015560D01*
X024409Y015560D01*
X024140Y015291D01*
X024140Y014909D01*
X024409Y014640D01*
X024367Y014682D02*
X022958Y014682D01*
X022958Y014841D02*
X024209Y014841D01*
X024140Y014999D02*
X022162Y014999D01*
X022070Y014524D02*
X016458Y014524D01*
X016458Y014682D02*
X021595Y014682D01*
X021686Y015158D02*
X024140Y015158D01*
X024165Y015316D02*
X023939Y015316D01*
X023958Y015475D02*
X024324Y015475D01*
X024409Y015640D02*
X024791Y015640D01*
X025060Y015909D01*
X025060Y016291D01*
X024791Y016560D01*
X024409Y016560D01*
X024140Y016291D01*
X024140Y015909D01*
X024409Y015640D01*
X024258Y015792D02*
X023958Y015792D01*
X023958Y015633D02*
X027360Y015633D01*
X027360Y015475D02*
X025876Y015475D01*
X025791Y015560D02*
X026060Y015291D01*
X026060Y014909D01*
X025791Y014640D01*
X025409Y014640D01*
X025140Y014909D01*
X025140Y015291D01*
X025409Y015560D01*
X025791Y015560D01*
X025791Y015640D02*
X026060Y015909D01*
X026060Y016291D01*
X025791Y016560D01*
X025409Y016560D01*
X025140Y016291D01*
X025140Y015909D01*
X025409Y015640D01*
X025791Y015640D01*
X025942Y015792D02*
X027360Y015792D01*
X027360Y015950D02*
X026060Y015950D01*
X026060Y016109D02*
X027360Y016109D01*
X027360Y016267D02*
X026060Y016267D01*
X025925Y016426D02*
X027360Y016426D01*
X027360Y016584D02*
X023958Y016584D01*
X023958Y016426D02*
X024275Y016426D01*
X024140Y016267D02*
X023890Y016267D01*
X023840Y016109D02*
X024140Y016109D01*
X024140Y015950D02*
X023872Y015950D01*
X023600Y016100D02*
X023600Y015600D01*
X023261Y015316D02*
X021211Y015316D01*
X021119Y014841D02*
X016458Y014841D01*
X016100Y014600D02*
X015100Y014600D01*
X014600Y014100D02*
X018600Y014100D01*
X022600Y010100D01*
X025600Y010100D01*
X025958Y010086D02*
X028490Y010086D01*
X028490Y010244D02*
X025958Y010244D01*
X025920Y010403D02*
X028490Y010403D01*
X028490Y010561D02*
X022478Y010561D01*
X022320Y010720D02*
X024330Y010720D01*
X024409Y010640D02*
X024140Y010909D01*
X024140Y011291D01*
X024409Y011560D01*
X024791Y011560D01*
X025060Y011291D01*
X025060Y010909D01*
X024791Y010640D01*
X024409Y010640D01*
X024171Y010878D02*
X022161Y010878D01*
X022003Y011037D02*
X024140Y011037D01*
X024140Y011195D02*
X021844Y011195D01*
X021686Y011354D02*
X024203Y011354D01*
X024361Y011512D02*
X021527Y011512D01*
X021369Y011671D02*
X024379Y011671D01*
X024409Y011640D02*
X024791Y011640D01*
X025060Y011909D01*
X025060Y012291D01*
X024791Y012560D01*
X024409Y012560D01*
X024140Y012291D01*
X024140Y011909D01*
X024409Y011640D01*
X024220Y011829D02*
X021210Y011829D01*
X021052Y011988D02*
X024140Y011988D01*
X024140Y012146D02*
X020893Y012146D01*
X020735Y012305D02*
X024154Y012305D01*
X024312Y012463D02*
X020576Y012463D01*
X020418Y012622D02*
X027360Y012622D01*
X027360Y012780D02*
X020259Y012780D01*
X020101Y012939D02*
X027360Y012939D01*
X027360Y013097D02*
X019942Y013097D01*
X019784Y013256D02*
X027360Y013256D01*
X027360Y013414D02*
X019625Y013414D01*
X019467Y013573D02*
X027360Y013573D01*
X027360Y013731D02*
X025882Y013731D01*
X025791Y013640D02*
X026060Y013909D01*
X026060Y014291D01*
X025791Y014560D01*
X025409Y014560D01*
X025140Y014291D01*
X025140Y013909D01*
X025409Y013640D01*
X025791Y013640D01*
X026040Y013890D02*
X027360Y013890D01*
X027360Y014048D02*
X026060Y014048D01*
X026060Y014207D02*
X027360Y014207D01*
X027360Y014365D02*
X025986Y014365D01*
X025827Y014524D02*
X027360Y014524D01*
X027360Y014682D02*
X025833Y014682D01*
X025991Y014841D02*
X027360Y014841D01*
X027360Y014999D02*
X026060Y014999D01*
X026060Y015158D02*
X027360Y015158D01*
X027360Y015316D02*
X026035Y015316D01*
X025324Y015475D02*
X024876Y015475D01*
X025035Y015316D02*
X025165Y015316D01*
X025140Y015158D02*
X025060Y015158D01*
X025060Y014999D02*
X025140Y014999D01*
X025209Y014841D02*
X024991Y014841D01*
X024833Y014682D02*
X025367Y014682D01*
X025373Y014524D02*
X024827Y014524D01*
X024986Y014365D02*
X025214Y014365D01*
X025140Y014207D02*
X025060Y014207D01*
X025060Y014048D02*
X025140Y014048D01*
X025160Y013890D02*
X025040Y013890D01*
X024882Y013731D02*
X025318Y013731D01*
X024318Y013731D02*
X019308Y013731D01*
X019150Y013890D02*
X024160Y013890D01*
X024140Y014048D02*
X018991Y014048D01*
X018833Y014207D02*
X024140Y014207D01*
X024214Y014365D02*
X022958Y014365D01*
X022242Y014365D02*
X016458Y014365D01*
X018100Y011600D02*
X008600Y011600D01*
X008600Y014100D01*
X008958Y014048D02*
X009360Y014048D01*
X009360Y013890D02*
X008958Y013890D01*
X008840Y013731D02*
X009360Y013731D01*
X009360Y013573D02*
X008840Y013573D01*
X008840Y013414D02*
X009360Y013414D01*
X009360Y013256D02*
X008840Y013256D01*
X008840Y013097D02*
X009360Y013097D01*
X009360Y012939D02*
X008840Y012939D01*
X008840Y012780D02*
X009360Y012780D01*
X009360Y012622D02*
X008840Y012622D01*
X008840Y012463D02*
X009360Y012463D01*
X009242Y012305D02*
X008840Y012305D01*
X008840Y012146D02*
X009242Y012146D01*
X009242Y011988D02*
X008840Y011988D01*
X007860Y012305D02*
X007840Y012305D01*
X007840Y012463D02*
X007860Y012463D01*
X007860Y012622D02*
X007840Y012622D01*
X007840Y012780D02*
X007860Y012780D01*
X007860Y012939D02*
X007840Y012939D01*
X007840Y013097D02*
X007860Y013097D01*
X007860Y013256D02*
X007840Y013256D01*
X007840Y013414D02*
X007860Y013414D01*
X007860Y013573D02*
X007840Y013573D01*
X007840Y013731D02*
X007860Y013731D01*
X008100Y014100D02*
X008100Y011100D01*
X017600Y011100D01*
X017958Y011037D02*
X021324Y011037D01*
X021166Y011195D02*
X017958Y011195D01*
X017958Y010878D02*
X021483Y010878D01*
X021641Y010720D02*
X010820Y010720D01*
X010978Y010561D02*
X021800Y010561D01*
X021958Y010403D02*
X011137Y010403D01*
X011295Y010244D02*
X022117Y010244D01*
X022275Y010086D02*
X011454Y010086D01*
X011612Y009927D02*
X019333Y009927D01*
X019600Y009600D02*
X011600Y009600D01*
X010600Y010600D01*
X009600Y010600D01*
X009600Y018100D01*
X010100Y018600D01*
X010600Y018600D01*
X011600Y018600D01*
X010982Y019279D02*
X010901Y019279D01*
X010823Y019120D02*
X007840Y019120D01*
X007840Y018962D02*
X010665Y018962D01*
X010299Y019279D02*
X007840Y019279D01*
X007840Y019437D02*
X010242Y019437D01*
X010242Y019596D02*
X007840Y019596D01*
X007785Y019754D02*
X010242Y019754D01*
X010290Y019913D02*
X007381Y019913D01*
X006680Y019754D02*
X005810Y019754D01*
X005810Y019596D02*
X006680Y019596D01*
X006680Y019437D02*
X005810Y019437D01*
X005810Y019279D02*
X006828Y019279D01*
X007360Y019120D02*
X005810Y019120D01*
X005810Y018962D02*
X007360Y018962D01*
X007360Y018803D02*
X005810Y018803D01*
X005810Y018645D02*
X007360Y018645D01*
X007360Y018486D02*
X005810Y018486D01*
X005810Y018328D02*
X007360Y018328D01*
X007360Y018169D02*
X005810Y018169D01*
X005810Y018011D02*
X006917Y018011D01*
X006758Y017852D02*
X005810Y017852D01*
X005810Y017694D02*
X006680Y017694D01*
X006680Y017535D02*
X005810Y017535D01*
X005810Y017377D02*
X006730Y017377D01*
X006888Y017218D02*
X005810Y017218D01*
X005810Y017060D02*
X006890Y017060D01*
X006890Y016901D02*
X005810Y016901D01*
X005810Y016743D02*
X006890Y016743D01*
X006890Y016584D02*
X005810Y016584D01*
X005810Y016426D02*
X006890Y016426D01*
X006890Y016267D02*
X005810Y016267D01*
X005810Y016109D02*
X006890Y016109D01*
X006890Y015950D02*
X005810Y015950D01*
X005810Y015792D02*
X006890Y015792D01*
X006890Y015633D02*
X005810Y015633D01*
X005810Y015475D02*
X006890Y015475D01*
X006890Y015316D02*
X005810Y015316D01*
X005810Y015158D02*
X006890Y015158D01*
X006848Y014999D02*
X006380Y014999D01*
X006538Y014841D02*
X006690Y014841D01*
X006640Y014682D02*
X006580Y014682D01*
X006580Y014524D02*
X006640Y014524D01*
X006684Y014365D02*
X006544Y014365D01*
X006385Y014207D02*
X006843Y014207D01*
X006897Y014048D02*
X006303Y014048D01*
X006461Y013890D02*
X006739Y013890D01*
X006640Y013731D02*
X006560Y013731D01*
X006560Y013573D02*
X006640Y013573D01*
X006640Y013414D02*
X006560Y013414D01*
X006406Y013256D02*
X006794Y013256D01*
X006788Y012939D02*
X006412Y012939D01*
X006560Y012780D02*
X006640Y012780D01*
X006640Y012622D02*
X006560Y012622D01*
X006560Y012463D02*
X006640Y012463D01*
X006745Y012305D02*
X006455Y012305D01*
X006310Y012146D02*
X006903Y012146D01*
X005890Y012146D02*
X000600Y012146D01*
X000600Y011988D02*
X005890Y011988D01*
X005890Y011829D02*
X000600Y011829D01*
X000600Y011671D02*
X005890Y011671D01*
X005890Y011512D02*
X000600Y011512D01*
X000600Y011354D02*
X005890Y011354D01*
X005745Y012305D02*
X000600Y012305D01*
X000600Y012463D02*
X005440Y012463D01*
X005390Y012622D02*
X000600Y012622D01*
X000600Y012780D02*
X005390Y012780D01*
X005390Y012939D02*
X000600Y012939D01*
X000600Y013097D02*
X005390Y013097D01*
X005390Y013256D02*
X000600Y013256D01*
X000600Y013414D02*
X005390Y013414D01*
X005390Y013573D02*
X000600Y013573D01*
X000600Y013731D02*
X005390Y013731D01*
X005390Y013890D02*
X000600Y013890D01*
X000600Y014048D02*
X005390Y014048D01*
X005390Y014207D02*
X000600Y014207D01*
X000600Y014365D02*
X005390Y014365D01*
X005390Y014524D02*
X000600Y014524D01*
X000600Y014682D02*
X005390Y014682D01*
X005390Y014841D02*
X000600Y014841D01*
X000600Y014999D02*
X005390Y014999D01*
X005390Y015158D02*
X000600Y015158D01*
X000600Y015316D02*
X005390Y015316D01*
X005390Y015475D02*
X000600Y015475D01*
X000600Y015633D02*
X005390Y015633D01*
X005390Y015792D02*
X000600Y015792D01*
X000600Y015950D02*
X005390Y015950D01*
X005390Y016109D02*
X000600Y016109D01*
X000600Y016267D02*
X005390Y016267D01*
X005390Y016426D02*
X000600Y016426D01*
X000600Y016584D02*
X005390Y016584D01*
X005390Y016743D02*
X000600Y016743D01*
X000600Y016901D02*
X005390Y016901D01*
X005390Y017060D02*
X000600Y017060D01*
X000600Y017218D02*
X005390Y017218D01*
X005390Y017377D02*
X000600Y017377D01*
X000600Y017535D02*
X005390Y017535D01*
X005390Y017694D02*
X000600Y017694D01*
X000600Y017852D02*
X005390Y017852D01*
X005390Y018011D02*
X000600Y018011D01*
X000600Y018169D02*
X005390Y018169D01*
X005390Y018328D02*
X000600Y018328D01*
X000600Y018486D02*
X005390Y018486D01*
X005390Y018645D02*
X000600Y018645D01*
X000600Y018803D02*
X005390Y018803D01*
X005390Y018962D02*
X000600Y018962D01*
X000600Y019120D02*
X005390Y019120D01*
X005390Y019279D02*
X000600Y019279D01*
X000600Y019437D02*
X005390Y019437D01*
X005390Y019596D02*
X000600Y019596D01*
X000600Y019754D02*
X005390Y019754D01*
X005390Y019913D02*
X000600Y019913D01*
X000600Y020071D02*
X005390Y020071D01*
X005390Y020230D02*
X000600Y020230D01*
X000600Y020388D02*
X005390Y020388D01*
X005390Y020547D02*
X000600Y020547D01*
X000600Y020705D02*
X005390Y020705D01*
X005390Y020864D02*
X000600Y020864D01*
X000600Y021022D02*
X005390Y021022D01*
X005390Y021181D02*
X000600Y021181D01*
X000600Y021339D02*
X005390Y021339D01*
X005390Y021498D02*
X000600Y021498D01*
X000600Y021656D02*
X001670Y021656D01*
X001708Y021640D02*
X001539Y021710D01*
X001410Y021839D01*
X001340Y022008D01*
X001340Y022191D01*
X001410Y022361D01*
X001539Y022490D01*
X001708Y022560D01*
X002491Y022560D01*
X002661Y022490D01*
X002790Y022361D01*
X002860Y022191D01*
X002860Y022008D01*
X002790Y021839D01*
X002661Y021710D01*
X002491Y021640D01*
X001708Y021640D01*
X001435Y021815D02*
X000600Y021815D01*
X000600Y021973D02*
X001355Y021973D01*
X001340Y022132D02*
X000600Y022132D01*
X000600Y022290D02*
X001381Y022290D01*
X001498Y022449D02*
X000600Y022449D01*
X000600Y022607D02*
X005390Y022607D01*
X005390Y022449D02*
X002702Y022449D01*
X002819Y022290D02*
X005390Y022290D01*
X005390Y022132D02*
X002860Y022132D01*
X002845Y021973D02*
X005390Y021973D01*
X005390Y021815D02*
X002765Y021815D01*
X002530Y021656D02*
X005390Y021656D01*
X005810Y021656D02*
X017817Y021656D01*
X017975Y021815D02*
X005810Y021815D01*
X005810Y021973D02*
X018134Y021973D01*
X018292Y022132D02*
X005810Y022132D01*
X005810Y022290D02*
X018451Y022290D01*
X018600Y022100D02*
X026100Y022100D01*
X026100Y020600D01*
X023100Y020600D01*
X022600Y020100D01*
X022600Y018600D01*
X023340Y018645D02*
X024405Y018645D01*
X024409Y018640D02*
X024791Y018640D01*
X025060Y018909D01*
X025060Y019291D01*
X024791Y019560D01*
X024409Y019560D01*
X024140Y019291D01*
X024140Y018909D01*
X024409Y018640D01*
X024409Y018560D02*
X024140Y018291D01*
X024140Y017909D01*
X024409Y017640D01*
X024791Y017640D01*
X025060Y017909D01*
X025060Y018291D01*
X024791Y018560D01*
X024409Y018560D01*
X024335Y018486D02*
X023340Y018486D01*
X023340Y018328D02*
X024177Y018328D01*
X024140Y018169D02*
X023340Y018169D01*
X023340Y018011D02*
X024140Y018011D01*
X024197Y017852D02*
X023958Y017852D01*
X023958Y017694D02*
X024356Y017694D01*
X024409Y017560D02*
X024140Y017291D01*
X024140Y016909D01*
X024409Y016640D01*
X024791Y016640D01*
X025060Y016909D01*
X025060Y017291D01*
X024791Y017560D01*
X024409Y017560D01*
X024384Y017535D02*
X023958Y017535D01*
X023958Y017377D02*
X024226Y017377D01*
X024140Y017218D02*
X023340Y017218D01*
X023340Y017060D02*
X024140Y017060D01*
X024148Y016901D02*
X023921Y016901D01*
X023958Y016743D02*
X024307Y016743D01*
X024893Y016743D02*
X025307Y016743D01*
X025409Y016640D02*
X025791Y016640D01*
X026060Y016909D01*
X026060Y017291D01*
X025791Y017560D01*
X025409Y017560D01*
X025140Y017291D01*
X025140Y016909D01*
X025409Y016640D01*
X025275Y016426D02*
X024925Y016426D01*
X025060Y016267D02*
X025140Y016267D01*
X025140Y016109D02*
X025060Y016109D01*
X025060Y015950D02*
X025140Y015950D01*
X025258Y015792D02*
X024942Y015792D01*
X025052Y016901D02*
X025148Y016901D01*
X025140Y017060D02*
X025060Y017060D01*
X025060Y017218D02*
X025140Y017218D01*
X025226Y017377D02*
X024974Y017377D01*
X024816Y017535D02*
X025384Y017535D01*
X025409Y017640D02*
X025791Y017640D01*
X026060Y017909D01*
X026060Y018291D01*
X025791Y018560D01*
X025409Y018560D01*
X025140Y018291D01*
X025140Y017909D01*
X025409Y017640D01*
X025356Y017694D02*
X024844Y017694D01*
X025003Y017852D02*
X025197Y017852D01*
X025140Y018011D02*
X025060Y018011D01*
X025060Y018169D02*
X025140Y018169D01*
X025177Y018328D02*
X025023Y018328D01*
X024865Y018486D02*
X025335Y018486D01*
X025409Y018640D02*
X025791Y018640D01*
X026060Y018909D01*
X026060Y019291D01*
X025791Y019560D01*
X025409Y019560D01*
X025140Y019291D01*
X025140Y018909D01*
X025409Y018640D01*
X025405Y018645D02*
X024795Y018645D01*
X024954Y018803D02*
X025246Y018803D01*
X025140Y018962D02*
X025060Y018962D01*
X025060Y019120D02*
X025140Y019120D01*
X025140Y019279D02*
X025060Y019279D01*
X024914Y019437D02*
X025286Y019437D01*
X025914Y019437D02*
X027360Y019437D01*
X027360Y019279D02*
X026060Y019279D01*
X026060Y019120D02*
X027360Y019120D01*
X027360Y018962D02*
X026060Y018962D01*
X025954Y018803D02*
X027360Y018803D01*
X027360Y018645D02*
X025795Y018645D01*
X025865Y018486D02*
X027360Y018486D01*
X027360Y018328D02*
X026023Y018328D01*
X026060Y018169D02*
X027360Y018169D01*
X027360Y018011D02*
X026060Y018011D01*
X026003Y017852D02*
X027360Y017852D01*
X027360Y017694D02*
X025844Y017694D01*
X025816Y017535D02*
X027360Y017535D01*
X027360Y017377D02*
X025974Y017377D01*
X026060Y017218D02*
X027360Y017218D01*
X027360Y017060D02*
X026060Y017060D01*
X026052Y016901D02*
X027360Y016901D01*
X027360Y016743D02*
X025893Y016743D01*
X027840Y016743D02*
X028490Y016743D01*
X028490Y016901D02*
X027840Y016901D01*
X027840Y017060D02*
X028490Y017060D01*
X028490Y017218D02*
X027840Y017218D01*
X027840Y017377D02*
X028490Y017377D01*
X028490Y017535D02*
X027840Y017535D01*
X027840Y017694D02*
X028490Y017694D01*
X028490Y017852D02*
X027840Y017852D01*
X027840Y018011D02*
X028490Y018011D01*
X028490Y018169D02*
X027840Y018169D01*
X027840Y018328D02*
X028490Y018328D01*
X028490Y018486D02*
X027840Y018486D01*
X027840Y018645D02*
X028490Y018645D01*
X028490Y018803D02*
X027840Y018803D01*
X027840Y018962D02*
X028490Y018962D01*
X028490Y019120D02*
X027840Y019120D01*
X027840Y019279D02*
X028490Y019279D01*
X028490Y019437D02*
X027840Y019437D01*
X027840Y019596D02*
X028490Y019596D01*
X028490Y019754D02*
X027840Y019754D01*
X027840Y019913D02*
X028490Y019913D01*
X028490Y020071D02*
X027840Y020071D01*
X027806Y020230D02*
X028490Y020230D01*
X028490Y020388D02*
X026215Y020388D01*
X026338Y020547D02*
X028490Y020547D01*
X028490Y020705D02*
X026340Y020705D01*
X026340Y020864D02*
X028490Y020864D01*
X028490Y021022D02*
X026340Y021022D01*
X026340Y021181D02*
X028490Y021181D01*
X028490Y021339D02*
X026340Y021339D01*
X026340Y021498D02*
X028490Y021498D01*
X028490Y021656D02*
X026340Y021656D01*
X026340Y021815D02*
X028490Y021815D01*
X028490Y021973D02*
X026340Y021973D01*
X026340Y022132D02*
X028490Y022132D01*
X028490Y022290D02*
X026249Y022290D01*
X025600Y021600D02*
X022600Y021600D01*
X019100Y018100D01*
X020600Y018600D02*
X021100Y018100D01*
X021600Y017600D01*
X022600Y017600D01*
X023100Y017100D02*
X023100Y020100D01*
X027600Y020100D01*
X027600Y011100D01*
X026600Y011100D01*
X026330Y010720D02*
X025870Y010720D01*
X025791Y010640D02*
X025409Y010640D01*
X025140Y010909D01*
X025140Y011291D01*
X025409Y011560D01*
X025791Y011560D01*
X026060Y011291D01*
X026060Y010909D01*
X025791Y010640D01*
X026029Y010878D02*
X026171Y010878D01*
X026140Y011037D02*
X026060Y011037D01*
X026060Y011195D02*
X026140Y011195D01*
X026203Y011354D02*
X025997Y011354D01*
X025839Y011512D02*
X026361Y011512D01*
X026409Y011640D02*
X026791Y011640D01*
X027060Y011909D01*
X027060Y012291D01*
X026791Y012560D01*
X026409Y012560D01*
X026140Y012291D01*
X026140Y011909D01*
X026409Y011640D01*
X026379Y011671D02*
X025821Y011671D01*
X025791Y011640D02*
X026060Y011909D01*
X026060Y012291D01*
X025791Y012560D01*
X025409Y012560D01*
X025140Y012291D01*
X025140Y011909D01*
X025409Y011640D01*
X025791Y011640D01*
X025980Y011829D02*
X026220Y011829D01*
X026140Y011988D02*
X026060Y011988D01*
X026060Y012146D02*
X026140Y012146D01*
X026154Y012305D02*
X026046Y012305D01*
X025888Y012463D02*
X026312Y012463D01*
X026888Y012463D02*
X027360Y012463D01*
X027360Y012305D02*
X027046Y012305D01*
X027060Y012146D02*
X027360Y012146D01*
X027360Y011988D02*
X027060Y011988D01*
X026980Y011829D02*
X027360Y011829D01*
X027360Y011671D02*
X026821Y011671D01*
X026839Y011512D02*
X027360Y011512D01*
X027360Y011354D02*
X026997Y011354D01*
X026870Y010720D02*
X028490Y010720D01*
X028490Y010878D02*
X027691Y010878D01*
X027833Y011037D02*
X028490Y011037D01*
X028490Y011195D02*
X027840Y011195D01*
X027840Y011354D02*
X028490Y011354D01*
X028490Y011512D02*
X027840Y011512D01*
X027840Y011671D02*
X028490Y011671D01*
X028490Y011829D02*
X027840Y011829D01*
X027840Y011988D02*
X028490Y011988D01*
X028490Y012146D02*
X027840Y012146D01*
X027840Y012305D02*
X028490Y012305D01*
X028490Y012463D02*
X027840Y012463D01*
X027840Y012622D02*
X028490Y012622D01*
X028490Y012780D02*
X027840Y012780D01*
X027840Y012939D02*
X028490Y012939D01*
X028490Y013097D02*
X027840Y013097D01*
X027840Y013256D02*
X028490Y013256D01*
X028490Y013414D02*
X027840Y013414D01*
X027840Y013573D02*
X028490Y013573D01*
X028490Y013731D02*
X027840Y013731D01*
X027840Y013890D02*
X028490Y013890D01*
X028490Y014048D02*
X027840Y014048D01*
X027840Y014207D02*
X028490Y014207D01*
X028490Y014365D02*
X027840Y014365D01*
X027840Y014524D02*
X028490Y014524D01*
X028490Y014682D02*
X027840Y014682D01*
X027840Y014841D02*
X028490Y014841D01*
X028490Y014999D02*
X027840Y014999D01*
X027840Y015158D02*
X028490Y015158D01*
X028490Y015316D02*
X027840Y015316D01*
X027840Y015475D02*
X028490Y015475D01*
X028490Y015633D02*
X027840Y015633D01*
X027840Y015792D02*
X028490Y015792D01*
X028490Y015950D02*
X027840Y015950D01*
X027840Y016109D02*
X028490Y016109D01*
X028490Y016267D02*
X027840Y016267D01*
X027840Y016426D02*
X028490Y016426D01*
X028490Y016584D02*
X027840Y016584D01*
X027360Y019596D02*
X023340Y019596D01*
X023340Y019754D02*
X027360Y019754D01*
X028490Y022449D02*
X005810Y022449D01*
X005810Y022607D02*
X028490Y022607D01*
X028490Y022766D02*
X005810Y022766D01*
X005810Y022924D02*
X028490Y022924D01*
X028490Y023083D02*
X005810Y023083D01*
X005913Y023241D02*
X007259Y023241D01*
X007395Y023105D02*
X007105Y023395D01*
X007105Y023600D01*
X007600Y023600D01*
X008095Y023600D01*
X008095Y023805D01*
X007805Y024095D01*
X007600Y024095D01*
X007600Y023600D01*
X007600Y023600D01*
X007600Y023600D01*
X008095Y023600D01*
X008095Y023395D01*
X007805Y023105D01*
X007600Y023105D01*
X007600Y023600D01*
X007600Y023600D01*
X007600Y023600D01*
X007600Y024095D01*
X007395Y024095D01*
X007105Y023805D01*
X007105Y023600D01*
X007600Y023600D01*
X007600Y023105D01*
X007395Y023105D01*
X007600Y023241D02*
X007600Y023241D01*
X007600Y023400D02*
X007600Y023400D01*
X007600Y023558D02*
X007600Y023558D01*
X007600Y023717D02*
X007600Y023717D01*
X007600Y023875D02*
X007600Y023875D01*
X007600Y024034D02*
X007600Y024034D01*
X007866Y024034D02*
X028490Y024034D01*
X028490Y024192D02*
X004805Y024192D01*
X004963Y024034D02*
X005362Y024034D01*
X005203Y023875D02*
X005122Y023875D01*
X004528Y023875D02*
X002824Y023875D01*
X002875Y024034D02*
X004369Y024034D01*
X004211Y024192D02*
X002871Y024192D01*
X002868Y024212D02*
X002845Y024284D01*
X002811Y024352D01*
X002766Y024413D01*
X002713Y024466D01*
X002652Y024511D01*
X002584Y024545D01*
X002512Y024568D01*
X002438Y024580D01*
X002120Y024580D01*
X002120Y024120D01*
X002880Y024120D01*
X002880Y024138D01*
X002868Y024212D01*
X002811Y024351D02*
X004052Y024351D01*
X003894Y024509D02*
X002654Y024509D01*
X002120Y024509D02*
X002080Y024509D01*
X002080Y024351D02*
X002120Y024351D01*
X002120Y024192D02*
X002080Y024192D01*
X002080Y024080D02*
X001320Y024080D01*
X001320Y024062D01*
X001332Y023988D01*
X001355Y023916D01*
X001389Y023848D01*
X001434Y023787D01*
X001487Y023734D01*
X001548Y023689D01*
X001616Y023655D01*
X001688Y023632D01*
X001762Y023620D01*
X002080Y023620D01*
X002080Y024080D01*
X002080Y024034D02*
X002120Y024034D01*
X002120Y023875D02*
X002080Y023875D01*
X002080Y023717D02*
X002120Y023717D01*
X001704Y023558D02*
X000600Y023558D01*
X000600Y023400D02*
X001449Y023400D01*
X001361Y023241D02*
X000600Y023241D01*
X000600Y023083D02*
X001340Y023083D01*
X001375Y022924D02*
X000600Y022924D01*
X000600Y022766D02*
X001484Y022766D01*
X001511Y023717D02*
X000600Y023717D01*
X000600Y023875D02*
X001376Y023875D01*
X001325Y024034D02*
X000600Y024034D01*
X000600Y024192D02*
X001329Y024192D01*
X001389Y024351D02*
X000600Y024351D01*
X000600Y024509D02*
X001546Y024509D01*
X000600Y024668D02*
X003735Y024668D01*
X003577Y024826D02*
X000600Y024826D01*
X000600Y024985D02*
X003418Y024985D01*
X003260Y025143D02*
X000600Y025143D01*
X000600Y025302D02*
X003101Y025302D01*
X002943Y025460D02*
X000600Y025460D01*
X000600Y025619D02*
X002784Y025619D01*
X002626Y025777D02*
X000600Y025777D01*
X000600Y025936D02*
X002467Y025936D01*
X002309Y026094D02*
X000600Y026094D01*
X000600Y026253D02*
X001776Y026253D01*
X001625Y026411D02*
X000600Y026411D01*
X000600Y026570D02*
X001625Y026570D01*
X001625Y026728D02*
X000600Y026728D01*
X000600Y026887D02*
X001715Y026887D01*
X001873Y027045D02*
X000600Y027045D01*
X000600Y027204D02*
X014753Y027204D01*
X014710Y027161D02*
X014640Y026991D01*
X014640Y026208D01*
X014710Y026039D01*
X014839Y025910D01*
X015008Y025840D01*
X015191Y025840D01*
X015361Y025910D01*
X015490Y026039D01*
X015560Y026208D01*
X015560Y026991D01*
X015490Y027161D01*
X015361Y027290D01*
X015191Y027360D01*
X015008Y027360D01*
X014839Y027290D01*
X014710Y027161D01*
X014662Y027045D02*
X007855Y027045D01*
X007805Y027095D02*
X008095Y026805D01*
X008095Y026600D01*
X007600Y026600D01*
X007600Y026600D01*
X007600Y026600D01*
X007600Y027095D01*
X007805Y027095D01*
X007600Y027095D02*
X007395Y027095D01*
X007105Y026805D01*
X007105Y026600D01*
X007600Y026600D01*
X008095Y026600D01*
X008095Y026395D01*
X007805Y026105D01*
X007600Y026105D01*
X007600Y026600D01*
X007600Y026600D01*
X007600Y026600D01*
X007600Y027095D01*
X007600Y027045D02*
X007600Y027045D01*
X007600Y026887D02*
X007600Y026887D01*
X007600Y026728D02*
X007600Y026728D01*
X007600Y026600D02*
X007105Y026600D01*
X007105Y026395D01*
X007395Y026105D01*
X007600Y026105D01*
X007600Y026600D01*
X007600Y026570D02*
X007600Y026570D01*
X007600Y026411D02*
X007600Y026411D01*
X007600Y026253D02*
X007600Y026253D01*
X007953Y026253D02*
X014640Y026253D01*
X014640Y026411D02*
X008095Y026411D01*
X008095Y026570D02*
X014640Y026570D01*
X014640Y026728D02*
X008095Y026728D01*
X008013Y026887D02*
X014640Y026887D01*
X014687Y026094D02*
X005391Y026094D01*
X005233Y025936D02*
X014814Y025936D01*
X015386Y025936D02*
X015814Y025936D01*
X015839Y025910D02*
X016008Y025840D01*
X016191Y025840D01*
X016361Y025910D01*
X016490Y026039D01*
X016560Y026208D01*
X016560Y026991D01*
X016490Y027161D01*
X016361Y027290D01*
X016191Y027360D01*
X016008Y027360D01*
X015839Y027290D01*
X015710Y027161D01*
X015640Y026991D01*
X015640Y026208D01*
X015710Y026039D01*
X015839Y025910D01*
X015687Y026094D02*
X015513Y026094D01*
X015560Y026253D02*
X015640Y026253D01*
X015640Y026411D02*
X015560Y026411D01*
X015560Y026570D02*
X015640Y026570D01*
X015640Y026728D02*
X015560Y026728D01*
X015560Y026887D02*
X015640Y026887D01*
X015662Y027045D02*
X015538Y027045D01*
X015447Y027204D02*
X015753Y027204D01*
X016447Y027204D02*
X016753Y027204D01*
X016710Y027161D02*
X016640Y026991D01*
X016640Y026208D01*
X016710Y026039D01*
X016839Y025910D01*
X017008Y025840D01*
X017191Y025840D01*
X017361Y025910D01*
X017490Y026039D01*
X017560Y026208D01*
X017560Y026991D01*
X017490Y027161D01*
X017361Y027290D01*
X017191Y027360D01*
X017008Y027360D01*
X016839Y027290D01*
X016710Y027161D01*
X016662Y027045D02*
X016538Y027045D01*
X016560Y026887D02*
X016640Y026887D01*
X016640Y026728D02*
X016560Y026728D01*
X016560Y026570D02*
X016640Y026570D01*
X016640Y026411D02*
X016560Y026411D01*
X016560Y026253D02*
X016640Y026253D01*
X016687Y026094D02*
X016513Y026094D01*
X016386Y025936D02*
X016814Y025936D01*
X017386Y025936D02*
X017814Y025936D01*
X017839Y025910D02*
X018008Y025840D01*
X018191Y025840D01*
X018361Y025910D01*
X018490Y026039D01*
X018560Y026208D01*
X018560Y026991D01*
X018490Y027161D01*
X018361Y027290D01*
X018191Y027360D01*
X018008Y027360D01*
X017839Y027290D01*
X017710Y027161D01*
X017640Y026991D01*
X017640Y026208D01*
X017710Y026039D01*
X017839Y025910D01*
X017687Y026094D02*
X017513Y026094D01*
X017560Y026253D02*
X017640Y026253D01*
X017640Y026411D02*
X017560Y026411D01*
X017560Y026570D02*
X017640Y026570D01*
X017640Y026728D02*
X017560Y026728D01*
X017560Y026887D02*
X017640Y026887D01*
X017662Y027045D02*
X017538Y027045D01*
X017447Y027204D02*
X017753Y027204D01*
X018447Y027204D02*
X018753Y027204D01*
X018710Y027161D02*
X018640Y026991D01*
X018640Y026208D01*
X018710Y026039D01*
X018839Y025910D01*
X019008Y025840D01*
X019191Y025840D01*
X019361Y025910D01*
X019490Y026039D01*
X019560Y026208D01*
X019560Y026991D01*
X019490Y027161D01*
X019361Y027290D01*
X019191Y027360D01*
X019008Y027360D01*
X018839Y027290D01*
X018710Y027161D01*
X018662Y027045D02*
X018538Y027045D01*
X018560Y026887D02*
X018640Y026887D01*
X018640Y026728D02*
X018560Y026728D01*
X018560Y026570D02*
X018640Y026570D01*
X018640Y026411D02*
X018560Y026411D01*
X018560Y026253D02*
X018640Y026253D01*
X018687Y026094D02*
X018513Y026094D01*
X018386Y025936D02*
X018814Y025936D01*
X019386Y025936D02*
X019814Y025936D01*
X019839Y025910D02*
X020008Y025840D01*
X020191Y025840D01*
X020361Y025910D01*
X020490Y026039D01*
X020560Y026208D01*
X020560Y026991D01*
X020490Y027161D01*
X020361Y027290D01*
X020191Y027360D01*
X020008Y027360D01*
X019839Y027290D01*
X019710Y027161D01*
X019640Y026991D01*
X019640Y026208D01*
X019710Y026039D01*
X019839Y025910D01*
X019687Y026094D02*
X019513Y026094D01*
X019560Y026253D02*
X019640Y026253D01*
X019640Y026411D02*
X019560Y026411D01*
X019560Y026570D02*
X019640Y026570D01*
X019640Y026728D02*
X019560Y026728D01*
X019560Y026887D02*
X019640Y026887D01*
X019662Y027045D02*
X019538Y027045D01*
X019447Y027204D02*
X019753Y027204D01*
X020447Y027204D02*
X023129Y027204D01*
X023120Y027362D02*
X000600Y027362D01*
X000600Y027521D02*
X023120Y027521D01*
X023120Y027679D02*
X000600Y027679D01*
X000600Y027838D02*
X023120Y027838D01*
X023129Y027996D02*
X000600Y027996D01*
X000600Y028155D02*
X023192Y028155D01*
X023353Y028313D02*
X000600Y028313D01*
X000600Y028472D02*
X028490Y028472D01*
X028490Y028630D02*
X000600Y028630D01*
X000600Y028789D02*
X028490Y028789D01*
X028490Y028947D02*
X000600Y028947D01*
X002327Y027045D02*
X003845Y027045D01*
X003895Y027095D02*
X003605Y026805D01*
X003605Y026600D01*
X004100Y026600D01*
X004595Y026600D01*
X004595Y026805D01*
X004305Y027095D01*
X004100Y027095D01*
X004100Y026600D01*
X004100Y026600D01*
X004100Y026600D01*
X004595Y026600D01*
X004595Y026395D01*
X004305Y026105D01*
X004100Y026105D01*
X004100Y026600D01*
X004100Y026600D01*
X004100Y026600D01*
X004100Y027095D01*
X003895Y027095D01*
X004100Y027045D02*
X004100Y027045D01*
X004100Y026887D02*
X004100Y026887D01*
X004100Y026728D02*
X004100Y026728D01*
X004100Y026600D02*
X003605Y026600D01*
X003605Y026395D01*
X003895Y026105D01*
X004100Y026105D01*
X004100Y026600D01*
X004100Y026570D02*
X004100Y026570D01*
X004100Y026411D02*
X004100Y026411D01*
X004100Y026253D02*
X004100Y026253D01*
X004453Y026253D02*
X004956Y026253D01*
X005114Y026411D02*
X004595Y026411D01*
X004595Y026570D02*
X005125Y026570D01*
X005125Y026728D02*
X004595Y026728D01*
X004513Y026887D02*
X005215Y026887D01*
X005373Y027045D02*
X004355Y027045D01*
X003687Y026887D02*
X002485Y026887D01*
X002575Y026728D02*
X003605Y026728D01*
X003605Y026570D02*
X002575Y026570D01*
X002586Y026411D02*
X003605Y026411D01*
X003747Y026253D02*
X002744Y026253D01*
X002903Y026094D02*
X004797Y026094D01*
X004639Y025936D02*
X003061Y025936D01*
X003220Y025777D02*
X004480Y025777D01*
X004322Y025619D02*
X003378Y025619D01*
X003537Y025460D02*
X004163Y025460D01*
X004440Y025143D02*
X022360Y025143D01*
X022360Y024985D02*
X004282Y024985D01*
X004171Y024826D02*
X022242Y024826D01*
X022242Y024668D02*
X004329Y024668D01*
X004488Y024509D02*
X022242Y024509D01*
X022242Y024351D02*
X004646Y024351D01*
X004599Y025302D02*
X022360Y025302D01*
X022600Y025600D02*
X022600Y024600D01*
X022958Y024668D02*
X028490Y024668D01*
X028490Y024826D02*
X022958Y024826D01*
X022840Y024985D02*
X028490Y024985D01*
X028490Y025143D02*
X025794Y025143D01*
X025791Y025140D02*
X026060Y025409D01*
X026060Y025791D01*
X025791Y026060D01*
X025409Y026060D01*
X025140Y025791D01*
X025140Y025409D01*
X025409Y025140D01*
X025791Y025140D01*
X025952Y025302D02*
X028490Y025302D01*
X028490Y025460D02*
X026060Y025460D01*
X026060Y025619D02*
X028490Y025619D01*
X028490Y025777D02*
X026060Y025777D01*
X025915Y025936D02*
X028490Y025936D01*
X028490Y026094D02*
X023391Y026094D01*
X023409Y026060D02*
X023140Y025791D01*
X023140Y025409D01*
X023409Y025140D01*
X023791Y025140D01*
X024060Y025409D01*
X024060Y025791D01*
X023791Y026060D01*
X023409Y026060D01*
X023285Y025936D02*
X023233Y025936D01*
X023140Y025777D02*
X023074Y025777D01*
X023140Y025619D02*
X022916Y025619D01*
X022840Y025460D02*
X023140Y025460D01*
X023248Y025302D02*
X022840Y025302D01*
X022840Y025143D02*
X023406Y025143D01*
X023794Y025143D02*
X024406Y025143D01*
X024409Y025140D02*
X024791Y025140D01*
X025060Y025409D01*
X025060Y025791D01*
X024791Y026060D01*
X024409Y026060D01*
X024140Y025791D01*
X024140Y025409D01*
X024409Y025140D01*
X024248Y025302D02*
X023952Y025302D01*
X024060Y025460D02*
X024140Y025460D01*
X024140Y025619D02*
X024060Y025619D01*
X024060Y025777D02*
X024140Y025777D01*
X024285Y025936D02*
X023915Y025936D01*
X023903Y026253D02*
X024297Y026253D01*
X024903Y026253D02*
X025297Y026253D01*
X025285Y025936D02*
X024915Y025936D01*
X025060Y025777D02*
X025140Y025777D01*
X025140Y025619D02*
X025060Y025619D01*
X025060Y025460D02*
X025140Y025460D01*
X025248Y025302D02*
X024952Y025302D01*
X024794Y025143D02*
X025406Y025143D01*
X025903Y026253D02*
X028490Y026253D01*
X028490Y026411D02*
X026060Y026411D01*
X026060Y026570D02*
X028490Y026570D01*
X028490Y026728D02*
X026060Y026728D01*
X025964Y026887D02*
X028490Y026887D01*
X028490Y027045D02*
X026008Y027045D01*
X026071Y027204D02*
X028490Y027204D01*
X028490Y027362D02*
X026080Y027362D01*
X026080Y027521D02*
X028490Y027521D01*
X028490Y027679D02*
X026080Y027679D01*
X026080Y027838D02*
X028490Y027838D01*
X028490Y027996D02*
X026071Y027996D01*
X026008Y028155D02*
X028490Y028155D01*
X028490Y028313D02*
X025847Y028313D01*
X025620Y028313D02*
X025580Y028313D01*
X025580Y028155D02*
X025620Y028155D01*
X025620Y027996D02*
X025580Y027996D01*
X025580Y027838D02*
X025620Y027838D01*
X025620Y027679D02*
X025580Y027679D01*
X025120Y027679D02*
X025080Y027679D01*
X025080Y027521D02*
X025120Y027521D01*
X025120Y027362D02*
X025080Y027362D01*
X025071Y027204D02*
X025129Y027204D01*
X025192Y027045D02*
X025008Y027045D01*
X024964Y026887D02*
X025236Y026887D01*
X025120Y027838D02*
X025080Y027838D01*
X025071Y027996D02*
X025129Y027996D01*
X025192Y028155D02*
X025008Y028155D01*
X024847Y028313D02*
X025353Y028313D01*
X024620Y028313D02*
X024580Y028313D01*
X024580Y028155D02*
X024620Y028155D01*
X024620Y027996D02*
X024580Y027996D01*
X024580Y027838D02*
X024620Y027838D01*
X024620Y027679D02*
X024580Y027679D01*
X024129Y027996D02*
X024071Y027996D01*
X024080Y027838D02*
X024120Y027838D01*
X024120Y027679D02*
X024080Y027679D01*
X024080Y027521D02*
X024120Y027521D01*
X024120Y027362D02*
X024080Y027362D01*
X024071Y027204D02*
X024129Y027204D01*
X024192Y027045D02*
X024008Y027045D01*
X023964Y026887D02*
X024236Y026887D01*
X023620Y027679D02*
X023580Y027679D01*
X023580Y027838D02*
X023620Y027838D01*
X023620Y027996D02*
X023580Y027996D01*
X023580Y028155D02*
X023620Y028155D01*
X023620Y028313D02*
X023580Y028313D01*
X023847Y028313D02*
X024353Y028313D01*
X024192Y028155D02*
X024008Y028155D01*
X023192Y027045D02*
X020538Y027045D01*
X020560Y026887D02*
X023236Y026887D01*
X023140Y026728D02*
X020560Y026728D01*
X020560Y026570D02*
X023140Y026570D01*
X023114Y026411D02*
X020560Y026411D01*
X020560Y026253D02*
X022956Y026253D01*
X022797Y026094D02*
X020513Y026094D01*
X020386Y025936D02*
X022639Y025936D01*
X022958Y024509D02*
X028490Y024509D01*
X028490Y024351D02*
X022958Y024351D01*
X018600Y020100D02*
X013600Y020100D01*
X013877Y019754D02*
X018323Y019754D01*
X018266Y020388D02*
X017215Y020388D01*
X017024Y020864D02*
X005810Y020864D01*
X005810Y021022D02*
X017183Y021022D01*
X017341Y021181D02*
X005810Y021181D01*
X005810Y021339D02*
X017500Y021339D01*
X017658Y021498D02*
X005810Y021498D01*
X005390Y022766D02*
X002716Y022766D01*
X002825Y022924D02*
X005390Y022924D01*
X005390Y023083D02*
X002860Y023083D01*
X002839Y023241D02*
X005287Y023241D01*
X006071Y023400D02*
X007105Y023400D01*
X007105Y023558D02*
X006075Y023558D01*
X006075Y023717D02*
X007105Y023717D01*
X007175Y023875D02*
X005997Y023875D01*
X005838Y024034D02*
X007334Y024034D01*
X008025Y023875D02*
X028490Y023875D01*
X028490Y023717D02*
X008095Y023717D01*
X008095Y023558D02*
X028490Y023558D01*
X028490Y023400D02*
X008095Y023400D01*
X007941Y023241D02*
X028490Y023241D01*
X024286Y019437D02*
X023340Y019437D01*
X023340Y019279D02*
X024140Y019279D01*
X024140Y019120D02*
X023340Y019120D01*
X023340Y018962D02*
X024140Y018962D01*
X024246Y018803D02*
X023340Y018803D01*
X023100Y017100D02*
X021100Y017100D01*
X020742Y017060D02*
X011958Y017060D01*
X011958Y017218D02*
X020742Y017218D01*
X020754Y017377D02*
X011946Y017377D01*
X011600Y017100D02*
X011100Y017600D01*
X011958Y016901D02*
X020742Y016901D01*
X021446Y017377D02*
X021512Y017377D01*
X021326Y017535D02*
X020832Y017535D01*
X020991Y017694D02*
X021167Y017694D01*
X023240Y016901D02*
X023279Y016901D01*
X023600Y016600D02*
X011100Y016600D01*
X011100Y016100D02*
X023600Y016100D01*
X023242Y015792D02*
X011414Y015792D01*
X009360Y015792D02*
X007840Y015792D01*
X007840Y015950D02*
X009360Y015950D01*
X009360Y016109D02*
X007840Y016109D01*
X007840Y016267D02*
X009360Y016267D01*
X009360Y016426D02*
X007840Y016426D01*
X007840Y016584D02*
X009360Y016584D01*
X009360Y016743D02*
X007840Y016743D01*
X007840Y016901D02*
X009360Y016901D01*
X009360Y017060D02*
X007840Y017060D01*
X007840Y017218D02*
X009360Y017218D01*
X009360Y017377D02*
X007840Y017377D01*
X007840Y017535D02*
X009360Y017535D01*
X009360Y017694D02*
X007840Y017694D01*
X007840Y017852D02*
X009360Y017852D01*
X009360Y018011D02*
X007840Y018011D01*
X007840Y018169D02*
X009369Y018169D01*
X009488Y018328D02*
X007840Y018328D01*
X007840Y018486D02*
X009647Y018486D01*
X009897Y018736D02*
X009964Y018803D01*
X007360Y018011D02*
X007283Y018011D01*
X007840Y015633D02*
X009360Y015633D01*
X009360Y015475D02*
X007840Y015475D01*
X007840Y015316D02*
X009360Y015316D01*
X009360Y015158D02*
X007840Y015158D01*
X007840Y014999D02*
X009360Y014999D01*
X009360Y014841D02*
X007840Y014841D01*
X007840Y014682D02*
X009360Y014682D01*
X009360Y014524D02*
X007840Y014524D01*
X007360Y014207D02*
X007357Y014207D01*
X007360Y014048D02*
X007303Y014048D01*
X007360Y013097D02*
X005810Y013097D01*
X005810Y014048D02*
X005897Y014048D01*
X005815Y014207D02*
X005810Y014207D01*
X006080Y014207D02*
X006120Y014207D01*
X006120Y014365D02*
X006080Y014365D01*
X006080Y014524D02*
X006120Y014524D01*
X006120Y014682D02*
X006080Y014682D01*
X006080Y014841D02*
X006120Y014841D01*
X006120Y014999D02*
X006080Y014999D01*
X005820Y014999D02*
X005810Y014999D01*
X008957Y014365D02*
X009360Y014365D01*
X009360Y014207D02*
X008958Y014207D01*
X010458Y010244D02*
X010617Y010244D01*
X010775Y010086D02*
X010458Y010086D01*
X010612Y009927D02*
X010934Y009927D01*
X011092Y009769D02*
X010771Y009769D01*
X010929Y009610D02*
X011251Y009610D01*
X011409Y009452D02*
X011088Y009452D01*
X010885Y008976D02*
X007840Y008976D01*
X007840Y008818D02*
X014498Y008818D01*
X014365Y008659D02*
X007840Y008659D01*
X007840Y008501D02*
X012800Y008501D01*
X012895Y008595D02*
X012605Y008305D01*
X012605Y008100D01*
X013100Y008100D01*
X013595Y008100D01*
X013595Y008305D01*
X013305Y008595D01*
X013100Y008595D01*
X013100Y008100D01*
X013100Y008100D01*
X013100Y008100D01*
X013595Y008100D01*
X013595Y007895D01*
X013305Y007605D01*
X013100Y007605D01*
X013100Y008100D01*
X013100Y008100D01*
X013100Y008100D01*
X013100Y008595D01*
X012895Y008595D01*
X013100Y008501D02*
X013100Y008501D01*
X013100Y008342D02*
X013100Y008342D01*
X013100Y008184D02*
X013100Y008184D01*
X013100Y008100D02*
X012605Y008100D01*
X012605Y007895D01*
X012895Y007605D01*
X013100Y007605D01*
X013100Y008100D01*
X013100Y008025D02*
X013100Y008025D01*
X013100Y007867D02*
X013100Y007867D01*
X013100Y007708D02*
X013100Y007708D01*
X013408Y007708D02*
X014360Y007708D01*
X014360Y007550D02*
X007839Y007550D01*
X007840Y007708D02*
X012792Y007708D01*
X012633Y007867D02*
X007840Y007867D01*
X007840Y008025D02*
X012605Y008025D01*
X012605Y008184D02*
X007840Y008184D01*
X007840Y008342D02*
X012642Y008342D01*
X013400Y008501D02*
X014360Y008501D01*
X014360Y008342D02*
X013558Y008342D01*
X013595Y008184D02*
X014360Y008184D01*
X014360Y008025D02*
X013595Y008025D01*
X013567Y007867D02*
X014360Y007867D01*
X014360Y007391D02*
X007723Y007391D01*
X007840Y009135D02*
X010726Y009135D01*
X010568Y009293D02*
X007840Y009293D01*
X007840Y009452D02*
X010409Y009452D01*
X010251Y009610D02*
X007840Y009610D01*
X005890Y009769D02*
X005580Y009769D01*
X005452Y009927D02*
X005890Y009927D01*
X005120Y009927D02*
X005080Y009927D01*
X005080Y009769D02*
X005120Y009769D01*
X003647Y010403D02*
X003553Y010403D01*
X003560Y010561D02*
X003640Y010561D01*
X003640Y010720D02*
X003560Y010720D01*
X003473Y010878D02*
X003727Y010878D01*
X004460Y007391D02*
X004712Y007391D01*
X004620Y007233D02*
X004560Y007233D01*
X004560Y007074D02*
X004620Y007074D01*
X004620Y006916D02*
X004560Y006916D01*
X004408Y006757D02*
X004764Y006757D01*
X006840Y005489D02*
X007289Y005489D01*
X007395Y005595D02*
X007105Y005305D01*
X007105Y005100D01*
X007600Y005100D01*
X008095Y005100D01*
X008095Y005305D01*
X007805Y005595D01*
X007600Y005595D01*
X007600Y005100D01*
X007600Y005100D01*
X007600Y005100D01*
X008095Y005100D01*
X008095Y004895D01*
X007805Y004605D01*
X007600Y004605D01*
X007600Y005100D01*
X007600Y005100D01*
X007600Y005100D01*
X007600Y005595D01*
X007395Y005595D01*
X007600Y005489D02*
X007600Y005489D01*
X007600Y005331D02*
X007600Y005331D01*
X007600Y005172D02*
X007600Y005172D01*
X007600Y005100D02*
X007105Y005100D01*
X007105Y004895D01*
X007395Y004605D01*
X007600Y004605D01*
X007600Y005100D01*
X007600Y005014D02*
X007600Y005014D01*
X007600Y004855D02*
X007600Y004855D01*
X007600Y004697D02*
X007600Y004697D01*
X007897Y004697D02*
X009332Y004697D01*
X009173Y004855D02*
X008055Y004855D01*
X008095Y005014D02*
X009125Y005014D01*
X009125Y005172D02*
X008095Y005172D01*
X008070Y005331D02*
X009159Y005331D01*
X009317Y005489D02*
X007911Y005489D01*
X007130Y005331D02*
X006840Y005331D01*
X006840Y005172D02*
X007105Y005172D01*
X007105Y005014D02*
X006840Y005014D01*
X006840Y004855D02*
X007145Y004855D01*
X007303Y004697D02*
X006840Y004697D01*
X006840Y004221D02*
X021390Y004221D01*
X021390Y004063D02*
X006840Y004063D01*
X006840Y003904D02*
X021390Y003904D01*
X021390Y003811D02*
X021339Y003790D01*
X021210Y003661D01*
X021140Y003491D01*
X021140Y002708D01*
X021210Y002539D01*
X021339Y002410D01*
X021508Y002340D01*
X021691Y002340D01*
X021861Y002410D01*
X021990Y002539D01*
X022060Y002708D01*
X022060Y003491D01*
X021990Y003661D01*
X021861Y003790D01*
X021810Y003811D01*
X021810Y007216D01*
X022020Y007426D01*
X022020Y007774D01*
X021774Y008020D01*
X021426Y008020D01*
X021180Y007774D01*
X021180Y007426D01*
X021390Y007216D01*
X021390Y003811D01*
X021295Y003746D02*
X020905Y003746D01*
X021020Y003587D02*
X021180Y003587D01*
X021140Y003429D02*
X021060Y003429D01*
X021060Y003270D02*
X021140Y003270D01*
X021140Y003112D02*
X021060Y003112D01*
X021060Y002953D02*
X021140Y002953D01*
X021140Y002795D02*
X021060Y002795D01*
X021030Y002636D02*
X021170Y002636D01*
X021272Y002478D02*
X020928Y002478D01*
X020272Y002478D02*
X006310Y002478D01*
X006310Y002636D02*
X020170Y002636D01*
X020140Y003429D02*
X006840Y003429D01*
X006840Y003587D02*
X020180Y003587D01*
X020295Y003746D02*
X006840Y003746D01*
X006310Y002319D02*
X022522Y002319D01*
X022364Y002161D02*
X006310Y002161D01*
X006310Y002002D02*
X022205Y002002D01*
X022047Y001844D02*
X006310Y001844D01*
X005890Y001844D02*
X004450Y001844D01*
X004292Y002002D02*
X005890Y002002D01*
X004462Y001368D02*
X028490Y001368D01*
X028490Y001210D02*
X004303Y001210D01*
X003897Y001210D02*
X003303Y001210D01*
X003462Y001368D02*
X003738Y001368D01*
X003750Y001844D02*
X003450Y001844D01*
X003292Y002002D02*
X003908Y002002D01*
X017746Y009293D02*
X019313Y009293D01*
X019887Y009293D02*
X022313Y009293D01*
X022390Y009135D02*
X017905Y009135D01*
X018063Y008976D02*
X022390Y008976D01*
X022390Y008818D02*
X018222Y008818D01*
X018380Y008659D02*
X022390Y008659D01*
X022390Y008501D02*
X018539Y008501D01*
X018697Y008342D02*
X022390Y008342D01*
X022390Y008184D02*
X018825Y008184D01*
X018840Y008025D02*
X022390Y008025D01*
X022390Y007867D02*
X021927Y007867D01*
X022020Y007708D02*
X022390Y007708D01*
X022390Y007550D02*
X022020Y007550D01*
X021985Y007391D02*
X022390Y007391D01*
X022390Y007233D02*
X021826Y007233D01*
X021810Y007074D02*
X022390Y007074D01*
X022390Y006916D02*
X021810Y006916D01*
X021810Y006757D02*
X022390Y006757D01*
X022390Y006599D02*
X021810Y006599D01*
X021810Y006440D02*
X022390Y006440D01*
X022390Y006282D02*
X021810Y006282D01*
X021810Y006123D02*
X022390Y006123D01*
X022390Y005965D02*
X021810Y005965D01*
X021810Y005806D02*
X022390Y005806D01*
X022390Y005648D02*
X021810Y005648D01*
X021810Y005489D02*
X022390Y005489D01*
X022390Y005331D02*
X021810Y005331D01*
X021810Y005172D02*
X022390Y005172D01*
X022390Y005014D02*
X021810Y005014D01*
X021810Y004855D02*
X022390Y004855D01*
X022390Y004697D02*
X021810Y004697D01*
X021810Y004538D02*
X022390Y004538D01*
X022390Y004380D02*
X021810Y004380D01*
X021810Y004221D02*
X022390Y004221D01*
X022390Y004063D02*
X021810Y004063D01*
X021810Y003904D02*
X022390Y003904D01*
X022295Y003746D02*
X021905Y003746D01*
X022020Y003587D02*
X022180Y003587D01*
X022140Y003429D02*
X022060Y003429D01*
X022060Y003270D02*
X022140Y003270D01*
X022140Y003112D02*
X022060Y003112D01*
X022060Y002953D02*
X022140Y002953D01*
X022140Y002795D02*
X022060Y002795D01*
X022030Y002636D02*
X022170Y002636D01*
X022272Y002478D02*
X021928Y002478D01*
X022640Y001844D02*
X028490Y001844D01*
X028490Y002002D02*
X022799Y002002D01*
X022957Y002161D02*
X028490Y002161D01*
X028490Y002319D02*
X023116Y002319D01*
X023140Y002953D02*
X023060Y002953D01*
X023060Y003112D02*
X023140Y003112D01*
X023140Y003270D02*
X023060Y003270D01*
X023060Y003429D02*
X023140Y003429D01*
X023180Y003587D02*
X023020Y003587D01*
X022905Y003746D02*
X023295Y003746D01*
X022810Y003904D02*
X028490Y003904D01*
X028490Y003746D02*
X025933Y003746D01*
X025913Y003766D02*
X025852Y003811D01*
X025784Y003845D01*
X025712Y003868D01*
X025638Y003880D01*
X025620Y003880D01*
X025620Y003120D01*
X025580Y003120D01*
X025580Y003880D01*
X025562Y003880D01*
X025488Y003868D01*
X025416Y003845D01*
X025348Y003811D01*
X025287Y003766D01*
X025234Y003713D01*
X025189Y003652D01*
X025155Y003584D01*
X025132Y003512D01*
X025120Y003438D01*
X025120Y003120D01*
X025580Y003120D01*
X025580Y003080D01*
X025120Y003080D01*
X025120Y002762D01*
X025132Y002688D01*
X025155Y002616D01*
X025189Y002548D01*
X025234Y002487D01*
X025287Y002434D01*
X025348Y002389D01*
X025416Y002355D01*
X025488Y002332D01*
X025562Y002320D01*
X025580Y002320D01*
X025580Y003080D01*
X025620Y003080D01*
X025620Y003120D01*
X026080Y003120D01*
X026080Y003438D01*
X026068Y003512D01*
X026045Y003584D01*
X026011Y003652D01*
X025966Y003713D01*
X025913Y003766D01*
X026043Y003587D02*
X028490Y003587D01*
X028490Y003429D02*
X026080Y003429D01*
X026080Y003270D02*
X028490Y003270D01*
X028490Y003112D02*
X025620Y003112D01*
X025620Y003080D02*
X026080Y003080D01*
X026080Y002762D01*
X026068Y002688D01*
X026045Y002616D01*
X026011Y002548D01*
X025966Y002487D01*
X025913Y002434D01*
X025852Y002389D01*
X025784Y002355D01*
X025712Y002332D01*
X025638Y002320D01*
X025620Y002320D01*
X025620Y003080D01*
X025580Y003112D02*
X025060Y003112D01*
X025060Y003270D02*
X025120Y003270D01*
X025120Y003429D02*
X025060Y003429D01*
X025060Y003491D02*
X024990Y003661D01*
X024861Y003790D01*
X024691Y003860D01*
X024508Y003860D01*
X024339Y003790D01*
X024210Y003661D01*
X024140Y003491D01*
X024140Y002708D01*
X024210Y002539D01*
X024339Y002410D01*
X024508Y002340D01*
X024691Y002340D01*
X024861Y002410D01*
X024990Y002539D01*
X025060Y002708D01*
X025060Y003491D01*
X025020Y003587D02*
X025157Y003587D01*
X025267Y003746D02*
X024905Y003746D01*
X024295Y003746D02*
X023905Y003746D01*
X024020Y003587D02*
X024180Y003587D01*
X024140Y003429D02*
X024060Y003429D01*
X024060Y003270D02*
X024140Y003270D01*
X024140Y003112D02*
X024060Y003112D01*
X024060Y002953D02*
X024140Y002953D01*
X024140Y002795D02*
X024060Y002795D01*
X024030Y002636D02*
X024170Y002636D01*
X024272Y002478D02*
X023928Y002478D01*
X024928Y002478D02*
X025244Y002478D01*
X025149Y002636D02*
X025030Y002636D01*
X025060Y002795D02*
X025120Y002795D01*
X025120Y002953D02*
X025060Y002953D01*
X025580Y002953D02*
X025620Y002953D01*
X025620Y002795D02*
X025580Y002795D01*
X025580Y002636D02*
X025620Y002636D01*
X025620Y002478D02*
X025580Y002478D01*
X025956Y002478D02*
X028490Y002478D01*
X028490Y002636D02*
X026051Y002636D01*
X026080Y002795D02*
X028490Y002795D01*
X028490Y002953D02*
X026080Y002953D01*
X025620Y003270D02*
X025580Y003270D01*
X025580Y003429D02*
X025620Y003429D01*
X025620Y003587D02*
X025580Y003587D01*
X025580Y003746D02*
X025620Y003746D01*
X022810Y004063D02*
X028490Y004063D01*
X028490Y004221D02*
X022810Y004221D01*
X022810Y004380D02*
X028490Y004380D01*
X028490Y004538D02*
X022810Y004538D01*
X022810Y004697D02*
X028490Y004697D01*
X028490Y004855D02*
X022810Y004855D01*
X022810Y005014D02*
X028490Y005014D01*
X028490Y005172D02*
X022810Y005172D01*
X022810Y005331D02*
X028490Y005331D01*
X028490Y005489D02*
X022810Y005489D01*
X022810Y005648D02*
X028490Y005648D01*
X028490Y005806D02*
X022810Y005806D01*
X022810Y005965D02*
X028490Y005965D01*
X028490Y006123D02*
X022810Y006123D01*
X022810Y006282D02*
X028490Y006282D01*
X028490Y006440D02*
X022810Y006440D01*
X022810Y006599D02*
X028490Y006599D01*
X028490Y006757D02*
X022810Y006757D01*
X022810Y006916D02*
X028490Y006916D01*
X028490Y007074D02*
X022810Y007074D01*
X022810Y007233D02*
X028490Y007233D01*
X028490Y007391D02*
X022810Y007391D01*
X022810Y007550D02*
X028490Y007550D01*
X028490Y007708D02*
X022810Y007708D01*
X022810Y007867D02*
X028490Y007867D01*
X028490Y008025D02*
X022810Y008025D01*
X022810Y008184D02*
X028490Y008184D01*
X028490Y008342D02*
X022810Y008342D01*
X022810Y008501D02*
X028490Y008501D01*
X028490Y008659D02*
X022810Y008659D01*
X022810Y008818D02*
X028490Y008818D01*
X028490Y008976D02*
X022810Y008976D01*
X022810Y009135D02*
X028490Y009135D01*
X028490Y009293D02*
X022887Y009293D01*
X023020Y009452D02*
X028490Y009452D01*
X028490Y009610D02*
X023020Y009610D01*
X023020Y009769D02*
X025309Y009769D01*
X025891Y009769D02*
X028490Y009769D01*
X028490Y009927D02*
X025958Y009927D01*
X025280Y010403D02*
X022637Y010403D01*
X022333Y009927D02*
X019867Y009927D01*
X020020Y009769D02*
X022180Y009769D01*
X022180Y009610D02*
X020020Y009610D01*
X020020Y009452D02*
X022180Y009452D01*
X021273Y007867D02*
X018927Y007867D01*
X019020Y007708D02*
X021180Y007708D01*
X021180Y007550D02*
X019020Y007550D01*
X018985Y007391D02*
X021215Y007391D01*
X021374Y007233D02*
X018826Y007233D01*
X018458Y011354D02*
X021007Y011354D01*
X020849Y011512D02*
X018458Y011512D01*
X018458Y011671D02*
X020690Y011671D01*
X020532Y011829D02*
X018458Y011829D01*
X024821Y011671D02*
X025379Y011671D01*
X025361Y011512D02*
X024839Y011512D01*
X024997Y011354D02*
X025203Y011354D01*
X025140Y011195D02*
X025060Y011195D01*
X025060Y011037D02*
X025140Y011037D01*
X025171Y010878D02*
X025029Y010878D01*
X024870Y010720D02*
X025330Y010720D01*
X025220Y011829D02*
X024980Y011829D01*
X025060Y011988D02*
X025140Y011988D01*
X025140Y012146D02*
X025060Y012146D01*
X025046Y012305D02*
X025154Y012305D01*
X025312Y012463D02*
X024888Y012463D01*
X022482Y001685D02*
X028490Y001685D01*
X028490Y001527D02*
X022323Y001527D01*
X007247Y026253D02*
X005924Y026253D01*
X006075Y026411D02*
X007105Y026411D01*
X007105Y026570D02*
X006075Y026570D01*
X006075Y026728D02*
X007105Y026728D01*
X007187Y026887D02*
X005985Y026887D01*
X005827Y027045D02*
X007345Y027045D01*
D18*
X012100Y019100D03*
M02*
