G75*
G70*
%OFA0B0*%
%FSLAX24Y24*%
%IPPOS*%
%LPD*%
%AMOC8*
5,1,8,0,0,1.08239X$1,22.5*
%
%ADD10C,0.0100*%
%ADD11C,0.0060*%
%ADD12C,0.0020*%
%ADD13C,0.0120*%
%ADD14C,0.0050*%
D10*
X013943Y013344D02*
X013844Y013443D01*
X013844Y018561D01*
X014139Y018856D01*
X019257Y018856D01*
X019356Y018757D01*
X019356Y013443D01*
X019257Y013344D01*
X013943Y013344D01*
X014140Y018462D02*
X014142Y018481D01*
X014147Y018500D01*
X014157Y018516D01*
X014169Y018531D01*
X014184Y018543D01*
X014200Y018553D01*
X014219Y018558D01*
X014238Y018560D01*
X014257Y018558D01*
X014276Y018553D01*
X014292Y018543D01*
X014307Y018531D01*
X014319Y018516D01*
X014329Y018500D01*
X014334Y018481D01*
X014336Y018462D01*
X014334Y018443D01*
X014329Y018424D01*
X014319Y018408D01*
X014307Y018393D01*
X014292Y018381D01*
X014276Y018371D01*
X014257Y018366D01*
X014238Y018364D01*
X014219Y018366D01*
X014200Y018371D01*
X014184Y018381D01*
X014169Y018393D01*
X014157Y018408D01*
X014147Y018424D01*
X014142Y018443D01*
X014140Y018462D01*
D11*
X002650Y002100D02*
X002650Y001950D01*
X002652Y001933D01*
X002656Y001916D01*
X002663Y001900D01*
X002673Y001886D01*
X002686Y001873D01*
X002700Y001863D01*
X002716Y001856D01*
X002733Y001852D01*
X002750Y001850D01*
X002650Y002100D02*
X002700Y002150D01*
X002700Y004050D01*
X002650Y004100D01*
X002650Y004250D01*
X002652Y004267D01*
X002656Y004284D01*
X002663Y004300D01*
X002673Y004314D01*
X002686Y004327D01*
X002700Y004337D01*
X002716Y004344D01*
X002733Y004348D01*
X002750Y004350D01*
X003450Y004350D02*
X003467Y004348D01*
X003484Y004344D01*
X003500Y004337D01*
X003514Y004327D01*
X003527Y004314D01*
X003537Y004300D01*
X003544Y004284D01*
X003548Y004267D01*
X003550Y004250D01*
X003550Y004100D01*
X003500Y004050D01*
X003500Y002150D01*
X003550Y002100D01*
X003550Y001950D01*
X003650Y001950D02*
X003650Y002100D01*
X003700Y002150D01*
X003700Y004050D01*
X003650Y004100D01*
X003650Y004250D01*
X003652Y004267D01*
X003656Y004284D01*
X003663Y004300D01*
X003673Y004314D01*
X003686Y004327D01*
X003700Y004337D01*
X003716Y004344D01*
X003733Y004348D01*
X003750Y004350D01*
X004450Y004350D02*
X004467Y004348D01*
X004484Y004344D01*
X004500Y004337D01*
X004514Y004327D01*
X004527Y004314D01*
X004537Y004300D01*
X004544Y004284D01*
X004548Y004267D01*
X004550Y004250D01*
X004550Y004100D01*
X004500Y004050D01*
X004500Y002150D01*
X004550Y002100D01*
X004550Y001950D01*
X004548Y001933D01*
X004544Y001916D01*
X004537Y001900D01*
X004527Y001886D01*
X004514Y001873D01*
X004500Y001863D01*
X004484Y001856D01*
X004467Y001852D01*
X004450Y001850D01*
X003750Y001850D02*
X003733Y001852D01*
X003716Y001856D01*
X003700Y001863D01*
X003686Y001873D01*
X003673Y001886D01*
X003663Y001900D01*
X003656Y001916D01*
X003652Y001933D01*
X003650Y001950D01*
X003550Y001950D02*
X003548Y001933D01*
X003544Y001916D01*
X003537Y001900D01*
X003527Y001886D01*
X003514Y001873D01*
X003500Y001863D01*
X003484Y001856D01*
X003467Y001852D01*
X003450Y001850D01*
X007150Y004500D02*
X007150Y005700D01*
X007152Y005717D01*
X007156Y005734D01*
X007163Y005750D01*
X007173Y005764D01*
X007186Y005777D01*
X007200Y005787D01*
X007216Y005794D01*
X007233Y005798D01*
X007250Y005800D01*
X009950Y005800D01*
X009967Y005798D01*
X009984Y005794D01*
X010000Y005787D01*
X010014Y005777D01*
X010027Y005764D01*
X010037Y005750D01*
X010044Y005734D01*
X010048Y005717D01*
X010050Y005700D01*
X010050Y004500D01*
X010048Y004483D01*
X010044Y004466D01*
X010037Y004450D01*
X010027Y004436D01*
X010014Y004423D01*
X010000Y004413D01*
X009984Y004406D01*
X009967Y004402D01*
X009950Y004400D01*
X007250Y004400D01*
X007233Y004402D01*
X007216Y004406D01*
X007200Y004413D01*
X007186Y004423D01*
X007173Y004436D01*
X007163Y004450D01*
X007156Y004466D01*
X007152Y004483D01*
X007150Y004500D01*
X008000Y005100D02*
X008480Y005100D01*
X008730Y005100D02*
X009200Y005100D01*
X005600Y006850D02*
X005600Y008350D01*
X005350Y008600D01*
X004850Y008600D01*
X004600Y008350D01*
X004600Y006850D01*
X004850Y006600D01*
X005350Y006600D01*
X005600Y006850D01*
X004600Y006850D02*
X004350Y006600D01*
X003850Y006600D01*
X003600Y006850D01*
X003600Y008350D01*
X003850Y008600D01*
X004350Y008600D01*
X004600Y008350D01*
X004350Y009100D02*
X003850Y009100D01*
X003600Y009350D01*
X003600Y010850D01*
X003850Y011100D01*
X004350Y011100D01*
X004600Y010850D01*
X004850Y011100D01*
X005350Y011100D01*
X005600Y010850D01*
X005600Y009350D01*
X005350Y009100D01*
X004850Y009100D01*
X004600Y009350D01*
X004600Y010850D01*
X003600Y010850D02*
X003350Y011100D01*
X002850Y011100D01*
X002600Y010850D01*
X002600Y009350D01*
X002850Y009100D01*
X003350Y009100D01*
X003600Y009350D01*
X004350Y009100D02*
X004600Y009350D01*
X003600Y008350D02*
X003350Y008600D01*
X002850Y008600D01*
X002600Y008350D01*
X002600Y006850D01*
X002850Y006600D01*
X003350Y006600D01*
X003600Y006850D01*
X002600Y006850D02*
X002350Y006600D01*
X001850Y006600D01*
X001600Y006850D01*
X001600Y008350D01*
X001850Y008600D01*
X002350Y008600D01*
X002600Y008350D01*
X002350Y009100D02*
X001850Y009100D01*
X001600Y009350D01*
X001600Y010850D01*
X001850Y011100D01*
X002350Y011100D01*
X002600Y010850D01*
X002600Y009350D02*
X002350Y009100D01*
X005600Y012350D02*
X005600Y012850D01*
X005850Y013100D01*
X007350Y013100D01*
X007600Y013350D01*
X007600Y013850D01*
X007350Y014100D01*
X007600Y014350D01*
X007600Y014850D01*
X007350Y015100D01*
X005850Y015100D01*
X005600Y014850D01*
X005600Y014350D01*
X005850Y014100D01*
X007350Y014100D01*
X007350Y013100D02*
X007600Y012850D01*
X007600Y012350D01*
X007350Y012100D01*
X005850Y012100D01*
X005600Y012350D01*
X005850Y013100D02*
X005600Y013350D01*
X005600Y013850D01*
X005850Y014100D01*
X006600Y017150D02*
X007600Y017150D01*
X007617Y017152D01*
X007634Y017156D01*
X007650Y017163D01*
X007664Y017173D01*
X007677Y017186D01*
X007687Y017200D01*
X007694Y017216D01*
X007698Y017233D01*
X007700Y017250D01*
X007700Y019950D01*
X007698Y019967D01*
X007694Y019984D01*
X007687Y020000D01*
X007677Y020014D01*
X007664Y020027D01*
X007650Y020037D01*
X007634Y020044D01*
X007617Y020048D01*
X007600Y020050D01*
X006600Y020050D01*
X006583Y020048D01*
X006566Y020044D01*
X006550Y020037D01*
X006536Y020027D01*
X006523Y020014D01*
X006513Y020000D01*
X006506Y019984D01*
X006502Y019967D01*
X006500Y019950D01*
X006500Y017250D01*
X006502Y017233D01*
X006506Y017216D01*
X006513Y017200D01*
X006523Y017186D01*
X006536Y017173D01*
X006550Y017163D01*
X006566Y017156D01*
X006583Y017152D01*
X006600Y017150D01*
X007100Y018000D02*
X007100Y018470D01*
X007100Y018720D02*
X007100Y019200D01*
X007950Y022900D02*
X005250Y022900D01*
X005233Y022902D01*
X005216Y022906D01*
X005200Y022913D01*
X005186Y022923D01*
X005173Y022936D01*
X005163Y022950D01*
X005156Y022966D01*
X005152Y022983D01*
X005150Y023000D01*
X005150Y024200D01*
X005152Y024217D01*
X005156Y024234D01*
X005163Y024250D01*
X005173Y024264D01*
X005186Y024277D01*
X005200Y024287D01*
X005216Y024294D01*
X005233Y024298D01*
X005250Y024300D01*
X007950Y024300D01*
X007967Y024298D01*
X007984Y024294D01*
X008000Y024287D01*
X008014Y024277D01*
X008027Y024264D01*
X008037Y024250D01*
X008044Y024234D01*
X008048Y024217D01*
X008050Y024200D01*
X008050Y023000D01*
X008048Y022983D01*
X008044Y022966D01*
X008037Y022950D01*
X008027Y022936D01*
X008014Y022923D01*
X008000Y022913D01*
X007984Y022906D01*
X007967Y022902D01*
X007950Y022900D01*
X007200Y023600D02*
X006730Y023600D01*
X006480Y023600D02*
X006000Y023600D01*
X005250Y025900D02*
X007950Y025900D01*
X007967Y025902D01*
X007984Y025906D01*
X008000Y025913D01*
X008014Y025923D01*
X008027Y025936D01*
X008037Y025950D01*
X008044Y025966D01*
X008048Y025983D01*
X008050Y026000D01*
X008050Y027200D01*
X008048Y027217D01*
X008044Y027234D01*
X008037Y027250D01*
X008027Y027264D01*
X008014Y027277D01*
X008000Y027287D01*
X007984Y027294D01*
X007967Y027298D01*
X007950Y027300D01*
X005250Y027300D01*
X005233Y027298D01*
X005216Y027294D01*
X005200Y027287D01*
X005186Y027277D01*
X005173Y027264D01*
X005163Y027250D01*
X005156Y027234D01*
X005152Y027217D01*
X005150Y027200D01*
X005150Y026000D01*
X005152Y025983D01*
X005156Y025966D01*
X005163Y025950D01*
X005173Y025936D01*
X005186Y025923D01*
X005200Y025913D01*
X005216Y025906D01*
X005233Y025902D01*
X005250Y025900D01*
X006000Y026600D02*
X006480Y026600D01*
X006730Y026600D02*
X007200Y026600D01*
X004550Y026000D02*
X004550Y027200D01*
X004548Y027217D01*
X004544Y027234D01*
X004537Y027250D01*
X004527Y027264D01*
X004514Y027277D01*
X004500Y027287D01*
X004484Y027294D01*
X004467Y027298D01*
X004450Y027300D01*
X001750Y027300D01*
X001733Y027298D01*
X001716Y027294D01*
X001700Y027287D01*
X001686Y027277D01*
X001673Y027264D01*
X001663Y027250D01*
X001656Y027234D01*
X001652Y027217D01*
X001650Y027200D01*
X001650Y026000D01*
X001652Y025983D01*
X001656Y025966D01*
X001663Y025950D01*
X001673Y025936D01*
X001686Y025923D01*
X001700Y025913D01*
X001716Y025906D01*
X001733Y025902D01*
X001750Y025900D01*
X004450Y025900D01*
X004467Y025902D01*
X004484Y025906D01*
X004500Y025913D01*
X004514Y025923D01*
X004527Y025936D01*
X004537Y025950D01*
X004544Y025966D01*
X004548Y025983D01*
X004550Y026000D01*
X003700Y026600D02*
X003230Y026600D01*
X002980Y026600D02*
X002500Y026600D01*
X002350Y024600D02*
X001850Y024600D01*
X001600Y024350D01*
X001600Y023850D01*
X001850Y023600D01*
X002350Y023600D01*
X002600Y023850D01*
X002600Y024350D01*
X002350Y024600D01*
X002350Y023600D02*
X002600Y023350D01*
X002600Y022850D01*
X002350Y022600D01*
X002600Y022350D01*
X002600Y021850D01*
X002350Y021600D01*
X001850Y021600D01*
X001600Y021850D01*
X001600Y022350D01*
X001850Y022600D01*
X001600Y022850D01*
X001600Y023350D01*
X001850Y023600D01*
X001850Y022600D02*
X002350Y022600D01*
X014600Y026350D02*
X014850Y026100D01*
X015350Y026100D01*
X015600Y026350D01*
X015850Y026100D01*
X016350Y026100D01*
X016600Y026350D01*
X016600Y026850D01*
X016350Y027100D01*
X015850Y027100D01*
X015600Y026850D01*
X015600Y026350D01*
X015600Y026850D02*
X015350Y027100D01*
X014850Y027100D01*
X014600Y026850D01*
X014600Y026350D01*
X016600Y026350D02*
X016850Y026100D01*
X017350Y026100D01*
X017600Y026350D01*
X017850Y026100D01*
X018350Y026100D01*
X018600Y026350D01*
X018850Y026100D01*
X019350Y026100D01*
X019600Y026350D01*
X019850Y026100D01*
X020350Y026100D01*
X020600Y026350D01*
X020600Y026850D01*
X020350Y027100D01*
X019850Y027100D01*
X019600Y026850D01*
X019600Y026350D01*
X019600Y026850D02*
X019350Y027100D01*
X018850Y027100D01*
X018600Y026850D01*
X018600Y026350D01*
X018600Y026850D02*
X018350Y027100D01*
X017850Y027100D01*
X017600Y026850D01*
X017600Y026350D01*
X017600Y026850D02*
X017350Y027100D01*
X016850Y027100D01*
X016600Y026850D01*
X023100Y026850D02*
X023100Y025350D01*
X023350Y025100D01*
X023850Y025100D01*
X024100Y025350D01*
X024100Y026850D01*
X024350Y027100D01*
X024100Y027350D01*
X023850Y027100D01*
X023350Y027100D01*
X023100Y027350D01*
X023100Y027850D01*
X023350Y028100D01*
X023850Y028100D01*
X024100Y027850D01*
X024350Y028100D01*
X024850Y028100D01*
X025100Y027850D01*
X025350Y028100D01*
X025850Y028100D01*
X026100Y027850D01*
X026100Y027350D01*
X025850Y027100D01*
X025350Y027100D01*
X025100Y027350D01*
X024850Y027100D01*
X024350Y027100D01*
X024850Y027100D01*
X025100Y026850D01*
X025350Y027100D01*
X025850Y027100D01*
X026100Y026850D01*
X026100Y025350D01*
X025850Y025100D01*
X025350Y025100D01*
X025100Y025350D01*
X025100Y026850D01*
X025100Y027350D02*
X025100Y027850D01*
X024100Y027850D02*
X024100Y027350D01*
X023850Y027100D02*
X024100Y026850D01*
X023850Y027100D02*
X023350Y027100D01*
X023100Y026850D01*
X024100Y025350D02*
X024350Y025100D01*
X024850Y025100D01*
X025100Y025350D01*
X024350Y019600D02*
X024100Y019350D01*
X024100Y018850D01*
X024350Y018600D01*
X024100Y018350D01*
X024100Y017850D01*
X024350Y017600D01*
X024100Y017350D01*
X024100Y016850D01*
X024350Y016600D01*
X024100Y016350D01*
X024100Y015850D01*
X024350Y015600D01*
X024100Y015350D01*
X024100Y014850D01*
X024350Y014600D01*
X024100Y014350D01*
X024100Y013850D01*
X024350Y013600D01*
X025850Y013600D01*
X026100Y013850D01*
X026100Y014350D01*
X025850Y014600D01*
X026100Y014850D01*
X026100Y015350D01*
X025850Y015600D01*
X026100Y015850D01*
X026100Y016350D01*
X025850Y016600D01*
X026100Y016850D01*
X026100Y017350D01*
X025850Y017600D01*
X026100Y017850D01*
X026100Y018350D01*
X025850Y018600D01*
X026100Y018850D01*
X026100Y019350D01*
X025850Y019600D01*
X024350Y019600D01*
X024350Y012600D02*
X024850Y012600D01*
X025100Y012350D01*
X025100Y010850D01*
X025350Y010600D01*
X025850Y010600D01*
X026100Y010850D01*
X026350Y010600D01*
X026850Y010600D01*
X027100Y010850D01*
X027100Y012350D01*
X026850Y012600D01*
X026350Y012600D01*
X026100Y012350D01*
X026100Y010850D01*
X025100Y010850D02*
X024850Y010600D01*
X024350Y010600D01*
X024100Y010850D01*
X024100Y012350D01*
X024350Y012600D01*
X025100Y012350D02*
X025350Y012600D01*
X025850Y012600D01*
X026100Y012350D01*
X022250Y010050D02*
X022100Y010050D01*
X022050Y010000D01*
X020150Y010000D01*
X020100Y010050D01*
X019950Y010050D01*
X019933Y010048D01*
X019916Y010044D01*
X019900Y010037D01*
X019886Y010027D01*
X019873Y010014D01*
X019863Y010000D01*
X019856Y009984D01*
X019852Y009967D01*
X019850Y009950D01*
X019850Y009250D02*
X019852Y009233D01*
X019856Y009216D01*
X019863Y009200D01*
X019873Y009186D01*
X019886Y009173D01*
X019900Y009163D01*
X019916Y009156D01*
X019933Y009152D01*
X019950Y009150D01*
X020100Y009150D01*
X020150Y009200D01*
X022050Y009200D01*
X022100Y009150D01*
X022250Y009150D01*
X022267Y009152D01*
X022284Y009156D01*
X022300Y009163D01*
X022314Y009173D01*
X022327Y009186D01*
X022337Y009200D01*
X022344Y009216D01*
X022348Y009233D01*
X022350Y009250D01*
X022350Y009950D02*
X022348Y009967D01*
X022344Y009984D01*
X022337Y010000D01*
X022327Y010014D01*
X022314Y010027D01*
X022300Y010037D01*
X022284Y010044D01*
X022267Y010048D01*
X022250Y010050D01*
X021250Y008050D02*
X021100Y008050D01*
X021050Y008000D01*
X019150Y008000D01*
X019100Y008050D01*
X018950Y008050D01*
X018933Y008048D01*
X018916Y008044D01*
X018900Y008037D01*
X018886Y008027D01*
X018873Y008014D01*
X018863Y008000D01*
X018856Y007984D01*
X018852Y007967D01*
X018850Y007950D01*
X018850Y007250D02*
X018852Y007233D01*
X018856Y007216D01*
X018863Y007200D01*
X018873Y007186D01*
X018886Y007173D01*
X018900Y007163D01*
X018916Y007156D01*
X018933Y007152D01*
X018950Y007150D01*
X019100Y007150D01*
X019150Y007200D01*
X021050Y007200D01*
X021100Y007150D01*
X021250Y007150D01*
X021267Y007152D01*
X021284Y007156D01*
X021300Y007163D01*
X021314Y007173D01*
X021327Y007186D01*
X021337Y007200D01*
X021344Y007216D01*
X021348Y007233D01*
X021350Y007250D01*
X021350Y007950D02*
X021348Y007967D01*
X021344Y007984D01*
X021337Y008000D01*
X021327Y008014D01*
X021314Y008027D01*
X021300Y008037D01*
X021284Y008044D01*
X021267Y008048D01*
X021250Y008050D01*
X021350Y003600D02*
X021850Y003600D01*
X022100Y003350D01*
X022350Y003600D01*
X022850Y003600D01*
X023100Y003350D01*
X023350Y003600D01*
X023850Y003600D01*
X024100Y003350D01*
X024350Y003600D01*
X024850Y003600D01*
X025100Y003350D01*
X025350Y003600D01*
X025850Y003600D01*
X026100Y003350D01*
X026100Y002850D01*
X025850Y002600D01*
X025350Y002600D01*
X025100Y002850D01*
X024850Y002600D01*
X024350Y002600D01*
X024100Y002850D01*
X024100Y003350D01*
X024100Y002850D02*
X023850Y002600D01*
X023350Y002600D01*
X023100Y002850D01*
X022850Y002600D01*
X022350Y002600D01*
X022100Y002850D01*
X021850Y002600D01*
X021350Y002600D01*
X021100Y002850D01*
X020850Y002600D01*
X020350Y002600D01*
X020100Y002850D01*
X020100Y003350D01*
X020350Y003600D01*
X020850Y003600D01*
X021100Y003350D01*
X021350Y003600D01*
X021100Y003350D02*
X021100Y002850D01*
X022100Y002850D02*
X022100Y003350D01*
X023100Y003350D02*
X023100Y002850D01*
X025100Y002850D02*
X025100Y003350D01*
X016450Y004200D02*
X013750Y004200D01*
X013691Y004202D01*
X013633Y004208D01*
X013574Y004217D01*
X013517Y004231D01*
X013461Y004248D01*
X013406Y004269D01*
X013352Y004293D01*
X013300Y004321D01*
X013250Y004352D01*
X013202Y004386D01*
X013157Y004423D01*
X013114Y004464D01*
X013073Y004507D01*
X013036Y004552D01*
X013002Y004600D01*
X012971Y004650D01*
X012943Y004702D01*
X012919Y004756D01*
X012898Y004811D01*
X012881Y004867D01*
X012867Y004924D01*
X012858Y004983D01*
X012852Y005041D01*
X012850Y005100D01*
X012852Y005159D01*
X012858Y005217D01*
X012867Y005276D01*
X012881Y005333D01*
X012898Y005389D01*
X012919Y005444D01*
X012943Y005498D01*
X012971Y005550D01*
X013002Y005600D01*
X013036Y005648D01*
X013073Y005693D01*
X013114Y005736D01*
X013157Y005777D01*
X013202Y005814D01*
X013250Y005848D01*
X013300Y005879D01*
X013352Y005907D01*
X013406Y005931D01*
X013461Y005952D01*
X013517Y005969D01*
X013574Y005983D01*
X013633Y005992D01*
X013691Y005998D01*
X013750Y006000D01*
X016450Y006000D01*
X016509Y005998D01*
X016567Y005992D01*
X016626Y005983D01*
X016683Y005969D01*
X016739Y005952D01*
X016794Y005931D01*
X016848Y005907D01*
X016900Y005879D01*
X016950Y005848D01*
X016998Y005814D01*
X017043Y005777D01*
X017086Y005736D01*
X017127Y005693D01*
X017164Y005648D01*
X017198Y005600D01*
X017229Y005550D01*
X017257Y005498D01*
X017281Y005444D01*
X017302Y005389D01*
X017319Y005333D01*
X017333Y005276D01*
X017342Y005217D01*
X017348Y005159D01*
X017350Y005100D01*
X017348Y005041D01*
X017342Y004983D01*
X017333Y004924D01*
X017319Y004867D01*
X017302Y004811D01*
X017281Y004756D01*
X017257Y004702D01*
X017229Y004650D01*
X017198Y004600D01*
X017164Y004552D01*
X017127Y004507D01*
X017086Y004464D01*
X017043Y004423D01*
X016998Y004386D01*
X016950Y004352D01*
X016900Y004321D01*
X016848Y004293D01*
X016794Y004269D01*
X016739Y004248D01*
X016683Y004231D01*
X016626Y004217D01*
X016567Y004208D01*
X016509Y004202D01*
X016450Y004200D01*
X015450Y007400D02*
X012750Y007400D01*
X012733Y007402D01*
X012716Y007406D01*
X012700Y007413D01*
X012686Y007423D01*
X012673Y007436D01*
X012663Y007450D01*
X012656Y007466D01*
X012652Y007483D01*
X012650Y007500D01*
X012650Y008700D01*
X012652Y008717D01*
X012656Y008734D01*
X012663Y008750D01*
X012673Y008764D01*
X012686Y008777D01*
X012700Y008787D01*
X012716Y008794D01*
X012733Y008798D01*
X012750Y008800D01*
X015450Y008800D01*
X015467Y008798D01*
X015484Y008794D01*
X015500Y008787D01*
X015514Y008777D01*
X015527Y008764D01*
X015537Y008750D01*
X015544Y008734D01*
X015548Y008717D01*
X015550Y008700D01*
X015550Y007500D01*
X015548Y007483D01*
X015544Y007466D01*
X015537Y007450D01*
X015527Y007436D01*
X015514Y007423D01*
X015500Y007413D01*
X015484Y007406D01*
X015467Y007402D01*
X015450Y007400D01*
X014700Y008100D02*
X014230Y008100D01*
X013980Y008100D02*
X013500Y008100D01*
D12*
X013750Y005800D02*
X016450Y005800D01*
X016501Y005798D01*
X016552Y005793D01*
X016602Y005783D01*
X016652Y005770D01*
X016700Y005754D01*
X016747Y005734D01*
X016793Y005710D01*
X016836Y005684D01*
X016878Y005654D01*
X016917Y005621D01*
X016954Y005586D01*
X016988Y005548D01*
X017019Y005507D01*
X017048Y005465D01*
X017073Y005420D01*
X017094Y005374D01*
X017113Y005326D01*
X017127Y005277D01*
X017138Y005227D01*
X017146Y005177D01*
X017150Y005126D01*
X017150Y005074D01*
X017146Y005023D01*
X017138Y004973D01*
X017127Y004923D01*
X017113Y004874D01*
X017094Y004826D01*
X017073Y004780D01*
X017048Y004735D01*
X017019Y004693D01*
X016988Y004652D01*
X016954Y004614D01*
X016917Y004579D01*
X016878Y004546D01*
X016836Y004516D01*
X016793Y004490D01*
X016747Y004466D01*
X016700Y004446D01*
X016652Y004430D01*
X016602Y004417D01*
X016552Y004407D01*
X016501Y004402D01*
X016450Y004400D01*
X013750Y004400D01*
X013699Y004402D01*
X013648Y004407D01*
X013598Y004417D01*
X013548Y004430D01*
X013500Y004446D01*
X013453Y004466D01*
X013407Y004490D01*
X013364Y004516D01*
X013322Y004546D01*
X013283Y004579D01*
X013246Y004614D01*
X013212Y004652D01*
X013181Y004693D01*
X013152Y004735D01*
X013127Y004780D01*
X013106Y004826D01*
X013087Y004874D01*
X013073Y004923D01*
X013062Y004973D01*
X013054Y005023D01*
X013050Y005074D01*
X013050Y005126D01*
X013054Y005177D01*
X013062Y005227D01*
X013073Y005277D01*
X013087Y005326D01*
X013106Y005374D01*
X013127Y005420D01*
X013152Y005465D01*
X013181Y005507D01*
X013212Y005548D01*
X013246Y005586D01*
X013283Y005621D01*
X013322Y005654D01*
X013364Y005684D01*
X013407Y005710D01*
X013453Y005734D01*
X013500Y005754D01*
X013548Y005770D01*
X013598Y005783D01*
X013648Y005793D01*
X013699Y005798D01*
X013750Y005800D01*
D13*
X013980Y007850D02*
X013980Y008100D01*
X013980Y008350D01*
X014230Y008350D02*
X014230Y008100D01*
X014230Y007850D01*
X008730Y005350D02*
X008730Y005100D01*
X008730Y004850D01*
X008480Y004850D02*
X008480Y005100D01*
X008480Y005350D01*
X007350Y018470D02*
X007100Y018470D01*
X006850Y018470D01*
X006850Y018720D02*
X007100Y018720D01*
X007350Y018720D01*
X006730Y023350D02*
X006730Y023600D01*
X006730Y023850D01*
X006480Y023850D02*
X006480Y023600D01*
X006480Y023350D01*
X006480Y026350D02*
X006480Y026600D01*
X006480Y026850D01*
X006730Y026850D02*
X006730Y026600D01*
X006730Y026350D01*
X003230Y026350D02*
X003230Y026600D01*
X003230Y026850D01*
X002980Y026850D02*
X002980Y026600D01*
X002980Y026350D01*
D14*
X023475Y019015D02*
X023925Y019015D01*
X023925Y018865D02*
X023925Y019165D01*
X023625Y018865D02*
X023475Y019015D01*
X026350Y014465D02*
X026275Y014390D01*
X026275Y014240D01*
X026350Y014165D01*
X026350Y014465D02*
X026425Y014465D01*
X026725Y014165D01*
X026725Y014465D01*
X026725Y014004D02*
X026725Y013704D01*
X026725Y013854D02*
X026275Y013854D01*
X026425Y013704D01*
M02*
