%
M48
M72
T01C0.0236
T02C0.0240
T03C0.0320
T04C0.0400
%
T01
X6100Y8100
X9600Y10600
X10100Y10100
X10100Y12100
X9600Y12100
X8600Y14100
X8100Y14100
X11100Y16100
X11100Y16600
X11600Y17100
X11600Y18100
X11600Y18600
X10600Y17600
X10600Y19600
X12600Y19100
X13600Y20100
X15100Y17100
X15100Y14600
X14600Y14100
X16100Y14600
X18600Y17100
X19100Y18100
X20600Y18600
X19600Y19600
X18600Y20100
X21100Y17100
X22600Y17600
X22600Y18600
X23600Y17600
X23600Y16600
X23600Y15600
X22600Y14600
X25600Y10100
X18100Y11600
X17600Y11100
X16600Y8600
X14600Y6100
X12100Y15100
X22600Y24600
X25600Y21600
T02
X12100Y19100
X14100Y5100
X16100Y5100
T03
X3100Y1600
X4100Y1600
X4100Y4600
X3100Y4600
X7600Y5100
X9600Y5100
X13100Y8100
X15100Y8100
X18600Y7600
X19600Y9600
X21600Y7600
X22600Y9600
X7600Y23600
X5600Y23600
X5600Y26600
X4100Y26600
X2100Y26600
X7600Y26600
X7100Y19600
X7100Y17600
T04
X7100Y14600
X7100Y13600
X7100Y12600
X6100Y12600
X6100Y13600
X6100Y14600
X5100Y10600
X5100Y9600
X4100Y9600
X4100Y10600
X3100Y10600
X3100Y9600
X2100Y9600
X2100Y10600
X2100Y8100
X3100Y8100
X3100Y7100
X2100Y7100
X4100Y7100
X5100Y7100
X5100Y8100
X4100Y8100
X2100Y22100
X2100Y23100
X2100Y24100
X15100Y26600
X16100Y26600
X17100Y26600
X18100Y26600
X19100Y26600
X20100Y26600
X23600Y26600
X23600Y25600
X24600Y25600
X24600Y26600
X24600Y27600
X23600Y27600
X25600Y27600
X25600Y26600
X25600Y25600
X25600Y19100
X25600Y18100
X25600Y17100
X25600Y16100
X25600Y15100
X25600Y14100
X24600Y14100
X24600Y15100
X24600Y16100
X24600Y17100
X24600Y18100
X24600Y19100
X24600Y12100
X24600Y11100
X25600Y11100
X25600Y12100
X26600Y12100
X26600Y11100
X25600Y3100
X24600Y3100
X23600Y3100
X22600Y3100
X21600Y3100
X20600Y3100
M30
