G75*
G70*
%OFA0B0*%
%FSLAX24Y24*%
%IPPOS*%
%LPD*%
%AMOC8*
5,1,8,0,0,1.08239X$1,22.5*
%
%ADD10C,0.0520*%
%ADD11OC8,0.0710*%
%ADD12C,0.0680*%
%ADD13OC8,0.0600*%
%ADD14OC8,0.0680*%
%ADD15R,0.0476X0.0476*%
%ADD16C,0.0480*%
D10*
X014100Y004880D02*
X014100Y005320D01*
X016100Y005320D02*
X016100Y004880D01*
D11*
X015100Y008100D03*
X013100Y008100D03*
X009600Y005100D03*
X007600Y005100D03*
X007600Y023600D03*
X005600Y023600D03*
X005600Y026600D03*
X004100Y026600D03*
X002100Y026600D03*
X007600Y026600D03*
D12*
X002400Y024100D02*
X001800Y024100D01*
X001800Y023100D02*
X002400Y023100D01*
X002400Y022100D02*
X001800Y022100D01*
X015100Y026300D02*
X015100Y026900D01*
X016100Y026900D02*
X016100Y026300D01*
X017100Y026300D02*
X017100Y026900D01*
X018100Y026900D02*
X018100Y026300D01*
X019100Y026300D02*
X019100Y026900D01*
X020100Y026900D02*
X020100Y026300D01*
X023600Y027300D02*
X023600Y027900D01*
X024600Y027900D02*
X024600Y027300D01*
X025600Y027300D02*
X025600Y027900D01*
X025600Y003400D02*
X025600Y002800D01*
X024600Y002800D02*
X024600Y003400D01*
X023600Y003400D02*
X023600Y002800D01*
X022600Y002800D02*
X022600Y003400D01*
X021600Y003400D02*
X021600Y002800D01*
X020600Y002800D02*
X020600Y003400D01*
D13*
X003100Y001600D03*
X004100Y001600D03*
X004100Y004600D03*
X003100Y004600D03*
X007100Y017600D03*
X007100Y019600D03*
X018600Y007600D03*
X019600Y009600D03*
X021600Y007600D03*
X022600Y009600D03*
D14*
X024600Y011100D03*
X024600Y012100D03*
X025600Y012100D03*
X025600Y011100D03*
X026600Y011100D03*
X026600Y012100D03*
X025600Y014100D03*
X025600Y015100D03*
X025600Y016100D03*
X025600Y017100D03*
X025600Y018100D03*
X025600Y019100D03*
X024600Y019100D03*
X024600Y018100D03*
X024600Y017100D03*
X024600Y016100D03*
X024600Y015100D03*
X024600Y014100D03*
X024600Y025600D03*
X024600Y026600D03*
X023600Y026600D03*
X023600Y025600D03*
X025600Y025600D03*
X025600Y026600D03*
X007100Y014600D03*
X007100Y013600D03*
X007100Y012600D03*
X006100Y012600D03*
X006100Y013600D03*
X006100Y014600D03*
X005100Y010600D03*
X005100Y009600D03*
X004100Y009600D03*
X004100Y010600D03*
X003100Y010600D03*
X003100Y009600D03*
X002100Y009600D03*
X002100Y010600D03*
X002100Y008100D03*
X003100Y008100D03*
X003100Y007100D03*
X002100Y007100D03*
X004100Y007100D03*
X005100Y007100D03*
X005100Y008100D03*
X004100Y008100D03*
D15*
X006100Y008100D03*
X009600Y010600D03*
X010100Y010100D03*
X010100Y012100D03*
X009600Y012100D03*
X008600Y014100D03*
X008100Y014100D03*
X011100Y016100D03*
X011100Y016600D03*
X011600Y017100D03*
X011600Y018100D03*
X011600Y018600D03*
X010600Y017600D03*
X010600Y019600D03*
X012600Y019100D03*
X013600Y020100D03*
X015100Y017100D03*
X015100Y014600D03*
X014600Y014100D03*
X016100Y014600D03*
X018600Y017100D03*
X019100Y018100D03*
X020600Y018600D03*
X019600Y019600D03*
X018600Y020100D03*
X021100Y017100D03*
X022600Y017600D03*
X022600Y018600D03*
X023600Y017600D03*
X023600Y016600D03*
X023600Y015600D03*
X022600Y014600D03*
X025600Y010100D03*
X018100Y011600D03*
X017600Y011100D03*
X016600Y008600D03*
X014600Y006100D03*
X012100Y015100D03*
X022600Y024600D03*
X025600Y021600D03*
D16*
X012100Y019100D03*
M02*
