G75*
G70*
%OFA0B0*%
%FSLAX24Y24*%
%IPPOS*%
%LPD*%
%AMOC8*
5,1,8,0,0,1.08239X$1,22.5*
%
%ADD10R,0.0591X0.0138*%
%ADD11R,0.0138X0.0591*%
D10*
X009450Y009738D03*
X009450Y009935D03*
X009450Y010131D03*
X009450Y010328D03*
X009450Y010525D03*
X009450Y010722D03*
X009450Y010919D03*
X009450Y011116D03*
X009450Y011313D03*
X009450Y011509D03*
X009450Y011706D03*
X009450Y011903D03*
X009450Y012100D03*
X009450Y012297D03*
X009450Y012494D03*
X009450Y012691D03*
X009450Y012887D03*
X009450Y013084D03*
X009450Y013281D03*
X009450Y013478D03*
X009450Y013675D03*
X009450Y013872D03*
X009450Y014069D03*
X009450Y014265D03*
X009450Y014462D03*
X015750Y014462D03*
X015750Y014265D03*
X015750Y014069D03*
X015750Y013872D03*
X015750Y013675D03*
X015750Y013478D03*
X015750Y013281D03*
X015750Y013084D03*
X015750Y012887D03*
X015750Y012691D03*
X015750Y012494D03*
X015750Y012297D03*
X015750Y012100D03*
X015750Y011903D03*
X015750Y011706D03*
X015750Y011509D03*
X015750Y011313D03*
X015750Y011116D03*
X015750Y010919D03*
X015750Y010722D03*
X015750Y010525D03*
X015750Y010328D03*
X015750Y010131D03*
X015750Y009935D03*
X015750Y009738D03*
D11*
X014962Y008950D03*
X014765Y008950D03*
X014569Y008950D03*
X014372Y008950D03*
X014175Y008950D03*
X013978Y008950D03*
X013781Y008950D03*
X013584Y008950D03*
X013387Y008950D03*
X013191Y008950D03*
X012994Y008950D03*
X012797Y008950D03*
X012600Y008950D03*
X012403Y008950D03*
X012206Y008950D03*
X012009Y008950D03*
X011813Y008950D03*
X011616Y008950D03*
X011419Y008950D03*
X011222Y008950D03*
X011025Y008950D03*
X010828Y008950D03*
X010631Y008950D03*
X010435Y008950D03*
X010238Y008950D03*
X010238Y015250D03*
X010435Y015250D03*
X010631Y015250D03*
X010828Y015250D03*
X011025Y015250D03*
X011222Y015250D03*
X011419Y015250D03*
X011616Y015250D03*
X011813Y015250D03*
X012009Y015250D03*
X012206Y015250D03*
X012403Y015250D03*
X012600Y015250D03*
X012797Y015250D03*
X012994Y015250D03*
X013191Y015250D03*
X013387Y015250D03*
X013584Y015250D03*
X013781Y015250D03*
X013978Y015250D03*
X014175Y015250D03*
X014372Y015250D03*
X014569Y015250D03*
X014765Y015250D03*
X014962Y015250D03*
M02*
